<!-- Generated by IcoMoon.io -->
<svg version="1.1" xmlns="http://www.w3.org/2000/svg" width="1024" height="1024" viewBox="0 0 1024 1024">
<title></title>
<g id="icomoon-ignore">
</g>
<path fill="#000" d="M725.333 938.667h-341.333v-85.333h341.333v85.333z"></path>
<path fill="#000" d="M512 896.001v-229.689h85.333v229.689h-85.333z"></path>
<path fill="#000" d="M717.974 128h178.036v85.333h-129.164l-175.369 298.923-73.602-43.18 200.099-341.077z"></path>
<path fill="#000" d="M213.333 298.667h682.667l-341.333 455.113-341.333-455.113zM384 384l170.667 227.555 170.667-227.555h-341.333z"></path>
<path fill="#000" d="M256 213.333c-47.128 0-85.333 38.205-85.333 85.333s38.205 85.333 85.333 85.333c15.614 0 30.128-4.154 42.636-11.39l42.729 73.865c-25.146 14.546-54.35 22.858-85.364 22.858-94.257 0-170.667-76.41-170.667-170.667s76.41-170.667 170.667-170.667c94.257 0 170.667 76.41 170.667 170.667h-85.333c0-47.128-38.205-85.333-85.333-85.333z"></path>
</svg>
