<!-- Generated by IcoMoon.io -->
<svg version="1.1" xmlns="http://www.w3.org/2000/svg" width="1024" height="1024" viewBox="0 0 1024 1024">
<title></title>
<g id="icomoon-ignore">
</g>
<path fill="#000" d="M768 213.333v640h-512v-640h512zM256 128c-47.128 0-85.333 38.205-85.333 85.333v640c0 47.13 38.205 85.333 85.333 85.333h512c47.13 0 85.333-38.204 85.333-85.333v-640c0-47.128-38.204-85.333-85.333-85.333h-512z"></path>
<path fill="#000" d="M384 298.667c0 23.564-19.103 42.667-42.667 42.667s-42.667-19.103-42.667-42.667c0-23.564 19.103-42.667 42.667-42.667s42.667 19.103 42.667 42.667z"></path>
<path fill="#000" d="M512 298.667c0 23.564-19.103 42.667-42.667 42.667s-42.667-19.103-42.667-42.667c0-23.564 19.103-42.667 42.667-42.667s42.667 19.103 42.667 42.667z"></path>
<path fill="#000" d="M512 725.333c-70.692 0-128-57.308-128-128s57.308-128 128-128c70.692 0 128 57.308 128 128s-57.308 128-128 128zM512 810.667c117.821 0 213.333-95.513 213.333-213.333s-95.513-213.333-213.333-213.333c-117.821 0-213.333 95.513-213.333 213.333s95.513 213.333 213.333 213.333z"></path>
</svg>
