<!-- Generated by IcoMoon.io -->
<svg width="1024" height="1024" viewBox="0 0 1024 1024">
  <path fill="#000" d="M12.8 115.2c0-21.208 17.192-38.4 38.4-38.4h87.716c47.918 0 90.832 29.662 107.766 74.488l20.234 53.557c0.612-0.030 1.231-0.045 1.851-0.046l601.871-0.512c82.097-0.070 137.917 83.307 106.57 159.186l-99.049 239.762c-11.638 28.17-36.795 48.492-66.783 53.944l-331.942 60.352c-54.712 9.948-108.721-20.608-128.374-72.63l-176.223-466.473c-5.645-14.942-19.949-24.829-35.922-24.829h-87.716c-21.208 0-38.4-17.192-38.4-38.4zM295.903 281.577l127.002 336.184c6.551 17.341 24.556 27.525 42.793 24.21l331.94-60.352c4.285-0.781 7.88-3.684 9.541-7.708l99.049-239.762c10.45-25.29-8.156-53.084-35.523-53.061l-574.802 0.489z"></path>
  <path fill="#000" d="M422.4 870.4c0 42.415-34.385 76.8-76.8 76.8s-76.8-34.385-76.8-76.8c0-42.415 34.385-76.8 76.8-76.8s76.8 34.385 76.8 76.8z"></path>
  <path fill="#000" d="M883.2 870.4c0 42.415-34.385 76.8-76.8 76.8s-76.8-34.385-76.8-76.8c0-42.415 34.385-76.8 76.8-76.8s76.8 34.385 76.8 76.8z"></path>
</svg>
