<!-- Generated by IcoMoon.io -->
<svg version="1.1" xmlns="http://www.w3.org/2000/svg" width="1024" height="1024" viewBox="0 0 1024 1024">
<title></title>
<g id="icomoon-ignore">
</g>
<path fill="#000" d="M85.333 128h853.333c23.564 0 42.667 19.103 42.667 42.667s-19.103 42.667-42.667 42.667h-853.333c-23.564 0-42.667-19.103-42.667-42.667s19.103-42.667 42.667-42.667z"></path>
<path fill="#000" d="M85.333 469.333h853.333c23.564 0 42.667 19.103 42.667 42.667s-19.103 42.667-42.667 42.667h-853.333c-23.564 0-42.667-19.103-42.667-42.667s19.103-42.667 42.667-42.667z"></path>
<path fill="#000" d="M85.333 810.667h853.333c23.564 0 42.667 19.103 42.667 42.667s-19.103 42.667-42.667 42.667h-853.333c-23.564 0-42.667-19.103-42.667-42.667s19.103-42.667 42.667-42.667z"></path>
</svg>
