<!-- Generated by IcoMoon.io -->
<svg version="1.1" xmlns="http://www.w3.org/2000/svg" width="3072" height="1024" viewBox="0 0 3072 1024">
<title></title>
<g id="icomoon-ignore">
</g>
<path fill="#221f1f" stroke="#4d4b4b" stroke-linejoin="miter" stroke-linecap="butt" stroke-miterlimit="4" stroke-width="25.6" d="M102.4 12.8h2867.2c49.485 0 89.6 40.115 89.6 89.6v819.2c0 49.485-40.115 89.6-89.6 89.6h-2867.2c-49.485 0-89.6-40.115-89.6-89.6v-819.2c0-49.485 40.115-89.6 89.6-89.6z"></path>
<path fill="#fff" d="M687.828 505.969c-0.678-77.629 61.839-115.389 64.704-117.156-35.412-53.066-90.299-60.316-109.568-60.879-46.088-4.977-90.796 28.339-114.281 28.339-23.956 0-60.124-27.858-99.077-27.054-50.15 0.801-97.070 30.641-122.796 76.961-53.093 94.492-13.489 233.324 37.391 309.699 25.439 37.409 55.201 79.155 94.1 77.683 38.095-1.605 52.311-24.94 98.268-24.94 45.542 0 58.9 24.94 98.583 24.003 40.878-0.668 66.604-37.571 91.159-75.302 29.396-42.87 41.219-85.097 41.687-87.265-0.991-0.294-79.391-31.068-80.172-124.088z"></path>
<path fill="#fff" d="M612.838 277.678c20.493-26.332 34.501-62.138 30.597-98.478-29.632 1.338-66.711 21.060-88.061 46.83-18.88 22.693-35.75 59.863-31.404 94.838 33.303 2.542 67.492-17.26 88.868-43.19z"></path>
<path fill="#fff" d="M1287.194 772.017h-52.326l-28.672-90.061h-99.635l-27.315 90.061h-50.944l98.714-306.611h60.954zM1197.568 644.17l-25.933-80.077c-2.739-8.166-7.885-27.443-15.462-57.754h-0.922c-3.021 13.030-7.885 32.307-14.566 57.754l-25.446 80.077z"></path>
<path fill="#fff" d="M1541.015 658.737c0 37.606-10.163 67.328-30.49 89.139-18.202 19.43-40.806 29.133-67.789 29.133-29.133 0-50.048-10.47-62.771-31.386h-0.922v116.454h-49.126v-238.387c0-23.629-0.614-47.898-1.818-72.781h43.213l2.739 35.046h0.922c16.384-26.394 41.242-39.578 74.598-39.578 26.086 0 47.846 10.291 65.28 30.925 17.459 20.634 26.163 47.77 26.163 81.434zM1490.967 660.529c0-21.53-4.838-39.27-14.566-53.222-10.624-14.566-24.883-21.837-42.752-21.837-12.109 0-23.142 4.045-32.973 12.058-9.856 8.064-16.307 18.586-19.328 31.642-1.51 6.093-2.278 11.059-2.278 14.976v36.864c0 16.077 4.941 29.645 14.797 40.73s22.682 16.614 38.426 16.614c18.509 0 32.896-7.142 43.213-21.376 10.291-14.285 15.462-33.075 15.462-56.448z"></path>
<path fill="#fff" d="M1795.302 658.737c0 37.606-10.163 67.328-30.515 89.139-18.176 19.43-40.781 29.133-67.763 29.133-29.133 0-50.048-10.47-62.771-31.386h-0.922v116.454h-49.126v-238.387c0-23.629-0.614-47.898-1.818-72.781h43.213l2.739 35.046h0.922c16.358-26.394 41.216-39.578 74.598-39.578 26.061 0 47.821 10.291 65.306 30.925 17.408 20.634 26.138 47.77 26.138 81.434zM1745.254 660.529c0-21.53-4.864-39.27-14.592-53.222-10.624-14.566-24.832-21.837-42.752-21.837-12.134 0-23.142 4.045-32.998 12.058-9.856 8.064-16.282 18.586-19.302 31.642-1.51 6.093-2.278 11.059-2.278 14.976v36.864c0 16.077 4.941 29.645 14.746 40.73 9.856 11.059 22.682 16.614 38.477 16.614 18.509 0 32.896-7.142 43.213-21.376 10.342-14.285 15.488-33.075 15.488-56.448z"></path>
<path fill="#fff" d="M2079.616 686.026c0 26.086-9.062 47.309-27.238 63.693-19.968 17.894-47.795 26.854-83.533 26.854-33.001 0-59.443-6.349-79.462-19.098l11.392-40.934c21.555 13.030 45.235 19.584 71.014 19.584 18.509 0 32.896-4.198 43.238-12.544 10.291-8.346 15.437-19.533 15.437-33.51 0-12.442-4.25-22.938-12.749-31.437-8.448-8.499-22.579-16.41-42.291-23.706-53.683-20.019-80.512-49.357-80.512-87.91 0-25.216 9.395-45.875 28.211-61.952 18.765-16.102 43.776-24.141 75.059-24.141 27.904 0 51.072 4.864 69.581 14.566l-12.288 40.038c-17.28-9.395-36.813-14.106-58.675-14.106-17.28 0-30.771 4.275-40.448 12.749-8.166 7.578-12.288 16.819-12.288 27.75 0 12.109 4.685 22.144 14.080 30.029 8.192 7.27 23.040 15.155 44.595 23.654 26.368 10.624 45.747 23.040 58.214 37.274 12.467 14.182 18.662 31.949 18.662 53.146z"></path>
<path fill="#fff" d="M2242.025 587.773h-54.144v107.341c0 27.29 9.549 40.934 28.672 40.934 8.781 0 16.051-0.768 21.811-2.278l1.357 37.299c-9.677 3.61-22.426 5.427-38.195 5.427-19.405 0-34.56-5.914-45.491-17.741-10.906-11.853-16.384-31.693-16.384-59.597v-111.437h-32.256v-36.864h32.256v-40.474l48.256-14.566v55.040h54.144z"></path>
<path fill="#fff" d="M2486.326 659.633c0 33.997-9.728 61.875-29.133 83.712-20.352 22.451-47.334 33.664-80.998 33.664-32.435 0-58.266-10.752-77.517-32.282s-28.902-48.691-28.902-81.434c0-34.253 9.907-62.31 29.798-84.147 19.84-21.837 46.618-32.768 80.282-32.768 32.435 0 58.547 10.752 78.234 32.307 18.842 20.915 28.237 47.898 28.237 80.947zM2435.356 661.22c0-20.403-4.352-37.888-13.184-52.454-10.291-17.638-25.011-26.445-44.109-26.445-19.738 0-34.739 8.832-45.056 26.445-8.832 14.618-13.184 32.384-13.184 53.376 0 20.378 4.352 37.888 13.184 52.429 10.624 17.638 25.472 26.445 44.595 26.445 18.765 0 33.485-8.986 44.109-26.906 9.088-14.848 13.645-32.512 13.645-52.89z"></path>
<path fill="#fff" d="M2645.99 594.122c-4.864-0.896-10.035-1.357-15.488-1.357-17.28 0-30.643 6.528-40.038 19.584-8.192 11.52-12.288 26.086-12.288 43.648v115.994h-49.101l0.461-151.475c0-25.472-0.614-48.691-1.843-69.606h42.778l1.792 42.291h1.357c5.171-14.541 13.363-26.24 24.55-35.021 10.931-7.91 22.758-11.853 35.507-11.853 4.531 0 8.653 0.333 12.288 0.896 0.026 0.051 0.026 46.899 0.026 46.899z"></path>
<path fill="#fff" d="M2865.664 651.005c0 8.806-0.563 16.23-1.792 22.272h-147.354c0.563 21.837 7.706 38.554 21.376 50.074 12.416 10.291 28.467 15.462 48.205 15.462 21.811 0 41.728-3.482 59.622-10.47l7.706 34.099c-20.915 9.114-45.619 13.67-74.112 13.67-34.278 0-61.184-10.086-80.768-30.259-19.533-20.173-29.338-47.232-29.338-81.203 0-33.331 9.088-61.107 27.315-83.251 19.072-23.629 44.851-35.456 77.312-35.456 31.872 0 55.987 11.827 72.371 35.456 12.954 18.79 19.456 42.010 19.456 69.606zM2818.842 638.257c0.333-14.566-2.893-27.136-9.549-37.76-8.499-13.67-21.555-20.48-39.142-20.48-16.051 0-29.133 6.656-39.091 20.019-8.192 10.624-13.030 23.373-14.541 38.195z"></path>
<path fill="#fff" d="M1159.45 326.175l21.827 5.512c-4.577 17.925-12.826 31.613-24.75 41.062-11.85 9.377-26.363 14.065-43.538 14.065-17.777 0-32.251-3.602-43.425-10.801-11.1-7.276-19.576-17.774-25.426-31.501-5.775-13.724-8.663-28.462-8.663-44.211 0-17.175 3.264-32.138 9.789-44.888 6.6-12.825 15.936-22.537 28.012-29.137 12.15-6.675 25.5-10.013 40.051-10.013 16.499 0 30.374 4.2 41.623 12.6 11.251 8.4 19.087 20.212 23.514 35.437l-21.489 5.064c-3.825-12.001-9.375-20.738-16.65-26.213-7.273-5.475-16.425-8.212-27.448-8.212-12.675 0-23.288 3.037-31.839 9.112-8.474 6.075-14.436 14.249-17.887 24.525-3.451 10.199-5.176 20.739-5.176 31.613 0 14.024 2.025 26.286 6.077 36.787 4.124 10.424 10.499 18.225 19.123 23.398 8.625 5.176 17.964 7.764 28.014 7.764 12.224 0 22.574-3.525 31.050-10.575 8.474-7.050 14.211-17.513 17.211-31.388zM1205.576 264.525h20.25v51.638c6.449 0 10.949-1.236 13.499-3.712 2.627-2.476 6.451-9.677 11.476-21.601 3.973-9.449 7.199-15.675 9.674-18.675s5.325-5.025 8.55-6.075 8.399-1.574 15.524-1.574h4.050v16.763l-5.624-0.113c-5.325 0-8.737 0.788-10.237 2.363-1.574 1.649-3.976 6.561-7.199 14.738-3.077 7.8-5.888 13.199-8.438 16.2s-6.487 5.737-11.814 8.212c8.701 2.324 17.252 10.424 25.651 24.3l22.162 37.012h-22.275l-21.599-37.012c-4.426-7.424-8.289-12.301-11.589-14.625-3.3-2.399-7.237-3.599-11.812-3.599v55.237h-20.25zM1389.624 369.262c-7.498 6.374-14.738 10.875-21.711 13.501-6.899 2.624-14.326 3.937-22.275 3.937-13.125 0-23.214-3.187-30.264-9.564-7.050-6.449-10.573-14.661-10.573-24.637 0-5.85 1.311-11.174 3.937-15.974 2.698-4.874 6.188-8.776 10.46-11.699 4.352-2.926 9.226-5.138 14.625-6.638 3.976-1.050 9.976-2.063 18.002-3.039 16.348-1.948 28.388-4.273 36.111-6.973 0.074-2.775 0.113-4.539 0.113-5.289 0-8.248-1.912-14.062-5.737-17.436-5.176-4.575-12.864-6.863-23.063-6.863-9.526 0-16.576 1.687-21.151 5.064-4.498 3.3-7.836 9.188-10.012 17.661l-19.799-2.698c1.8-8.476 4.762-15.301 8.886-20.477 4.127-5.248 10.089-9.262 17.889-12.037 7.8-2.849 16.837-4.275 27.113-4.275 10.199 0 18.486 1.201 24.863 3.602 6.374 2.399 11.062 5.437 14.062 9.111 3 3.599 5.1 8.177 6.3 13.727 0.673 3.448 1.011 9.674 1.011 18.673v27c0 18.826 0.412 30.751 1.239 35.776 0.899 4.951 2.624 9.713 5.174 14.287h-21.151c-2.099-4.201-3.448-9.114-4.050-14.738zM1387.937 324.037c-7.35 3-18.376 5.55-33.075 7.649-8.325 1.201-14.213 2.552-17.661 4.050-3.451 1.5-6.113 3.715-7.987 6.638-1.876 2.852-2.813 6.039-2.813 9.564 0 5.399 2.025 9.9 6.075 13.499 4.124 3.599 10.125 5.399 17.999 5.399 7.8 0 14.738-1.687 20.813-5.061 6.075-3.451 10.537-8.138 13.389-14.062 2.173-4.575 3.261-11.325 3.261-20.25zM1427.313 264.525h20.25v22.612c0 9.751 0.563 16.837 1.687 21.263 1.201 4.349 4.014 8.174 8.438 11.474 4.426 3.226 9.976 4.838 16.65 4.838 7.649 0 17.551-2.025 29.701-6.075v-54.113h20.25v119.475h-20.25v-48.151c-12.452 3.901-24.077 5.852-34.875 5.852-9.075 0-17.101-2.289-24.077-6.863-6.899-4.652-11.587-10.312-14.062-16.988-2.476-6.674-3.712-14.024-3.712-22.049zM1632.85 369.262c-7.501 6.374-14.738 10.875-21.711 13.501-6.902 2.624-14.326 3.937-22.277 3.937-13.125 0-23.212-3.187-30.262-9.564-7.050-6.449-10.575-14.661-10.575-24.637 0-5.85 1.313-11.174 3.937-15.974 2.701-4.874 6.188-8.776 10.463-11.699 4.349-2.926 9.226-5.138 14.625-6.638 3.976-1.050 9.976-2.063 17.999-3.039 16.351-1.948 28.388-4.273 36.114-6.973 0.074-2.775 0.113-4.539 0.113-5.289 0-8.248-1.912-14.062-5.737-17.436-5.176-4.575-12.864-6.863-23.063-6.863-9.526 0-16.576 1.687-21.151 5.064-4.5 3.3-7.836 9.188-10.012 17.661l-19.799-2.698c1.8-8.476 4.762-15.301 8.886-20.477 4.127-5.248 10.089-9.262 17.889-12.037 7.798-2.849 16.837-4.275 27.11-4.275 10.202 0 18.488 1.201 24.863 3.602 6.377 2.399 11.064 5.437 14.062 9.111 3 3.599 5.102 8.177 6.3 13.727 0.676 3.448 1.014 9.674 1.014 18.673v27c0 18.826 0.412 30.751 1.236 35.776 0.901 4.951 2.627 9.713 5.176 14.287h-21.151c-2.099-4.201-3.451-9.114-4.050-14.738zM1631.163 324.037c-7.35 3-18.376 5.55-33.075 7.649-8.325 1.201-14.213 2.552-17.661 4.050-3.451 1.5-6.113 3.715-7.99 6.638-1.874 2.852-2.811 6.039-2.811 9.564 0 5.399 2.025 9.9 6.075 13.499 4.124 3.599 10.125 5.399 17.999 5.399 7.8 0 14.738-1.687 20.813-5.061 6.075-3.451 10.537-8.138 13.386-14.062 2.176-4.575 3.264-11.325 3.264-20.25zM1667.049 264.525h97.088v16.763h-38.474v102.712h-20.137v-102.712h-38.477zM1783.15 264.525h20.25v46.687h25.651c16.724 0 29.586 3.264 38.587 9.789 9.075 6.449 13.612 15.373 13.612 26.775 0 9.974-3.786 18.524-11.361 25.649-7.501 7.050-19.538 10.575-36.114 10.575h-50.624zM1803.4 367.35h21.263c12.826 0 21.975-1.574 27.448-4.726 5.476-3.149 8.212-8.061 8.212-14.735 0-5.176-2.025-9.789-6.075-13.839s-13.012-6.075-26.888-6.075h-23.962zM1967.875 264.525h46.687c11.476 0 19.988 0.975 25.539 2.926 5.624 1.874 10.424 5.361 14.4 10.463 4.050 5.1 6.075 11.21 6.075 18.337 0 5.699-1.201 10.685-3.599 14.961-2.324 4.201-5.85 7.726-10.575 10.575 5.624 1.876 10.276 5.402 13.949 10.575 3.75 5.1 5.624 11.174 5.624 18.225-0.748 11.325-4.8 19.725-12.15 25.201s-18.038 8.212-32.061 8.212h-53.888zM1988.124 314.813h21.601c8.625 0 14.548-0.451 17.774-1.352 3.226-0.899 6.113-2.698 8.663-5.399 2.55-2.775 3.825-6.075 3.825-9.9 0-6.3-2.25-10.688-6.751-13.164-4.424-2.476-12.037-3.712-22.838-3.712h-22.275zM1988.124 367.35h26.662c11.476 0 19.351-1.313 23.626-3.937 4.275-2.701 6.525-7.311 6.751-13.837 0-3.825-1.239-7.35-3.715-10.575-2.473-3.3-5.699-5.363-9.674-6.188-3.976-0.901-10.35-1.349-19.126-1.349h-24.525z"></path>
</svg>
