<!-- Generated by IcoMoon.io -->
<svg width="1024" height="1024" viewBox="0 0 1024 1024">

<path fill="#000" d="M941.132 178.985c26.547-26.546 26.547-69.587 0-96.112-26.543-26.546-69.586-26.546-96.112 0l-333.020 333.019-333.019-333.019c-26.546-26.546-69.587-26.546-96.112 0s-26.546 69.587 0 96.112l333.019 333.019-333.019 333.020c-26.546 26.547-26.546 69.586 0 96.112s69.587 26.547 96.112 0l333.019-333.020 333.020 333.020c26.547 26.547 69.59 26.547 96.112 0 26.547-26.547 26.547-69.586 0-96.112l-333.020-333.020z"></path>
</svg>
