<!-- Generated by IcoMoon.io -->
<svg class="sidebar__icon" version="1.1" xmlns="http://www.w3.org/2000/svg" width="24" height="24" viewBox="0 0 1024 1024">
<title></title>
<g id="icomoon-ignore">
</g>
<path fill="#adb8c8" d="M286.613 407.55l-42.991-36.379c-16.391-13.87-30.289-39.555-30.289-72.505 0-58.904 39.059-85.333 62.75-85.333 15.528 0 34.115 8.705 48.059 31.149l38.873 62.565 67.572-29.316c32.314-14.019 67.609-21.731 104.704-21.731 36.224 0 70.699 7.345 102.366 20.728l66.62 28.152 38.69-61.101c13.884-21.92 32.213-30.446 47.573-30.446 23.748 0 62.793 26.446 62.793 85.333 0 31.975-13.103 57.181-28.924 71.311l-41.126 36.727 16.585 52.586c9.387 29.761 14.507 61.804 14.507 95.377 0 169.212-129.114 298.667-279.083 298.667s-279.084-129.455-279.084-298.667c0-32.771 4.889-64.099 13.859-93.284l16.545-53.832zM396.625 199.448c-26.875-43.255-70.833-71.448-120.542-71.448-81.792 0-148.083 76.411-148.083 170.667 0 56.495 23.792 106.583 60.5 137.646-11.459 37.281-17.625 77.057-17.625 118.354 0 212.079 163.167 384 364.417 384s364.416-171.921 364.416-384c0-42.292-6.46-82.99-18.458-121.041 34.957-31.219 57.417-80.063 57.417-134.959 0-94.255-66.291-170.667-148.126-170.667-49.165 0-92.749 27.62-119.667 70.125-41.916-17.713-87.667-27.458-135.582-27.458-49.083 0-95.917 10.234-138.667 28.781z"></path>
<path fill="#adb8c8" d="M597.333 576c0 35.346-28.654 64-64 64s-64-28.654-64-64c0-35.346 28.654-64 64-64s64 28.654 64 64z"></path>
<path fill="#adb8c8" d="M682.667 426.667c0 23.564-19.103 42.667-42.667 42.667s-42.667-19.103-42.667-42.667c0-23.564 19.103-42.667 42.667-42.667s42.667 19.103 42.667 42.667z"></path>
<path fill="#adb8c8" d="M469.333 426.667c0 23.564-19.103 42.667-42.667 42.667s-42.667-19.103-42.667-42.667c0-23.564 19.103-42.667 42.667-42.667s42.667 19.103 42.667 42.667z"></path>
</svg>
