<!-- Generated by IcoMoon.io -->
<svg version="1.1" xmlns="http://www.w3.org/2000/svg" width="1024" height="1024" viewBox="0 0 1024 1024">
<title></title>
<g id="icomoon-ignore">
</g>
<path fill="#000" d="M213.333 256c0-70.692 57.308-128 128-128h298.667c70.694 0 128 57.308 128 128v341.333h-85.333v-341.333c0-23.564-19.102-42.667-42.667-42.667h-298.667c-23.564 0-42.667 19.103-42.667 42.667v341.333h-85.333v-341.333z"></path>
<path fill="#000" d="M469.333 298.667c0 23.564-19.103 42.667-42.667 42.667s-42.667-19.103-42.667-42.667c0-23.564 19.103-42.667 42.667-42.667s42.667 19.103 42.667 42.667z"></path>
<path fill="#000" d="M597.333 298.667c0 23.564-19.103 42.667-42.667 42.667s-42.667-19.103-42.667-42.667c0-23.564 19.103-42.667 42.667-42.667s42.667 19.103 42.667 42.667z"></path>
<path fill="#000" d="M469.333 426.667c0 23.564-19.103 42.667-42.667 42.667s-42.667-19.103-42.667-42.667c0-23.564 19.103-42.667 42.667-42.667s42.667 19.103 42.667 42.667z"></path>
<path fill="#000" d="M597.333 426.667c0 23.564-19.103 42.667-42.667 42.667s-42.667-19.103-42.667-42.667c0-23.564 19.103-42.667 42.667-42.667s42.667 19.103 42.667 42.667z"></path>
<path fill="#000" d="M213.333 512v298.667h-42.667v-298.667h42.667zM170.667 426.667c-47.128 0-85.333 38.205-85.333 85.333v384h213.333v-384c0-47.128-38.205-85.333-85.333-85.333h-42.667z"></path>
<path fill="#000" d="M682.667 640v170.667h-384v-170.667h384zM213.333 554.667v341.333h554.667v-341.333h-554.667z"></path>
<path fill="#000" d="M810.667 512v298.667h-42.667v-298.667h42.667zM768 426.667c-47.128 0-85.333 38.205-85.333 85.333v384h213.333v-384c0-47.128-38.205-85.333-85.333-85.333h-42.667z"></path>
<path fill="#000" d="M170.667 853.333h85.333v85.333h-85.333v-85.333z"></path>
<path fill="#000" d="M725.333 853.333h85.333v85.333h-85.333v-85.333z"></path>
</svg>
