<!-- Generated by IcoMoon.io -->
<svg version="1.1" xmlns="http://www.w3.org/2000/svg" width="1024" height="1024" viewBox="0 0 1024 1024">
<title></title>
<g id="icomoon-ignore">
</g>
<path fill="#000" d="M237.333 853.335c-20.034 0-66.667-28.108-66.667-104.667s46.633-104.666 66.667-104.666c20.034 0 66.667 28.108 66.667 104.666s-46.633 104.667-66.667 104.667zM237.333 938.669c83.947 0 152-85.066 152-190s-68.053-190-152-190c-83.947 0-152 85.066-152 190s68.053 190 152 190z"></path>
<path fill="#000" d="M469.333 896c0-23.564 19.103-42.667 42.667-42.667h298.667c23.564 0 42.667 19.103 42.667 42.667v0c0 23.564-19.103 42.667-42.667 42.667h-298.667c-23.564 0-42.667-19.103-42.667-42.667v0z"></path>
<path fill="#000" d="M781.888 763.583c-13.749 36.867-30.323 67.639-46.949 89.75h-147.211c-16.625-22.112-33.2-52.884-46.949-89.75-18.883-50.632-28.779-102.978-28.779-141.871 0-51.228 16.541-71.904 32.905-83.56 21.598-15.383 59.415-26.152 116.428-26.152s94.83 10.768 116.428 26.152c16.364 11.656 32.905 32.332 32.905 83.56 0 38.894-9.896 91.239-28.779 141.871zM772.565 938.667c73.491-66.893 123.435-214.83 123.435-316.955 0-148.113-105.066-195.045-234.667-195.045s-234.667 46.932-234.667 195.045c0 102.125 49.944 250.062 123.435 316.955h222.463z"></path>
<path fill="#000" d="M725.333 341.333v85.333h-128v-85.333h128zM597.333 256c-47.128 0-85.333 38.205-85.333 85.333v85.333c0 47.128 38.205 85.333 85.333 85.333h128c47.128 0 85.333-38.205 85.333-85.333v-85.333c0-47.128-38.205-85.333-85.333-85.333h-128z"></path>
<path fill="#000" d="M682.667 213.333h-42.667v42.667h42.667v-42.667zM640 128c-47.128 0-85.333 38.205-85.333 85.333v42.667c0 47.128 38.205 85.333 85.333 85.333h42.667c47.128 0 85.333-38.205 85.333-85.333v-42.667c0-47.128-38.205-85.333-85.333-85.333h-42.667z"></path>
<path fill="#000" d="M642.667 280h50.667v50.667h-50.667v-50.667z"></path>
<path fill="#000" d="M340.428 268.308c75.3-69.151 171.494-97.641 256.905-97.641v85.333c-67.6 0-142.073 22.71-199.187 75.159-56.207 51.617-99.48 135.587-99.48 266.174h-85.333c0-151.013 50.888-259.043 127.095-329.026z"></path>
</svg>
