<!-- Generated by IcoMoon.io -->
<svg version="1.1" xmlns="http://www.w3.org/2000/svg" width="1024" height="1024" viewBox="0 0 1024 1024">
<title></title>
<g id="icomoon-ignore">
</g>
<path fill="#000" d="M298.667 298.667v85.333h-85.333v85.333h85.333v85.333h85.333v-85.333h85.333v-85.333h-85.333v-85.333h-85.333z"></path>
<path fill="#000" d="M682.667 384c23.565 0 42.667-19.103 42.667-42.667s-19.102-42.667-42.667-42.667c-23.565 0-42.667 19.103-42.667 42.667s19.102 42.667 42.667 42.667z"></path>
<path fill="#000" d="M725.333 512c0 23.565-19.102 42.667-42.667 42.667s-42.667-19.102-42.667-42.667c0-23.565 19.102-42.667 42.667-42.667s42.667 19.102 42.667 42.667z"></path>
<path fill="#000" d="M597.333 469.333c23.565 0 42.667-19.102 42.667-42.667s-19.102-42.667-42.667-42.667c-23.565 0-42.667 19.103-42.667 42.667s19.102 42.667 42.667 42.667z"></path>
<path fill="#000" d="M810.667 426.667c0 23.565-19.102 42.667-42.667 42.667s-42.667-19.102-42.667-42.667c0-23.564 19.102-42.667 42.667-42.667s42.667 19.103 42.667 42.667z"></path>
<path fill="#000" d="M93.806 900.237c46.488 23.245 102.417 16.068 141.532-18.159l136.181-119.155c80.432-70.379 200.53-70.379 280.961 0l136.183 119.155c39.113 34.227 95.044 41.404 141.53 18.159l13.427-6.711c48.235-24.119 76.181-75.883 69.879-129.442l-57.101-485.358c-10.112-85.95-82.953-150.726-169.498-150.726h-74.018c-19.87 0-39.471 4.627-57.242 13.513l-86.4 43.198c-36.032 18.018-78.451 18.018-114.483 0l-86.398-43.198c-17.773-8.887-37.372-13.513-57.243-13.513h-74.018c-86.543 0-159.386 64.776-169.498 150.726l-57.101 485.353c-6.301 53.564 21.644 105.327 69.88 129.446l13.425 6.711zM607.407 261.036l86.396-43.198c5.922-2.962 12.459-4.504 19.081-4.504h74.018c43.273 0 79.693 32.388 84.749 75.363l57.101 485.354c2.099 17.856-7.215 35.11-23.292 43.149l-13.427 6.711c-15.497 7.748-34.138 5.359-47.177-6.050l-136.183-119.159c-112.602-98.53-280.738-98.53-393.345 0l-136.181 119.159c-13.038 11.409-31.681 13.798-47.177 6.050l-13.426-6.711c-16.079-8.038-25.393-25.293-23.293-43.149l57.1-485.354c5.056-42.975 41.478-75.363 84.749-75.363h74.018c6.624 0 13.157 1.542 19.081 4.504l86.397 43.198c60.060 30.030 130.75 30.030 190.812 0z"></path>
</svg>
