<!-- Generated by IcoMoon.io -->
<svg version="1.1" xmlns="http://www.w3.org/2000/svg" width="1024" height="1024" viewBox="0 0 1024 1024">
<title></title>
<g id="icomoon-ignore">
</g>
<path fill="#000" d="M426.667 384c0-14.506 4.702-37.214 17.557-55.070 11.29-15.68 30.481-30.263 67.776-30.263s56.486 14.583 67.776 30.263c12.855 17.856 17.557 40.564 17.557 55.070 0 28.469-16.631 43.255-56.798 71.949l-3.588 2.556c-34.782 24.742-88.947 63.283-88.947 138.829 0 23.565 19.102 42.667 42.667 42.667s42.667-19.102 42.667-42.667c0-28.471 16.631-43.255 56.798-71.949l3.588-2.556c34.782-24.742 88.947-63.283 88.947-138.829 0-28.161-8.098-69.453-33.643-104.93-27.11-37.653-71.919-65.737-137.024-65.737s-109.915 28.083-137.025 65.737c-25.544 35.477-33.641 76.769-33.641 104.93 0 23.564 19.103 42.667 42.667 42.667s42.667-19.103 42.667-42.667z"></path>
<path fill="#000" d="M533.333 725.333c0-23.565-19.102-42.667-42.667-42.667s-42.667 19.102-42.667 42.667v21.333c0 23.565 19.102 42.667 42.667 42.667s42.667-19.102 42.667-42.667z"></path>
<path fill="#000" d="M981.333 512c0-259.206-210.129-469.333-469.333-469.333-259.206 0-469.333 210.128-469.333 469.333 0 259.204 210.128 469.333 469.333 469.333s469.333-210.129 469.333-469.333zM896 512c0 212.079-171.921 384-384 384-212.077 0-384-171.921-384-384 0-212.077 171.923-384 384-384 212.079 0 384 171.923 384 384z"></path>
</svg>
