<!-- Generated by IcoMoon.io -->
<svg version="1.1" xmlns="http://www.w3.org/2000/svg" width="1024" height="1024" viewBox="0 0 1024 1024">
<title></title>
<g id="icomoon-ignore">
</g>
<path fill="#000" d="M469.333 768v85.333h-256v-85.333h256zM213.333 682.667c-47.128 0-85.333 38.205-85.333 85.333v85.333c0 47.128 38.205 85.333 85.333 85.333h256c47.128 0 85.333-38.205 85.333-85.333v-85.333c0-47.128-38.205-85.333-85.333-85.333h-256z"></path>
<path fill="#000" d="M554.667 213.333c23.565 0 42.667 19.103 42.667 42.667v128c0 23.564-19.102 42.667-42.667 42.667h-298.667c-23.564 0-42.667-19.103-42.667-42.667v-128c0-23.564 19.103-42.667 42.667-42.667h298.667zM256 128c-70.692 0-128 57.308-128 128v128c0 70.692 57.308 128 128 128h298.667c70.694 0 128-57.308 128-128v-128c0-70.692-57.306-128-128-128h-298.667z"></path>
<path fill="#000" d="M768 298.667v42.667h-85.333v-42.667h85.333zM682.667 213.333c-47.128 0-85.333 38.205-85.333 85.333v42.667c0 47.128 38.205 85.333 85.333 85.333h85.333c47.128 0 85.333-38.205 85.333-85.333v-42.667c0-47.128-38.205-85.333-85.333-85.333h-85.333z"></path>
<path fill="#000" d="M810.667 298.667h128v42.667h-128v-42.667z"></path>
<path fill="#000" d="M331.331 512l-21.333 170.667h41.339l21.333-170.667h-41.339zM256 426.667l-42.667 341.333h213.333l42.667-341.333h-213.333z"></path>
</svg>
