<!-- Generated by IcoMoon.io -->
<svg version="1.1" xmlns="http://www.w3.org/2000/svg" width="1024" height="1024" viewBox="0 0 1024 1024">
<title></title>
<g id="icomoon-ignore">
</g>
<path fill="#000" d="M512 0v0c281.6 0 512 230.4 512 512s-230.4 512-512 512c-281.6 0-512-230.4-512-512s230.4-512 512-512z"></path>
<path fill="#fff" d="M662.4 192h-304c-92.8 0-166.4 76.8-166.4 172.8v294.4c0 92.8 73.6 169.6 169.6 172.8h304c92.8 0 169.6-76.8 169.6-172.8v-294.4c-3.2-96-76.8-172.8-172.8-172.8zM774.4 656c0 64-51.2 118.4-118.4 118.4h-291.2c-64 0-118.4-54.4-115.2-118.4v-288c0-64 51.2-118.4 115.2-118.4h291.2c64 0 118.4 54.4 118.4 118.4v288z"></path>
<path fill="#fff" d="M512 348.8c-89.6-3.2-166.4 70.4-166.4 160-3.2 89.6 70.4 166.4 160 166.4s166.4-70.4 166.4-160v-3.2c3.2-89.6-70.4-163.2-160-163.2zM512 617.6c-57.6 0-105.6-44.8-108.8-102.4 0-57.6 44.8-105.6 102.4-108.8s105.6 44.8 108.8 102.4v3.2c3.2 57.6-44.8 105.6-102.4 105.6z"></path>
<path fill="#fff" d="M681.6 300.8c19.2 0 35.2 16 35.2 38.4s-16 38.4-35.2 38.4-35.2-16-35.2-38.4 16-38.4 35.2-38.4z"></path>
</svg>
