<!-- Generated by IcoMoon.io -->
<svg version="1.1" xmlns="http://www.w3.org/2000/svg" width="1024" height="1024" viewBox="0 0 1024 1024">
<title></title>
<g id="icomoon-ignore">
</g>
<path fill="#000" d="M768 320c0-141.385-114.615-256-256-256-141.387 0-256.002 114.615-256.002 256s114.615 256 256.002 256c141.385 0 256-114.615 256-256zM682.667 320c0 94.257-76.412 170.667-170.667 170.667-94.258 0-170.669-76.41-170.669-170.667s76.41-170.667 170.669-170.667c94.255 0 170.667 76.41 170.667 170.667z"></path>
<path fill="#000" d="M63.998 960c38.909 17.51 38.892 17.549 38.892 17.549l0.049-0.102c0.121-0.256 0.352-0.742 0.698-1.446 0.692-1.399 1.837-3.657 3.459-6.643 3.247-5.982 8.388-14.865 15.603-25.69 14.459-21.687 37.059-50.876 69.2-80.098 63.753-57.954 165.839-116.902 320.101-116.902 154.257 0 256.346 58.948 320.098 116.902 32.141 29.222 54.741 58.411 69.201 80.098 7.215 10.825 12.352 19.708 15.603 25.69 1.621 2.987 2.765 5.244 3.456 6.643 0.346 0.704 0.58 1.19 0.7 1.446l0.047 0.102s-0.017-0.038 38.895-17.549c38.908-17.51 38.886-17.553 38.886-17.553l-0.021-0.051-0.055-0.115-0.137-0.307-0.414-0.887c-0.337-0.713-0.794-1.664-1.374-2.837-1.156-2.347-2.812-5.594-4.988-9.604-4.356-8.017-10.812-19.136-19.597-32.311-17.545-26.313-44.544-61.124-82.803-95.902-77.043-70.046-198.959-139.098-377.498-139.098-178.542 0-300.456 69.052-377.503 139.098-38.259 34.778-65.259 69.589-82.8 95.902-8.785 13.175-15.245 24.294-19.597 32.311-2.178 4.011-3.832 7.258-4.991 9.604-0.579 1.173-1.035 2.125-1.371 2.837l-0.413 0.887-0.14 0.307-0.053 0.115-0.023 0.051s-0.020 0.043 38.889 17.553z"></path>
</svg>
