<svg width="24" height="24" viewBox="0 0 24 24" id="icon-phone">
  <path clip-rule="evenodd" d="m1.02167 6.13625.00096-.01056c.09206-1.01536.5078-1.91502 1.24394-2.64755l1.41074 1.41769c-.40021.39825-.61283.85872-.66285 1.41046-.0667.83383.09588 1.75063.52527 2.89145.69204 1.85846 1.73842 3.59256 3.29341 5.45516 1.8885 2.2485 4.16466 4.0198 6.75776 5.2685.9546.4522 2.2261.9832 3.5935 1.0703.0709.0042.1459.0083.2168.0083.7379 0 1.309-.2406 1.7885-.755.2601-.3098.5463-.5863.8234-.8539.016-.0155.0319-.0309.0479-.0463.1959-.1867.3793-.3651.5544-.5518.5086-.5268.5128-1.0661.0125-1.5639l-2.5138-2.4974c-.1626-.1742-.4211-.3692-.7379-.3692-.2585 0-.5211.1286-.7629.3692l-1.5592 1.5515c-.0708.0706-.2876.2821-.6211.2821-.1334 0-.2668-.0331-.4044-.1037-.0083-.0041-.0156-.0083-.0229-.0124-.0073-.0042-.0146-.0083-.023-.0125-.1375-.0871-.2918-.1659-.4585-.2489-.0301-.0153-.0606-.0306-.0913-.0461-.1521-.0765-.3099-.1559-.459-.2526-1.4508-.9168-2.7681-2.1074-4.01881-3.6423-.6962-.8711-1.14227-1.6013-1.46327-2.36872-.00208-.00622-.00417-.01141-.00625-.01659-.00209-.00519-.00417-.01037-.00626-.0166-.08337-.2489-.13757-.57663.20845-.92094l.02084-.02075c.37-.326.70794-.66618 1.06321-1.02382.02901-.0292.05813-.05852.0874-.08795.06462-.0643.12923-.12964.19385-.19498s.12924-.13067.19385-.19498c.25847-.2572.39188-.51855.39188-.77575s-.13341-.51855-.39188-.77575l-1.24232-1.23623c-.07243-.07414-.14486-.14725-.21679-.21985-.07296-.07365-.14539-.14677-.21677-.21989-.0377-.03807-.07504-.07584-.11209-.11334-.24155-.2444-.47118-.47675-.71335-.69975-.23762-.24061-.49609-.36091-.75039-.36091-.25847 0-.52528.1203-.76707.35262l-1.55082 1.54321-1.41074-1.41769 1.56326-1.55558.01264-.01216c.51283-.49271 1.25225-.9104 2.15273-.9104.89964 0 1.62824.41963 2.13449.91675.26898.24929.52474.5082.75538.74167.0363.03675.07199.07288.107.10823l.00506.00511.00503.00515c.06489.06648.13165.13388.20491.20783l.00358.00362c.06754.06817.14056.14188.21445.21742l1.2325 1.2265c.4687.4664.9812 1.2075.9812 2.19344s-.5125 1.72704-.9812 2.19344c-.0579.05771-.1169.11732-.1825.18364l-.0024.00247c-.0619.06251-.1298.13122-.1988.19991-.0296.02979-.0595.05988-.0897.09025-.1602.16138-.32814.3305-.50403.50241.20449.35476.46983.73996.83143 1.19306 1.1309 1.3866 2.2883 2.4224 3.5307 3.2075l.0096.0061.0096.0062c.04.0259.0771.046.1542.0853l.9869-.982c.484-.4816 1.2249-.9515 2.1736-.9515 1.1022 0 1.843.6318 2.1684.9712l2.4941 2.4777c.5024.4999.9688 1.2461.9612 2.2046-.0074.9342-.4628 1.6618-.9337 2.1538-.2103.2236-.422.4289-.6203.6179l-.0113.0109c-.3037.2936-.5217.5043-.7132.7324l-.0333.0397-.0353.0379c-.8793.9434-1.9913 1.3914-3.2516 1.3914-.1338 0-.2609-.0075-.3284-.0114l-.0155-.0009c-1.7663-.1125-3.3254-.7865-4.3225-1.2588l-.0117-.0055c-2.85194-1.3734-5.35334-3.3219-7.42144-5.7842l-.00384-.0046c-1.66832-1.9984-2.84472-3.925-3.63115-6.03568-.4919-1.30782-.743623-2.52979-.64584-3.75211z" fill-rule="evenodd"></path>
</svg>