<!-- Generated by IcoMoon.io -->
<svg version="1.1" xmlns="http://www.w3.org/2000/svg" width="1024" height="1024" viewBox="0 0 1024 1024">
<title></title>
<g id="icomoon-ignore">
</g>
<path fill="#000" d="M841.824 512l-22.976 181.39c-5.402 42.642-41.677 74.61-84.659 74.61h-401.751c-42.982 0-79.255-31.968-84.657-74.61l-22.976-181.39h617.020zM224.804 426.667c-51.384 0-91.114 45.080-84.657 96.057l22.976 181.39c10.803 85.283 83.349 149.22 169.314 149.22h401.751c85.965 0 158.511-63.937 169.314-149.22l22.976-181.39c6.46-50.977-33.271-96.057-84.655-96.057h-617.020z"></path>
<path fill="#000" d="M298.667 810.667h85.333v128h-85.333v-128z"></path>
<path fill="#000" d="M682.667 810.667h85.333v128h-85.333v-128z"></path>
<path fill="#000" d="M704 213.333c-36.239 0-64 28.494-64 61.671h-85.333c0-82.071 67.752-147.004 149.333-147.004s149.333 64.933 149.333 147.004v194.329h-85.333v-194.329c0-33.177-27.761-61.671-64-61.671z"></path>
<path fill="#000" d="M496.705 304.849c23.438-29.749 59.789-48.849 100.6-48.849s77.162 19.1 100.601 48.849c29.166 37.019-10.806 79.151-57.934 79.151h-85.333c-47.128 0-87.1-42.132-57.934-79.151z"></path>
<path fill="#000" d="M469.333 512v42.667h-85.333v-42.667h85.333zM298.667 426.667v213.333h256v-213.333h-256z"></path>
</svg>
