<!-- Generated by IcoMoon.io -->
<svg version="1.1" xmlns="http://www.w3.org/2000/svg" width="3072" height="1024" viewBox="0 0 3072 1024">
<title></title>
<g id="icomoon-ignore">
</g>
<path fill="#471a7b" d="M83.748 0c-54.276 160.457-83.748 332.714-83.748 512s29.472 351.542 83.748 512h2904.505c54.275-160.458 83.747-332.714 83.747-512s-29.472-351.543-83.747-512z"></path>
<path fill="#f7d869" d="M479.245 320h-127.245v377.53h51.981v-151.011h72.557c86.634 0 132.118-47.462 132.118-113.261s-44.403-113.258-129.411-113.258zM485.2 503.91h-81.219v-141.302h81.219c42.234 0 70.39 28.045 70.39 70.65 0 42.608-28.157 70.653-70.39 70.653z"></path>
<path fill="#f7d869" d="M896.704 697.53h71.475l-145.654-167.194c60.102-12.403 90.966-51.773 90.966-103.011 0-62.56-44.4-107.325-129.411-107.325h-115.872v377.53h51.981v-163.418h40.608zM720.189 362.067h70.931c42.234 0 69.306 25.347 69.306 65.798 0 39.91-27.072 65.798-69.306 65.798h-70.931z"></path>
<path fill="#f7d869" d="M1249.626 365.302v-45.302h-238.243v377.53h238.243v-45.306h-186.262v-126.202h159.19v-45.302h-159.19v-115.418z"></path>
<path fill="#f7d869" d="M1653.328 320l-142.406 240.541-142.406-240.541h-54.147v377.53h51.981v-291.238l142.947 242.698 142.947-242.698v291.238h51.981v-377.53z"></path>
<path fill="#f7d869" d="M1793.504 697.53h51.978v-377.53h-51.978z"></path>
<path fill="#f7d869" d="M2088.941 704c95.296 0 157.024-58.787 157.024-152.090v-231.91h-51.981v234.608c0 59.325-40.611 103.011-105.043 103.011-64.435 0-105.046-43.686-105.046-103.011v-234.608h-51.981v231.91c0 93.302 61.728 152.090 157.027 152.090z"></path>
<path fill="#f7d869" d="M2669.101 320l-142.403 240.541-142.406-240.541h-54.147v377.53h51.981v-291.238l142.947 242.698 142.947-242.698v291.238h51.981v-377.53z"></path>
</svg>
