<svg aria-hidden="true" height="24" width="24" viewBox="0 0 24 24">
  <path d="M1.3 2.6C2.01797 2.6 2.6 2.01797 2.6 1.3C2.6 0.58203 2.01797 0 1.3 0C0.582029 0 0 0.58203 0 1.3C0 2.01797 0.582029 2.6 1.3 2.6Z" transform="translate(14.5 6.09998)"></path>
  <path d="M19 1.7C18.9 1.2 18.6 0.9 18.1 0.8L11.1 0C10.8 0 10.5 0.1 10.3 0.3L0.3 10.3C-0.1 10.7 -0.1 11.3 0.3 11.7L8.1 19.5C8.5 19.9 9.1 19.9 9.5 19.5L19.5 9.5C19.7 9.3 19.8 9 19.8 8.7L19 1.7ZM8.7 17.4L2.3 11L11.3 2L17.1 2.6L17.7 8.4L8.7 17.4Z" transform="translate(2 2)"></path>
</svg>