<!-- Generated by IcoMoon.io -->
<svg width="1024" height="1024" viewBox="0 0 1024 1024">
  <path fill="#000" d="M85.333 213.333c0-70.692 57.308-128 128-128h426.667c70.694 0 128 57.308 128 128v213.333h-85.333v-213.333c0-23.564-19.102-42.667-42.667-42.667h-426.667c-23.564 0-42.667 19.103-42.667 42.667v298.667c0 23.565 19.103 42.667 42.667 42.667h42.667v85.333h-42.667c-70.692 0-128-57.306-128-128v-298.667z"></path>
  <path fill="#000" d="M128 256h597.333v85.333h-597.333v-85.333z"></path>
  <path fill="#000" d="M298.667 426.667h512v42.667c0 7.457 4.16 18.485 14.17 28.497 10.014 10.012 21.039 14.17 28.497 14.17h42.667v341.333h-42.667c-7.458 0-18.483 4.16-28.497 14.17-10.010 10.014-14.17 21.039-14.17 28.497v42.667h-512v-42.667c0-7.458-4.158-18.483-14.17-28.497-10.012-10.010-21.040-14.17-28.497-14.17h-42.667v-341.333h42.667c7.457 0 18.485-4.158 28.497-14.17s14.17-21.040 14.17-28.497v-42.667zM375.572 512c-7.113 17.797-18.134 33.568-30.735 46.17s-28.373 23.622-46.17 30.735v187.523c17.797 7.113 33.568 18.134 46.17 30.735s23.622 28.373 30.735 46.17h358.188c7.113-17.797 18.133-33.568 30.737-46.17 12.599-12.602 28.373-23.622 46.17-30.735v-187.523c-17.796-7.113-33.57-18.134-46.17-30.735-12.604-12.602-23.625-28.373-30.737-46.17h-358.188z"></path>
  <path fill="#000" d="M682.667 597.333h-85.333v-85.333h85.333v85.333z"></path>
  <path fill="#000" d="M682.667 725.333h-85.333v-85.333h85.333v85.333z"></path>
  <path fill="#000" d="M682.667 853.333h-85.333v-85.333h85.333v85.333z"></path>
</svg>
