<!-- Generated by IcoMoon.io -->
<svg width="1024" height="1024" viewBox="0 0 1024 1024">
  <path fill="#000" d="M725.333 170.667v682.667h-426.667v-682.667h426.667zM298.667 85.333c-47.128 0-85.333 38.205-85.333 85.333v682.667c0 47.13 38.205 85.333 85.333 85.333h426.667c47.13 0 85.333-38.204 85.333-85.333v-682.667c0-47.128-38.204-85.333-85.333-85.333h-426.667z"></path>
  <path fill="#000" d="M554.377 768c0 23.564-19.103 42.667-42.667 42.667s-42.667-19.103-42.667-42.667c0-23.564 19.103-42.667 42.667-42.667s42.667 19.103 42.667 42.667z"></path>
</svg>
