<!-- Generated by IcoMoon.io -->
<svg version="1.1" xmlns="http://www.w3.org/2000/svg" width="1024" height="1024" viewBox="0 0 1024 1024">
<title></title>
<g id="icomoon-ignore">
</g>
<path fill="#000" d="M836.268 179.602c-115.2-93.867-298.667-55.467-405.334 81.067-110.933 136.533-106.667 324.266 8.533 413.866s298.667 55.467 405.334-81.067c110.933-136.532 106.667-319.999-8.533-413.866zM780.802 542.269c-89.6 110.932-217.6 123.732-285.867 68.266s-85.333-183.466 4.267-294.399c89.6-110.933 217.6-123.733 285.867-68.267 68.267 51.2 85.333 183.467-4.267 294.4z"></path>
<path fill="#000" d="M520.533 218l349.867 277.333-29.867 34.133-349.867-277.333 29.867-34.133z"></path>
<path fill="#000" d="M435.183 324.667l349.867 277.333-29.867 34.133-345.6-277.333 25.6-34.133z"></path>
<path fill="#000" d="M401.083 584.937l341.333-426.667 34.133 25.6-341.333 426.667-34.133-25.6z"></path>
<path fill="#000" d="M503.458 670.271l341.333-426.667 34.133 25.6-341.333 426.667-34.133-25.6z"></path>
<path fill="#000" d="M354.133 448.401c0-17.067 4.267-34.133 4.267-42.667l85.333 12.8c0 8.533 0 17.067-4.267 34.133 0 8.533 0 21.333-4.267 34.133-4.267 29.867-8.533 72.533-12.8 110.933-4.267 42.667-12.8 85.333-25.6 123.733s-29.867 81.067-55.467 110.933l-64-55.467c17.067-17.067 29.867-46.933 38.4-81.067 12.8-34.133 17.067-72.533 25.6-110.933 4.267-38.4 8.533-76.8 12.8-106.667 0-8.533 0-21.333 0-29.867z"></path>
<path fill="#000" d="M678.4 712.939c4.267 0 68.988-46.933 73.254-46.933s-77.521-38.4-77.521-38.4c-4.267 0-4.267 0-8.533 0-29.867 4.267-102.4 17.067-170.667 38.4-38.4 12.8-81.067 25.6-119.467 42.667s-76.8 42.667-98.133 68.267l68.267 51.2c12.8-12.8 34.133-29.867 64-42.667s68.267-25.6 106.667-38.4c64-17.067 132.267-29.867 162.133-34.133z"></path>
<path fill="#000" d="M192 883.605l85.333-106.667 68.267 51.2-85.333 106.667-68.267-51.2z"></path>
<path fill="#000" d="M298.667 320c0 34.133-29.867 64-64 64s-64-29.867-64-64c0-34.133 29.867-64 64-64s64 25.6 64 64z"></path>
</svg>
