<!-- Generated by IcoMoon.io -->
<svg width="1024" height="1024" viewBox="0 0 1024 1024">
<path fill="#000" d="M242.133 859.732c-38.4-38.4-38.4-98.133 0-136.533l392.533-392.533-59.733-59.733-392.533 392.533c-72.533 72.533-72.533 183.467 0 256s183.467 72.533 256 0l-59.733-59.733c-42.667 38.4-102.4 38.4-136.533 0z"></path>
<path fill="#000" d="M865.083 155.733c-93.867-93.867-243.2-93.867-332.8 0l-392.533 392.533 59.733 59.733 392.533-392.533c59.733-59.733 153.6-59.733 213.333 0s59.733 153.6 0 213.333l-430.933 430.933 59.733 59.733 430.933-430.933c93.867-89.6 93.867-238.933 0-332.8z"></path>
<path fill="#000" d="M749.867 275.2c-46.933-46.933-128-46.933-179.2 0l59.733 59.733c17.067-17.067 42.667-17.067 55.467 0 17.067 17.067 17.067 42.667 0 55.467l-349.867 349.867 59.733 59.733 349.867-349.867c51.2-46.933 51.2-128 4.267-174.933z"></path>
</svg>
