<!-- Generated by IcoMoon.io -->
<svg version="1.1" xmlns="http://www.w3.org/2000/svg" width="1024" height="1024" viewBox="0 0 1024 1024">
<title></title>
<g id="icomoon-ignore">
</g>
<path fill="#000" d="M362.667 426.667c-58.91 0-106.667 47.757-106.667 106.667s47.756 106.667 106.667 106.667 106.667-47.757 106.667-106.667-47.756-106.667-106.667-106.667zM341.333 533.333c0-11.78 9.551-21.333 21.333-21.333s21.333 9.553 21.333 21.333-9.551 21.333-21.333 21.333-21.333-9.553-21.333-21.333z"></path>
<path fill="#000" d="M554.667 789.333c0-58.91 47.757-106.667 106.667-106.667s106.667 47.757 106.667 106.667-47.757 106.667-106.667 106.667-106.667-47.757-106.667-106.667zM661.333 768c-11.78 0-21.333 9.553-21.333 21.333s9.553 21.333 21.333 21.333 21.333-9.553 21.333-21.333-9.553-21.333-21.333-21.333z"></path>
<path fill="#000" d="M604.497 445.666l-255.998 384 71.002 47.334 255.998-384z"></path>
<path fill="#000" d="M513.638 0.031c11.874 0.456 23.023 5.845 30.758 14.868l243.226 283.767h108.378c47.13 0 85.333 38.205 85.333 85.333v554.667c0 47.13-38.204 85.333-85.333 85.333h-768c-47.128 0-85.333-38.204-85.333-85.333v-554.667c0-47.128 38.205-85.333 85.333-85.333h67.661l286.17-286.17c8.405-8.404 19.934-12.921 31.808-12.465zM509.589 105.417l165.645 193.25h-358.894zM896 384h-768v554.667h768z"></path>
</svg>
