<!-- Generated by IcoMoon.io -->
<svg version="1.1" xmlns="http://www.w3.org/2000/svg" width="1024" height="1024" viewBox="0 0 1024 1024">
<title></title>
<g id="icomoon-ignore">
</g>
<path fill="#000" d="M512 0c282.78 0 512 229.22 512 512s-229.22 512-512 512c-282.78 0-512-229.22-512-512s229.22-512 512-512z"></path>
<path fill="#fefefe" d="M742.44 327.020l-72.9 367.5c0 0-10.2 25.48-38.22 13.26l-168.2-128.96-0.78-0.38c22.72-20.4 198.9-178.8 206.6-185.98 11.92-11.12 4.52-17.74-9.32-9.34l-260.24 165.26-100.4-33.78c0 0-15.8-5.62-17.32-17.84-1.54-12.24 17.84-18.86 17.84-18.86l409.3-160.56c0 0 33.64-14.78 33.64 9.68z"></path>
</svg>
