<!-- Generated by IcoMoon.io -->
<svg width="1024" height="1024" viewBox="0 0 1024 1024">
  <path d="M908.524 124.334c-125.993 52.183-666.235 275.958-815.503 336.947-100.106 39.066-41.503 75.694-41.503 75.694s85.453 29.297 158.71 51.272c73.247 21.975 112.312-2.437 112.312-2.437l344.269-231.956c122.081-83.016 92.785-14.653 63.478 14.653-63.478 63.488-168.468 163.584-256.369 244.163-39.066 34.181-19.538 63.478-2.437 78.131 63.478 53.719 236.841 163.594 246.6 170.916 51.579 36.516 153.037 89.078 168.468-21.975 0 0 61.041-383.334 61.041-383.334 19.538-129.403 39.066-249.047 41.503-283.228 7.332-83.026-80.568-48.845-80.568-48.845z"></path>
</svg>
