<!-- Generated by IcoMoon.io -->
<svg width="1024" height="1024" viewBox="0 0 1024 1024">
<path fill="#000" d="M755.115 265.743c64.619 33.268 115.392 87.066 145.045 146.425 31.194 62.456 41.242 136.274 11.575 200.218l-18.202 39.232-287.731-138.231c37.239 83.767 61.965 173.261 72.034 266.615 44.143 6.724 84.446 16.098 119.185 27.678 37.227 12.407 70.434 28.126 95.211 47.65 24.294 19.149 46.434 46.985 46.434 83.337v42.667h-853.334v-42.667c0-36.352 22.139-64.188 46.434-83.337 24.775-19.524 57.981-35.243 95.212-47.65 64.869-21.623 149.135-35.554 241.57-38.899-3.123-82.901-15.514-162.641-35.84-237.619-8.037-29.636-17.311-58.522-27.741-86.562l-231.122 225.301-29.787-30.029c-80.796-81.455-67.441-208.832 10.116-287.077l-99.354-23.229 13.693-43.82c36.194-115.828 144.562-195.205 252.312-161.536 34.711 10.846 66.86 31.103 92.111 58.588 23.057-36.003 55.42-71.382 102.234-93.405 63.078-29.678 134.729-35.24 196.361-22.101 60.446 12.886 119.526 45.933 145.988 102.176l17.993 38.247zM551.497 166.607c44.932-21.14 97.421-25.413 142.242-15.857 23.044 4.912 41.993 12.925 56.538 22.598l-117.781 56.766c-34.782-3.131-69.090-0.59-101.090 7.279-22.878 5.627-44.949 14.107-65.237 25.414 19.191-40.322 45.030-77.239 85.329-96.199zM844.058 533.175l-364.663-175.183c18.185-17.323 42.82-30.464 72.393-37.736 46.852-11.523 103.061-7.259 155.593 17.113 51.972 24.112 93.269 66.541 116.437 112.931 14.451 28.924 21.005 57.408 20.241 82.876zM375.628 283.816c0.633 1.926 1.22 3.884 1.758 5.872-22.27-9.635-46.431-14.315-71.132-13.798-19.874 0.416-39.691 4.164-58.873 11.062l-78.483-18.35c33.277-55.125 87.188-75.22 126.475-62.944 36.505 11.407 67.843 40.386 80.255 78.157zM308.042 361.205c16.687-0.35 32.81 3.879 46.972 12.919l-173.531 169.163c-15.177-41.25-4.687-92.753 34.148-131.272l1.306-1.296 1.19-1.404c28.312-33.394 61.528-47.516 89.914-48.111zM553.839 854.925l-42.633-1.591c-102.404 0.073-193.333 13.999-257.244 35.302-7.22 2.406-13.977 4.868-20.276 7.364h556.623c-6.298-2.496-13.056-4.958-20.275-7.364-55.223-18.411-130.624-31.309-216.166-34.522zM521.741 534.682c18.3 74.573 29.359 153.015 32.196 234.048 12.433 0.431 24.721 1.058 36.838 1.869-10.867-82.526-34.449-161.681-69.035-235.917z"></path>
</svg>
