<!-- Generated by IcoMoon.io -->
<svg version="1.1" xmlns="http://www.w3.org/2000/svg" width="1024" height="1024" viewBox="0 0 1024 1024">
<title></title>
<g id="icomoon-ignore">
</g>
<path fill="#000" d="M512 0c282.58 0 512 229.42 512 512s-229.42 512-512 512c-282.58 0-512-229.42-512-512s229.42-512 512-512zM421.818 784.316c226.566 0 350.448-187.74 350.448-350.446 0-5.364 0-10.728-0.256-15.838 24.010-17.368 44.956-39.080 61.558-63.856-21.966 9.706-45.722 16.348-70.754 19.412 25.544-15.326 44.956-39.336 54.152-68.198-23.756 14.048-50.064 24.264-78.162 29.884-22.478-24.010-54.406-38.824-89.91-38.824-67.944 0-123.116 55.172-123.116 123.116 0 9.706 1.022 19.156 3.32 28.096-102.426-5.108-193.104-54.15-253.894-128.736-10.474 18.136-16.604 39.336-16.604 61.814 0 42.656 21.712 80.46 54.918 102.426-20.18-0.51-39.082-6.13-55.684-15.324v1.532c0 59.77 42.4 109.322 98.85 120.818-10.216 2.808-21.2 4.342-32.438 4.342-7.92 0-15.582-0.766-23.244-2.3 15.58 49.042 61.046 84.548 114.942 85.568-42.146 32.952-95.274 52.62-153.002 52.62-9.962 0-19.668-0.512-29.374-1.788 53.896 35.248 118.774 55.682 188.25 55.682z"></path>
</svg>
