<!-- Generated by IcoMoon.io -->
<svg version="1.1" xmlns="http://www.w3.org/2000/svg" width="1024" height="1024" viewBox="0 0 1024 1024">
<title></title>
<g id="icomoon-ignore">
</g>
<path fill="#6f3faa" d="M1024 512c0 282.77-229.23 512-512 512s-512-229.23-512-512c0-282.77 229.23-512 512-512s512 229.23 512 512z"></path>
<path fill="#512d84" d="M734.122 280.886c-124.624-30.1-249.47-65.308-377.274-20.576-82.748 31.030-82.748 120.674-79.3 196.526 0 20.686-24.134 48.27-13.792 72.404 20.686 68.956 37.926 137.912 110.33 172.39 10.344 6.896 0 20.686 6.896 31.030-3.448 0-10.344 3.448-10.344 6.896 0 16.526 7.416 41.804 2.49 58.1l220.012 219.92c226.18-36.020 402.956-220.136 427.828-449.842l-286.846-286.848z"></path>
<path fill="#fff" d="M782.854 359.848l-0.168-0.676c-13.68-55.306-75.356-114.65-131.996-126.996l-0.638-0.132c-91.612-17.476-184.502-17.476-276.094 0l-0.658 0.132c-56.62 12.346-118.298 71.694-131.996 126.996l-0.152 0.676c-16.912 77.234-16.912 155.562 0 232.796l0.152 0.676c13.116 52.944 70.198 109.564 124.724 125.134v61.736c0 22.346 27.23 33.32 42.714 17.194l62.55-65.018c13.568 0.758 27.142 1.182 40.712 1.182 46.114 0 92.25-4.362 138.046-13.098l0.638-0.132c56.64-12.346 118.316-71.694 131.996-126.996l0.168-0.676c16.912-77.236 16.912-155.56 0.002-232.798zM733.352 581.446c-9.134 36.082-55.962 80.938-93.17 89.226-48.71 9.264-97.808 13.222-146.856 11.864-0.976-0.028-1.914 0.352-2.592 1.052-6.962 7.144-45.67 46.884-45.67 46.884l-48.576 49.856c-3.552 3.704-9.792 1.182-9.792-3.928v-102.272c0-1.69-1.206-3.124-2.866-3.452-0.010-0.004-0.018-0.004-0.028-0.006-37.208-8.288-84.020-53.144-93.17-89.226-15.222-69.812-15.222-140.584 0-210.396 9.15-36.082 55.962-80.938 93.17-89.226 85.072-16.18 171.328-16.18 256.382 0 37.226 8.288 84.036 53.144 93.17 89.226 15.238 69.814 15.238 140.586-0.002 210.398z"></path>
<path fill="#fff" d="M592.94 628.654c-5.72-1.738-11.17-2.904-16.236-5.002-52.462-21.766-100.742-49.846-138.984-92.888-21.748-24.476-38.77-52.11-53.158-81.354-6.824-13.868-12.574-28.278-18.436-42.598-5.344-13.056 2.528-26.544 10.816-36.384 7.778-9.234 17.788-16.298 28.628-21.508 8.46-4.064 16.804-1.72 22.984 5.45 13.356 15.504 25.628 31.8 35.56 49.772 6.11 11.054 4.434 24.566-6.64 32.088-2.692 1.828-5.144 3.976-7.65 6.040-2.2 1.81-4.268 3.638-5.776 6.088-2.754 4.482-2.886 9.772-1.114 14.646 13.654 37.522 36.668 66.702 74.438 82.42 6.044 2.514 12.112 5.44 19.076 4.63 11.66-1.362 15.436-14.154 23.608-20.836 7.986-6.53 18.194-6.616 26.796-1.172 8.606 5.448 16.946 11.292 25.238 17.202 8.14 5.8 16.242 11.47 23.748 18.084 7.22 6.358 9.706 14.698 5.64 23.324-7.44 15.802-18.27 28.944-33.888 37.336-4.41 2.364-9.678 3.13-14.65 4.662-5.72-1.738 4.972-1.532 0 0z"></path>
<path fill="#fff" d="M512.142 330.852c68.618 1.924 124.98 47.462 137.058 115.302 2.058 11.56 2.79 23.376 3.706 35.11 0.386 4.934-2.41 9.622-7.734 9.688-5.5 0.066-7.974-4.538-8.334-9.468-0.706-9.764-1.196-19.574-2.542-29.254-7.102-51.118-47.862-93.408-98.742-102.482-7.658-1.366-15.49-1.724-23.248-2.538-4.902-0.514-11.322-0.81-12.408-6.906-0.91-5.11 3.402-9.178 8.268-9.44 1.318-0.078 2.648-0.016 3.976-0.012 68.622 1.924-1.328-0.004 0 0z"></path>
<path fill="#fff" d="M616.424 466.038c-0.114 0.858-0.172 2.872-0.676 4.768-1.82 6.888-12.268 7.75-14.67 0.8-0.714-2.062-0.82-4.41-0.824-6.63-0.024-14.532-3.182-29.052-10.512-41.698-7.534-12.998-19.046-23.92-32.544-30.534-8.164-3.996-16.99-6.482-25.938-7.96-3.91-0.648-7.862-1.038-11.792-1.586-4.762-0.662-7.306-3.696-7.078-8.388 0.21-4.396 3.424-7.562 8.216-7.288 15.746 0.892 30.958 4.3 44.96 11.712 28.468 15.078 44.732 38.874 49.48 70.652 0.214 1.442 0.558 2.866 0.668 4.31 0.268 3.564 0.438 7.134 0.71 11.842-0.114 0.854-0.272-4.708 0 0z"></path>
<path fill="#fff" d="M573.744 464.376c-5.74 0.104-8.812-3.076-9.406-8.336-0.41-3.668-0.738-7.388-1.614-10.96-1.724-7.034-5.462-13.55-11.378-17.86-2.792-2.034-5.958-3.516-9.272-4.476-4.21-1.218-8.586-0.882-12.784-1.91-4.562-1.118-7.086-4.814-6.368-9.092 0.652-3.896 4.44-6.936 8.698-6.626 26.604 1.92 45.618 15.674 48.332 46.994 0.194 2.21 0.418 4.544-0.072 6.662-0.844 3.614-3.524 5.428-6.136 5.604-5.742 0.102 2.612-0.176 0 0z"></path>
<path fill="#d1d1d1" d="M782.854 359.848l-0.168-0.676c-7.668-31.002-30.424-63.27-58.916-87.822l-38.518 34.136c22.904 18.25 42.528 43.532 48.104 65.56 15.24 69.814 15.24 140.584 0 210.4-9.134 36.082-55.964 80.938-93.17 89.226-48.71 9.264-97.808 13.222-146.856 11.864-0.976-0.028-1.914 0.352-2.592 1.052-6.962 7.144-45.67 46.884-45.67 46.884l-48.576 49.856c-3.552 3.704-9.792 1.186-9.792-3.928v-102.272c0-1.69-1.206-3.124-2.866-3.452-0.010 0-0.018-0.004-0.028-0.004-21.146-4.71-45.384-21.236-64.056-41.242l-38.060 33.726c23.77 25.858 54.428 46.762 84.336 55.302v61.736c0 22.346 27.23 33.32 42.714 17.194l62.55-65.018c13.568 0.758 27.138 1.182 40.712 1.182 46.114 0 92.25-4.362 138.046-13.098l0.638-0.13c56.64-12.346 118.316-71.69 131.996-126.996l0.168-0.676c16.914-77.242 16.914-155.566 0.004-232.804z"></path>
<path fill="#fff" d="M592.94 628.654c4.972-1.532-5.72-1.738 0 0v0z"></path>
<path fill="#d1d1d1" d="M635.842 563.328c-7.506-6.61-15.612-12.284-23.748-18.084-8.292-5.91-16.632-11.754-25.238-17.202-8.602-5.444-18.808-5.358-26.796 1.172-8.172 6.682-11.946 19.474-23.608 20.836-6.962 0.81-13.032-2.118-19.076-4.63-23.238-9.668-40.87-24.452-54.196-43.118l-28.32 25.1c0.962 1.114 1.88 2.258 2.858 3.358 38.244 43.042 86.526 71.122 138.984 92.888 5.062 2.1 10.516 3.268 16.236 5.002-5.72-1.738 4.976-1.53 0 0 4.976-1.53 10.24-2.3 14.654-4.664 15.622-8.392 26.448-21.536 33.888-37.336 4.068-8.624 1.582-16.964-5.638-23.322z"></path>
<path fill="#fff" d="M512.318 330.862c-0.058 0-0.114-0.006-0.172-0.006-0.056-0.004 0.016 0 0.172 0.006z"></path>
<path fill="#fff" d="M512.144 330.852c0.058 0 0.114 0.006 0.172 0.006 3.808 0.136 65.744 1.842-0.172-0.006z"></path>
<path fill="#d1d1d1" d="M610.57 371.674l-12.074 10.702c18.974 18.46 32.058 42.926 35.798 69.85 1.344 9.684 1.838 19.49 2.544 29.254 0.358 4.934 2.83 9.536 8.334 9.472 5.326-0.066 8.12-4.752 7.734-9.688-0.918-11.732-1.648-23.552-3.706-35.11-5.286-29.696-19.060-55.118-38.63-74.48z"></path>
<path fill="#d1d1d1" d="M615.042 449.878c-3.458-23.156-13.064-42.052-29.020-56.448l-12.040 10.67c6.226 5.526 11.612 12.016 15.76 19.174 7.33 12.646 10.488 27.166 10.512 41.698 0.004 2.22 0.11 4.568 0.824 6.634 2.406 6.954 12.85 6.092 14.67-0.8 0.504-1.9 0.562-3.914 0.676-4.768-0.114 0.858-0.276-4.706 0 0-0.276-4.706-0.444-8.278-0.714-11.846-0.106-1.45-0.452-2.874-0.668-4.314z"></path>
<path fill="#fff" d="M616.424 466.038c-0.272-4.708-0.114 0.854 0 0v0z"></path>
<path fill="#fff" d="M573.744 464.376c0.090-0.006 0.176-0.052 0.262-0.062-0.242 0-0.614 0.006-0.996 0.020 0.248 0.006 0.474 0.044 0.734 0.042z"></path>
<path fill="#fff" d="M573.744 464.376c-0.258 0.004-0.486-0.034-0.734-0.042-1.242 0.034-2.524 0.1 0.734 0.042z"></path>
<path fill="#fff" d="M574.006 464.314c-0.090 0.010-0.176 0.056-0.262 0.062 0.672-0.046 0.614-0.062 0.262-0.062z"></path>
<path fill="#d1d1d1" d="M561.628 415.050l-12.256 10.864c0.676 0.41 1.338 0.838 1.98 1.304 5.916 4.31 9.654 10.826 11.378 17.86 0.876 3.572 1.2 7.288 1.614 10.96 0.566 5.026 3.42 8.116 8.672 8.296 0.382-0.010 0.758-0.018 0.996-0.020 2.528-0.28 5.062-2.052 5.872-5.548 0.49-2.114 0.266-4.452 0.072-6.662-1.524-17.51-8.144-29.524-18.328-37.054z"></path>
</svg>
