<!-- Generated by IcoMoon.io -->
<svg version="1.1" xmlns="http://www.w3.org/2000/svg" width="2304" height="1024" viewBox="0 0 2304 1024">
<title></title>
<g id="icomoon-ignore">
</g>
<path fill="#1b548e" d="M974.822 536.595l-89.082 239.981-9.501-48.758c-22.182-59.792-70.214-122.518-126.15-147.939l81.494 308.154 96.336-0.045 143.264-351.392h-96.362z"></path>
<path fill="#1b548e" d="M1051.181 888.394l56.947-352.128h91.008l-56.989 352.128h-90.966z"></path>
<path fill="#1b548e" d="M1472.285 544.941c-17.984-7.098-46.358-14.816-81.562-14.816-90.032 0-153.28 47.805-153.834 116.186-0.579 50.646 45.229 78.896 79.661 95.722 35.539 17.219 47.408 28.272 47.296 43.677-0.346 23.59-28.432 34.346-54.534 34.346-36.378 0-55.766-5.309-85.59-18.406l-11.821-5.616-12.736 78.806c21.293 9.808 60.602 18.31 101.459 18.749 95.542 0 157.706-47.264 158.445-120.246 0.384-40.173-23.933-70.582-76.49-95.686-31.725-16.323-51.344-27.142-51.056-43.686 0.029-14.611 16.461-30.269 52.147-30.269 29.808-0.496 51.242 6.333 68.112 13.536l8.118 4.035 12.384-76.33zM1705.702 536.627h-70.307c-21.802 0-38.141 6.205-47.763 29.222l-135.101 322.646h95.587c0 0 15.629-43.424 19.165-52.944 10.426 0 103.264 0.214 116.518 0.214 2.813 12.278 11.082 52.73 11.082 52.73h84.515l-73.696-351.869zM1593.469 763.53c7.555-20.208 36.256-98.422 36.256-98.422-0.56 0.954 7.466-20.368 12.102-33.549l6.061 30.352c0 0 17.488 84.029 21.136 101.619h-75.555z"></path>
<path fill="#e89f3e" d="M803.104 536.422h-146.784l-0.858 6.064c114.122 29.158 189.427 100.758 220.774 185.43l-31.901-161.834c-5.478-22.262-21.453-28.877-41.232-29.661z"></path>
<path fill="#1b548e" d="M380.989 451.334h-58.042l-66.947-301.478 64.141-10.716 45.811 235.938 116.672-232.821h61.613l-163.248 309.077z"></path>
<path fill="#1b548e" d="M682.806 352.774h-138.4c-3.779 41.92 15.722 60.211 48.762 60.211 27.683 0 52.035-10.266 78.24-26.765l-0.205 41.92c-25.702 16.058-55.405 26.317-90.23 26.317-60.266 0-100.067-34.342-88.106-111.952 10.781-70.013 59.274-112.372 115.526-112.372 64.736 0 86.262 48.609 76.854 109.71-0.682 4.458-1.965 9.808-2.442 12.931zM601.36 267.148c-21.434 0-41.459 16.938-50.902 52.178h85.712c1.581-33.456-8.922-52.178-34.81-52.178zM773.018 326.464l-19.030 123.536h-53.568l33.181-215.42h45.542l0.029 43.266c18.134-24.973 42.797-45.928 76.547-47.713l0.31 53.066c-33.827 2.233-64.259 20.068-83.011 43.265zM855.325 450l33.194-215.42h53.568l-33.181 215.42h-53.581zM921.315 198.462c-17.853 0-30.218-12.491-27.469-30.326 2.816-18.284 19.098-31.223 36.95-31.223 17.414 0 29.702 12.939 26.89 31.223-2.752 17.835-18.957 30.326-36.371 30.326zM1090.458 175.713c-18.31 0-29.366 8.025-32.32 27.215l-4.883 31.653h41.075l-0.038 43.705h-47.77l-26.458 171.715h-53.12l26.458-171.715h-31.254l6.733-43.705h31.245l5.706-37.015c7.35-47.713 40.458-65.557 84.656-65.557 9.379 0 16.384 0.897 21.613 1.784l0.4 43.705c-5.226-0.887-13.12-1.784-22.042-1.784zM1091.037 450l33.19-215.42h53.568l-33.181 215.42h-53.578zM1157.024 198.462c-17.853 0-30.214-12.491-27.466-30.326 2.816-18.284 19.098-31.223 36.95-31.223 17.414 0 29.712 12.939 26.896 31.223-2.749 17.835-18.966 30.326-36.381 30.326zM1385.507 352.774h-138.403c-3.776 41.92 15.722 60.211 48.762 60.211 27.683 0 52.029-10.266 78.24-26.765l-0.214 41.92c-25.69 16.058-55.402 26.317-90.227 26.317-60.266 0-100.061-34.342-88.109-111.952 10.794-70.013 59.283-112.372 115.536-112.372 64.736 0 86.266 48.609 76.858 109.71-0.694 4.458-1.965 9.808-2.442 12.931zM1304.051 267.148c-21.437 0-41.459 16.938-50.896 52.178h85.712c1.581-33.456-8.931-52.178-34.816-52.178zM1544.195 450l0.131-29.885c-18.003 18.291-41.45 34.342-71.366 34.342-45.098 0-76.090-33.446-64.896-106.15 12.365-80.271 62.061-115.951 112.058-115.951 20.547 0 36.522 3.569 48.771 8.025l16.010-103.917 54.88-8.464-49.603 322h-45.984zM1562.093 284.535c-12.429-6.25-22.221-9.371-40.522-9.371-28.131 0-52.166 22.749-59.453 70.032-6.451 41.91 8.381 61.539 32.042 61.539 19.638 0 36.605-11.584 53.635-29.43l14.298-92.771zM1754.288 452.029c-25.363 0-46.029-4.064-65.277-10.81l35.238-228.706 41.562-6.428-15.245 98.985c12.15-10.81 29.030-21.619 49.661-21.619 34.49 0 57.59 25.683 49.155 80.402-9.261 60.128-46.387 88.176-95.094 88.176zM1784.224 319.252c-13.53 0-27.11 9.129-39.126 21.302l-11.402 73.974c7.997 3.037 13.533 4.39 25.027 4.39 25.699 0 43.654-15.536 49.379-52.701 4.845-31.421-5.613-46.966-23.878-46.966zM1944.989 458.784c-20.733 40.202-41.251 52.701-72.704 52.701-7.107 0-11.053-0.682-14.618-1.69l-0.262-33.446c5.21 1.354 10.794 2.362 18.573 2.362 11.84 0 22.138-5.398 29.040-17.226l5.376-10.81-34.406-160.806 43.114-5.4 19.968 116.203 54.064-113.839h40.243l-88.387 171.951z"></path>
</svg>
