<!-- Generated by IcoMoon.io -->
<svg width="1024" height="1024" viewBox="0 0 1024 1024">
<path fill="#000" d="M284.458 128h159.895l67.661 67.66 67.661-67.66h159.893l204.71 153.531-60.715 242.849-115.55-38.517v452.803h-512.001v-452.803l-115.551 38.517-60.713-242.849 204.708-153.531zM312.902 213.333l-136.625 102.469 24.621 98.484 140.449-46.816v485.864h341.334v-485.864l140.446 46.816 24.623-98.484-136.627-102.469h-96.102l-103.006 103.006-103.007-103.006h-96.105z"></path>
<path fill="#000" d="M554.667 426.667c0 23.564-19.103 42.667-42.667 42.667s-42.667-19.103-42.667-42.667c0-23.564 19.103-42.667 42.667-42.667s42.667 19.103 42.667 42.667z"></path>
<path fill="#000" d="M554.667 597.333c0 23.564-19.103 42.667-42.667 42.667s-42.667-19.103-42.667-42.667c0-23.564 19.103-42.667 42.667-42.667s42.667 19.103 42.667 42.667z"></path>
</svg>
