<!-- Generated by IcoMoon.io -->
<svg class="video__icon" viewBox="0 0 1024 1024">
<path fill="#fff" d="M798.013 370.998c0-53.218-39.158-96.043-87.522-96.043-65.526-3.082-132.361-4.25-200.606-4.25h-21.191c-68.124 0-135.080 1.188-200.606 4.25-48.344 0-87.401 43.046-87.401 96.285-2.941 42.2-4.27 84.36-4.15 126.419s1.188 84.219 4.029 126.439c0 53.218 39.158 96.405 87.401 96.405 68.849 3.203 139.451 4.613 211.262 4.492q107.867 0.363 211.262-4.492c48.344 0 87.522-43.167 87.522-96.405 2.84-42.301 4.15-84.34 4.029-126.56q0.322-63.169-4.029-126.54zM441.378 613.683v-232.412l171.519 116.146z"></path>
</svg>
