<!-- Generated by IcoMoon.io -->
<svg width="1024" height="1024" viewBox="0 0 1024 1024">
<path fill="#000" d="M512 0c282.78 0 512 229.22 512 512s-229.22 512-512 512c-282.78 0-512-229.22-512-512s229.22-512 512-512zM584.18 518.7l-113.060 62c-4.9 2.66-9.32-0.9-9.32-6.48v-127.28c0-5.66 4.56-9.22 9.48-6.42l113.82 65.28c5.040 2.86 4.18 10.14-0.92 12.9zM763.040 445.58c0-60.38-48.94-109.3-109.3-109.3h-283.48c-60.36 0-109.3 48.92-109.3 109.3v132.84c0 60.38 48.94 109.3 109.3 109.3h283.5c60.34 0 109.28-48.92 109.28-109.3v-132.84z"></path>
</svg>
