<svg height="512px" viewBox="0 0 512 512" width="512px" ><path d="M476.387,144.888c-5.291-19.919-20.878-35.608-40.67-40.933C399.845,94.281,256,94.281,256,94.281   s-143.845,0-179.719,9.674c-19.791,5.325-35.378,21.014-40.668,40.933c-9.612,36.105-9.612,111.438-9.612,111.438   s0,75.334,9.612,111.438c5.29,19.92,20.877,34.955,40.668,40.281C112.155,417.719,256,417.719,256,417.719s143.845,0,179.717-9.674   c19.792-5.326,35.379-20.361,40.67-40.281c9.612-36.104,9.612-111.438,9.612-111.438S485.999,180.993,476.387,144.888z    M208.954,324.723V187.93l120.226,68.398L208.954,324.723z"/></svg>