<?xml version="1.0" encoding="UTF-8"?><!DOCTYPE svg PUBLIC "-//W3C//DTD SVG 1.1//EN" "http://www.w3.org/Graphics/SVG/1.1/DTD/svg11.dtd"><svg xmlns="http://www.w3.org/2000/svg" xmlns:xlink="http://www.w3.org/1999/xlink"><symbol id="icon-alcohol" viewBox="0 0 1024 1024">
    <title/>
    <path d="M725.333 938.667H384v-85.333h341.333v85.333z"/>
    <path d="M512 896.001V666.312h85.333v229.689H512z"/>
    <path d="M717.974 128H896.01v85.333H766.846L591.477 512.256l-73.602-43.18 200.099-341.077z"/>
    <path d="M213.333 298.667H896L554.667 753.78 213.334 298.667zM384 384l170.667 227.555L725.334 384H384.001z"/>
    <path d="M256 213.333c-47.128 0-85.333 38.205-85.333 85.333s38.205 85.333 85.333 85.333c15.614 0 30.128-4.154 42.636-11.39l42.729 73.865c-25.146 14.546-54.35 22.858-85.364 22.858-94.257 0-170.667-76.41-170.667-170.667s76.41-170.667 170.667-170.667 170.667 76.41 170.667 170.667h-85.333c0-47.128-38.205-85.333-85.333-85.333z"/>
</symbol><symbol id="icon-appliances" viewBox="0 0 1024 1024">
    <title/>
    <path d="M768 213.333v640H256v-640h512zM256 128c-47.128 0-85.333 38.205-85.333 85.333v640c0 47.13 38.205 85.333 85.333 85.333h512c47.13 0 85.333-38.204 85.333-85.333v-640C853.333 166.205 815.129 128 768 128H256z"/>
    <path d="M384 298.667c0 23.564-19.103 42.667-42.667 42.667s-42.667-19.103-42.667-42.667S317.769 256 341.333 256 384 275.103 384 298.667z"/>
    <path d="M512 298.667c0 23.564-19.103 42.667-42.667 42.667s-42.667-19.103-42.667-42.667S445.769 256 469.333 256 512 275.103 512 298.667z"/>
    <path d="M512 725.333c-70.692 0-128-57.308-128-128s57.308-128 128-128c70.692 0 128 57.308 128 128s-57.308 128-128 128zm0 85.334c117.821 0 213.333-95.513 213.333-213.333S629.82 384.001 512 384.001c-117.821 0-213.333 95.513-213.333 213.333S394.18 810.667 512 810.667z"/>
</symbol><symbol id="icon-basket" viewBox="0 0 1024 1024">
    <title/>
    <path d="M12.8 115.2c0-21.208 17.192-38.4 38.4-38.4h87.716c47.918 0 90.832 29.662 107.766 74.488l20.234 53.557c.612-.03 1.231-.045 1.851-.046l601.871-.512c82.097-.07 137.917 83.307 106.57 159.186l-99.049 239.762a89.598 89.598 0 0 1-66.783 53.944l-331.942 60.352c-54.712 9.948-108.721-20.608-128.374-72.63L174.837 178.428a38.4 38.4 0 0 0-35.922-24.829H51.199c-21.208 0-38.4-17.192-38.4-38.4zm283.103 166.377l127.002 336.184c6.551 17.341 24.556 27.525 42.793 24.21l331.94-60.352a12.803 12.803 0 0 0 9.541-7.708l99.049-239.762c10.45-25.29-8.156-53.084-35.523-53.061l-574.802.489z"/>
    <path d="M422.4 870.4c0 42.415-34.385 76.8-76.8 76.8s-76.8-34.385-76.8-76.8 34.385-76.8 76.8-76.8 76.8 34.385 76.8 76.8z"/>
    <path d="M883.2 870.4c0 42.415-34.385 76.8-76.8 76.8s-76.8-34.385-76.8-76.8 34.385-76.8 76.8-76.8 76.8 34.385 76.8 76.8z"/>
</symbol><symbol id="icon-beauty" viewBox="0 0 1024 1024">
    <title/>
    <path d="M237.333 853.335c-20.034 0-66.667-28.108-66.667-104.667s46.633-104.666 66.667-104.666S304 672.11 304 748.668s-46.633 104.667-66.667 104.667zm0 85.334c83.947 0 152-85.066 152-190s-68.053-190-152-190-152 85.066-152 190 68.053 190 152 190z"/>
    <path d="M469.333 896c0-23.564 19.103-42.667 42.667-42.667h298.667c23.564 0 42.667 19.103 42.667 42.667s-19.103 42.667-42.667 42.667H512c-23.564 0-42.667-19.103-42.667-42.667z"/>
    <path d="M781.888 763.583c-13.749 36.867-30.323 67.639-46.949 89.75H587.728c-16.625-22.112-33.2-52.884-46.949-89.75C521.896 712.951 512 660.605 512 621.712c0-51.228 16.541-71.904 32.905-83.56C566.503 522.769 604.32 512 661.333 512s94.83 10.768 116.428 26.152c16.364 11.656 32.905 32.332 32.905 83.56 0 38.894-9.896 91.239-28.779 141.871zm-9.323 175.084C846.056 871.774 896 723.837 896 621.712c0-148.113-105.066-195.045-234.667-195.045s-234.667 46.932-234.667 195.045c0 102.125 49.944 250.062 123.435 316.955h222.463z"/>
    <path d="M725.333 341.333v85.333h-128v-85.333h128zm-128-85.333C550.205 256 512 294.205 512 341.333v85.333c0 47.128 38.205 85.333 85.333 85.333h128c47.128 0 85.333-38.205 85.333-85.333v-85.333c0-47.128-38.205-85.333-85.333-85.333h-128z"/>
    <path d="M682.667 213.333H640V256h42.667v-42.667zM640 128c-47.128 0-85.333 38.205-85.333 85.333V256c0 47.128 38.205 85.333 85.333 85.333h42.667C729.795 341.333 768 303.128 768 256v-42.667C768 166.205 729.795 128 682.667 128H640z"/>
    <path d="M642.667 280h50.667v50.667h-50.667V280z"/>
    <path d="M340.428 268.308c75.3-69.151 171.494-97.641 256.905-97.641V256c-67.6 0-142.073 22.71-199.187 75.159-56.207 51.617-99.48 135.587-99.48 266.174h-85.333c0-151.013 50.888-259.043 127.095-329.026z"/>
</symbol><symbol id="icon-burger" viewBox="0 0 1024 1024">
    <title/>
    <path d="M85.333 128h853.333c23.564 0 42.667 19.103 42.667 42.667s-19.103 42.667-42.667 42.667H85.333c-23.564 0-42.667-19.103-42.667-42.667S61.769 128 85.333 128z"/>
    <path d="M85.333 469.333h853.333c23.564 0 42.667 19.103 42.667 42.667s-19.103 42.667-42.667 42.667H85.333c-23.564 0-42.667-19.103-42.667-42.667s19.103-42.667 42.667-42.667z"/>
    <path d="M85.333 810.667h853.333c23.564 0 42.667 19.103 42.667 42.667s-19.103 42.667-42.667 42.667H85.333c-23.564 0-42.667-19.103-42.667-42.667s19.103-42.667 42.667-42.667z"/>
</symbol><symbol id="icon-business" viewBox="0 0 1024 1024">
    <title/>
    <path d="M384 213.333h42.667v469.333H384V213.333z"/>
    <path d="M256 213.333h85.333v469.333H256V213.333z"/>
    <path d="M469.333 213.333h85.333v469.333h-85.333V213.333z"/>
    <path d="M896 213.333h42.667v597.333H896V213.333z"/>
    <path d="M170.667 213.333h42.667v469.333h-42.667V213.333z"/>
    <path d="M597.333 213.333H640v469.333h-42.667V213.333z"/>
    <path d="M682.667 213.333H768v469.333h-85.333V213.333z"/>
    <path d="M810.667 213.333h42.667v469.333h-42.667V213.333z"/>
    <path d="M85.333 213.333H128v597.333H85.333V213.333z"/>
</symbol><symbol id="icon-catalog" viewBox="0 0 1024 1024">
    <title/>
    <path d="M906.351 298.666L725.333 479.684 544.311 298.666l181.022-181.019zm-422.379-60.339c-33.327 33.324-33.327 87.355 0 120.679L664.99 540.028c33.327 33.323 87.36 33.323 120.683 0l181.018-181.022c33.323-33.324 33.323-87.355 0-120.679L785.673 57.308c-33.323-33.325-87.356-33.325-120.683 0z"/>
    <path d="M298.667 170.667c23.564 0 42.667 19.103 42.667 42.667v170.667c0 23.565-19.103 42.667-42.667 42.667H128c-23.564 0-42.667-19.102-42.667-42.667V213.334c0-23.564 19.103-42.667 42.667-42.667h170.667zM128 85.333c-70.692 0-128 57.308-128 128V384c0 70.694 57.308 128 128 128h170.667c70.692 0 128-57.306 128-128V213.333c0-70.692-57.308-128-128-128z"/>
    <path d="M298.667 682.667c23.564 0 42.667 19.102 42.667 42.667v170.667c0 23.565-19.103 42.667-42.667 42.667H128c-23.564 0-42.667-19.102-42.667-42.667V725.334c0-23.565 19.103-42.667 42.667-42.667h170.667zM128 597.333c-70.692 0-128 57.306-128 128V896c0 70.694 57.308 128 128 128h170.667c70.692 0 128-57.306 128-128V725.333c0-70.694-57.308-128-128-128z"/>
    <path d="M810.667 682.667c23.565 0 42.667 19.102 42.667 42.667v170.667c0 23.565-19.102 42.667-42.667 42.667H640c-23.565 0-42.667-19.102-42.667-42.667V725.334c0-23.565 19.102-42.667 42.667-42.667h170.667zM640 597.333c-70.694 0-128 57.306-128 128V896c0 70.694 57.306 128 128 128h170.667c70.694 0 128-57.306 128-128V725.333c0-70.694-57.306-128-128-128z"/>
</symbol><symbol id="icon-facebook" viewBox="0 0 10 19">
    <title>
        facebook
    </title>
    <path d="M9.766.157v2.946H8.014c-.64 0-1.071.134-1.295.402-.223.268-.335.67-.335 1.205v2.11h3.27l-.435 3.303H6.384v8.471H2.97v-8.47H.123V6.82H2.97V4.387c0-1.384.387-2.457 1.161-3.22C4.904.404 5.934.023 7.222.023c1.093 0 1.941.045 2.544.134z" fill-rule="evenodd"/>
</symbol><symbol id="icon-for-kids" viewBox="0 0 1024 1024">
    <title/>
    <path d="M237.333 853.335c-20.034 0-66.667-28.108-66.667-104.667s46.633-104.666 66.667-104.666S304 672.11 304 748.668s-46.633 104.667-66.667 104.667zm0 85.334c83.947 0 152-85.066 152-190s-68.053-190-152-190-152 85.066-152 190 68.053 190 152 190z"/>
    <path d="M469.333 896c0-23.564 19.103-42.667 42.667-42.667h298.667c23.564 0 42.667 19.103 42.667 42.667s-19.103 42.667-42.667 42.667H512c-23.564 0-42.667-19.103-42.667-42.667z"/>
    <path d="M781.888 763.583c-13.749 36.867-30.323 67.639-46.949 89.75H587.728c-16.625-22.112-33.2-52.884-46.949-89.75C521.896 712.951 512 660.605 512 621.712c0-51.228 16.541-71.904 32.905-83.56C566.503 522.769 604.32 512 661.333 512s94.83 10.768 116.428 26.152c16.364 11.656 32.905 32.332 32.905 83.56 0 38.894-9.896 91.239-28.779 141.871zm-9.323 175.084C846.056 871.774 896 723.837 896 621.712c0-148.113-105.066-195.045-234.667-195.045s-234.667 46.932-234.667 195.045c0 102.125 49.944 250.062 123.435 316.955h222.463z"/>
    <path d="M725.333 341.333v85.333h-128v-85.333h128zm-128-85.333C550.205 256 512 294.205 512 341.333v85.333c0 47.128 38.205 85.333 85.333 85.333h128c47.128 0 85.333-38.205 85.333-85.333v-85.333c0-47.128-38.205-85.333-85.333-85.333h-128z"/>
    <path d="M682.667 213.333H640V256h42.667v-42.667zM640 128c-47.128 0-85.333 38.205-85.333 85.333V256c0 47.128 38.205 85.333 85.333 85.333h42.667C729.795 341.333 768 303.128 768 256v-42.667C768 166.205 729.795 128 682.667 128H640z"/>
    <path d="M642.667 280h50.667v50.667h-50.667V280z"/>
    <path d="M340.428 268.308c75.3-69.151 171.494-97.641 256.905-97.641V256c-67.6 0-142.073 22.71-199.187 75.159-56.207 51.617-99.48 135.587-99.48 266.174h-85.333c0-151.013 50.888-259.043 127.095-329.026z"/>
</symbol><symbol id="icon-forhome" viewBox="0 0 1024 1024">
    <title/>
    <path d="M213.333 256c0-70.692 57.308-128 128-128H640c70.694 0 128 57.308 128 128v341.333h-85.333V256c0-23.564-19.102-42.667-42.667-42.667H341.333c-23.564 0-42.667 19.103-42.667 42.667v341.333h-85.333V256z"/>
    <path d="M469.333 298.667c0 23.564-19.103 42.667-42.667 42.667s-42.667-19.103-42.667-42.667S403.102 256 426.666 256s42.667 19.103 42.667 42.667z"/>
    <path d="M597.333 298.667c0 23.564-19.103 42.667-42.667 42.667s-42.667-19.103-42.667-42.667S531.102 256 554.666 256s42.667 19.103 42.667 42.667z"/>
    <path d="M469.333 426.667c0 23.564-19.103 42.667-42.667 42.667s-42.667-19.103-42.667-42.667S403.102 384 426.666 384s42.667 19.103 42.667 42.667z"/>
    <path d="M597.333 426.667c0 23.564-19.103 42.667-42.667 42.667s-42.667-19.103-42.667-42.667S531.102 384 554.666 384s42.667 19.103 42.667 42.667z"/>
    <path d="M213.333 512v298.667h-42.667V512h42.667zm-42.666-85.333c-47.128 0-85.333 38.205-85.333 85.333v384h213.333V512c0-47.128-38.205-85.333-85.333-85.333h-42.667z"/>
    <path d="M682.667 640v170.667h-384V640h384zm-469.334-85.333V896H768V554.667H213.333z"/>
    <path d="M810.667 512v298.667H768V512h42.667zM768 426.667c-47.128 0-85.333 38.205-85.333 85.333v384H896V512c0-47.128-38.205-85.333-85.333-85.333H768z"/>
    <path d="M170.667 853.333H256v85.333h-85.333v-85.333z"/>
    <path d="M725.333 853.333h85.333v85.333h-85.333v-85.333z"/>
</symbol><symbol id="icon-gamers" viewBox="0 0 1024 1024">
    <title/>
    <path d="M298.667 298.667V384h-85.333v85.333h85.333v85.333H384v-85.333h85.333V384H384v-85.333h-85.333z"/>
    <path d="M682.667 384c23.565 0 42.667-19.103 42.667-42.667s-19.102-42.667-42.667-42.667S640 317.769 640 341.333 659.102 384 682.667 384z"/>
    <path d="M725.333 512c0 23.565-19.102 42.667-42.667 42.667S639.999 535.565 639.999 512s19.102-42.667 42.667-42.667 42.667 19.102 42.667 42.667z"/>
    <path d="M597.333 469.333c23.565 0 42.667-19.102 42.667-42.667s-19.102-42.667-42.667-42.667-42.667 19.103-42.667 42.667 19.102 42.667 42.667 42.667z"/>
    <path d="M810.667 426.667c0 23.565-19.102 42.667-42.667 42.667s-42.667-19.102-42.667-42.667C725.333 403.103 744.435 384 768 384s42.667 19.103 42.667 42.667z"/>
    <path d="M93.806 900.237c46.488 23.245 102.417 16.068 141.532-18.159l136.181-119.155c80.432-70.379 200.53-70.379 280.961 0l136.183 119.155c39.113 34.227 95.044 41.404 141.53 18.159l13.427-6.711c48.235-24.119 76.181-75.883 69.879-129.442l-57.101-485.358C946.286 192.776 873.445 128 786.9 128h-74.018a128 128 0 0 0-57.242 13.513l-86.4 43.198a127.99 127.99 0 0 1-114.483 0l-86.398-43.198A127.995 127.995 0 0 0 311.116 128h-74.018C150.555 128 77.712 192.776 67.6 278.726L10.499 764.079c-6.301 53.564 21.644 105.327 69.88 129.446l13.425 6.711zm513.601-639.201l86.396-43.198a42.667 42.667 0 0 1 19.081-4.504h74.018c43.273 0 79.693 32.388 84.749 75.363l57.101 485.354c2.099 17.856-7.215 35.11-23.292 43.149l-13.427 6.711a42.665 42.665 0 0 1-47.177-6.05L708.673 698.702c-112.602-98.53-280.738-98.53-393.345 0L179.147 817.861a42.665 42.665 0 0 1-47.177 6.05l-13.426-6.711c-16.079-8.038-25.393-25.293-23.293-43.149l57.1-485.354c5.056-42.975 41.478-75.363 84.749-75.363h74.018a42.667 42.667 0 0 1 19.081 4.504l86.397 43.198a213.333 213.333 0 0 0 190.812 0z"/>
</symbol><symbol id="icon-garden" viewBox="0 0 1024 1024">
    <title/>
    <path d="M256 341.333h85.333v597.333H256V341.333z"/>
    <path d="M640 128h85.333v597.333H640V128z"/>
    <path d="M85.333 341.333V256H512v85.333H85.333z"/>
    <path d="M469.333 512H896v213.333c0 35.272-10.231 87.23-42.175 131.597-33.51 46.542-88.986 81.737-171.159 81.737s-137.649-35.194-171.159-81.737c-31.944-44.367-42.175-96.325-42.175-131.597V512zm85.334 85.333v128c0 21.617 6.836 54.992 26.092 81.737 17.69 24.569 47.547 46.263 101.908 46.263s84.218-21.695 101.908-46.263c19.256-26.745 26.092-60.12 26.092-81.737v-128h-256z"/>
    <path d="M85.333 128h85.333v128H85.333V128z"/>
    <path d="M256 128h85.333v128H256V128z"/>
    <path d="M426.667 128H512v128h-85.333V128z"/>
</symbol><symbol id="icon-instruments" viewBox="0 0 1024 1024">
    <title/>
    <path d="M469.333 768v85.333h-256V768h256zm-256-85.333C166.205 682.667 128 720.872 128 768v85.333c0 47.128 38.205 85.333 85.333 85.333h256c47.128 0 85.333-38.205 85.333-85.333V768c0-47.128-38.205-85.333-85.333-85.333h-256z"/>
    <path d="M554.667 213.333c23.565 0 42.667 19.103 42.667 42.667v128c0 23.564-19.102 42.667-42.667 42.667H256c-23.564 0-42.667-19.103-42.667-42.667V256c0-23.564 19.103-42.667 42.667-42.667h298.667zM256 128c-70.692 0-128 57.308-128 128v128c0 70.692 57.308 128 128 128h298.667c70.694 0 128-57.308 128-128V256c0-70.692-57.306-128-128-128H256z"/>
    <path d="M768 298.667v42.667h-85.333v-42.667H768zm-85.333-85.334c-47.128 0-85.333 38.205-85.333 85.333v42.667c0 47.128 38.205 85.333 85.333 85.333H768c47.128 0 85.333-38.205 85.333-85.333v-42.667c0-47.128-38.205-85.333-85.333-85.333h-85.333z"/>
    <path d="M810.667 298.667h128v42.667h-128v-42.667z"/>
    <path d="M331.331 512l-21.333 170.667h41.339L372.67 512h-41.339zM256 426.667L213.333 768h213.333l42.667-341.333H256z"/>
</symbol><symbol id="icon-laptops" viewBox="0 0 1024 1024">
    <title/>
    <path d="M256 213.333h512V640H256V213.333zM213.333 128c-23.564 0-42.667 19.103-42.667 42.667v554.667h682.667V170.667c0-23.564-19.102-42.667-42.667-42.667H213.333z"/>
    <path d="M170.667 725.333h682.667v85.333H170.667v-85.333zM128 640c-23.564 0-42.667 19.103-42.667 42.667v170.667c0 23.564 19.103 42.667 42.667 42.667h768c23.565 0 42.667-19.103 42.667-42.667V682.667C938.667 659.103 919.565 640 896 640H128z"/>
    <path d="M512 298.667c0 23.564-19.103 42.667-42.667 42.667s-42.667-19.103-42.667-42.667S445.769 256 469.333 256 512 275.103 512 298.667z"/>
    <path d="M384 298.667c0 23.564-19.103 42.667-42.667 42.667s-42.667-19.103-42.667-42.667S317.769 256 341.333 256 384 275.103 384 298.667z"/>
    <path d="M384 426.667c0 23.564-19.103 42.667-42.667 42.667s-42.667-19.103-42.667-42.667S317.769 384 341.333 384 384 403.103 384 426.667z"/>
</symbol><symbol id="icon-login" viewBox="0 0 1024 1024">
    <title/>
    <path d="M768 320c0-141.385-114.615-256-256-256-141.387 0-256.002 114.615-256.002 256S370.613 576 512 576c141.385 0 256-114.615 256-256zm-85.333 0c0 94.257-76.412 170.667-170.667 170.667-94.258 0-170.669-76.41-170.669-170.667S417.741 149.333 512 149.333c94.255 0 170.667 76.41 170.667 170.667z"/>
    <path d="M63.998 960c38.909 17.51 38.892 17.549 38.892 17.549l.049-.102c.121-.256.352-.742.698-1.446a196.518 196.518 0 0 1 3.459-6.643c3.247-5.982 8.388-14.865 15.603-25.69 14.459-21.687 37.059-50.876 69.2-80.098C255.652 805.616 357.738 746.668 512 746.668c154.257 0 256.346 58.948 320.098 116.902 32.141 29.222 54.741 58.411 69.201 80.098 7.215 10.825 12.352 19.708 15.603 25.69a196.029 196.029 0 0 1 3.456 6.643c.346.704.58 1.19.7 1.446l.047.102S921.088 977.511 960 960c38.908-17.51 38.886-17.553 38.886-17.553l-.021-.051-.055-.115-.137-.307-.414-.887c-.337-.713-.794-1.664-1.374-2.837a276.368 276.368 0 0 0-4.988-9.604c-4.356-8.017-10.812-19.136-19.597-32.311-17.545-26.313-44.544-61.124-82.803-95.902-77.043-70.046-198.959-139.098-377.498-139.098-178.542 0-300.456 69.052-377.503 139.098-38.259 34.778-65.259 69.589-82.8 95.902-8.785 13.175-15.245 24.294-19.597 32.311a281.07 281.07 0 0 0-4.991 9.604 179.002 179.002 0 0 0-1.371 2.837l-.413.887-.14.307-.053.115-.023.051s-.02.043 38.889 17.553z"/>
</symbol><symbol id="icon-microphone" viewBox="0 0 1024 1024">
    <title/>
    <path d="M512 597.333c70.827 0 127.573-57.173 127.573-128l.427-256c0-70.827-57.173-128-128-128s-128 57.173-128 128v256c0 70.827 57.173 128 128 128zm226.133-128c0 128-108.373 217.6-226.133 217.6s-226.133-89.6-226.133-217.6h-72.533c0 145.493 116.053 265.813 256 286.72V896h85.333V756.053c139.947-20.48 256-140.8 256-286.72z"/>
</symbol><symbol id="icon-plumbing" viewBox="0 0 1024 1024">
    <title/>
    <path d="M841.824 512l-22.976 181.39c-5.402 42.642-41.677 74.61-84.659 74.61H332.438c-42.982 0-79.255-31.968-84.657-74.61L224.805 512h617.02zm-617.02-85.333c-51.384 0-91.114 45.08-84.657 96.057l22.976 181.39c10.803 85.283 83.349 149.22 169.314 149.22h401.751c85.965 0 158.511-63.937 169.314-149.22l22.976-181.39c6.46-50.977-33.271-96.057-84.655-96.057h-617.02z"/>
    <path d="M298.667 810.667H384v128h-85.333v-128z"/>
    <path d="M682.667 810.667H768v128h-85.333v-128z"/>
    <path d="M704 213.333c-36.239 0-64 28.494-64 61.671h-85.333C554.667 192.933 622.419 128 704 128s149.333 64.933 149.333 147.004v194.329H768V275.004c0-33.177-27.761-61.671-64-61.671z"/>
    <path d="M496.705 304.849C520.143 275.1 556.494 256 597.305 256s77.162 19.1 100.601 48.849C727.072 341.868 687.1 384 639.972 384h-85.333c-47.128 0-87.1-42.132-57.934-79.151z"/>
    <path d="M469.333 512v42.667H384V512h85.333zm-170.666-85.333V640h256V426.667h-256z"/>
</symbol><symbol id="icon-premium" viewBox="0 0 3072 1024">
    <title/>
    <path d="M83.748 0C29.472 160.457 0 332.714 0 512s29.472 351.542 83.748 512h2904.505C3042.528 863.542 3072 691.286 3072 512s-29.472-351.543-83.747-512z"/>
    <path d="M479.245 320H352v377.53h51.981V546.519h72.557c86.634 0 132.118-47.462 132.118-113.261S564.253 320 479.245 320zm5.955 183.91h-81.219V362.608H485.2c42.234 0 70.39 28.045 70.39 70.65 0 42.608-28.157 70.653-70.39 70.653z"/>
    <path d="M896.704 697.53h71.475L822.525 530.336c60.102-12.403 90.966-51.773 90.966-103.011 0-62.56-44.4-107.325-129.411-107.325H668.208v377.53h51.981V534.112h40.608zM720.189 362.067h70.931c42.234 0 69.306 25.347 69.306 65.798 0 39.91-27.072 65.798-69.306 65.798h-70.931z"/>
    <path d="M1249.626 365.302V320h-238.243v377.53h238.243v-45.306h-186.262V526.022h159.19V480.72h-159.19V365.302z"/>
    <path d="M1653.328 320l-142.406 240.541L1368.516 320h-54.147v377.53h51.981V406.292l142.947 242.698 142.947-242.698V697.53h51.981V320z"/>
    <path d="M1793.504 697.53h51.978V320h-51.978z"/>
    <path d="M2088.941 704c95.296 0 157.024-58.787 157.024-152.09V320h-51.981v234.608c0 59.325-40.611 103.011-105.043 103.011-64.435 0-105.046-43.686-105.046-103.011V320h-51.981v231.91c0 93.302 61.728 152.09 157.027 152.09z"/>
    <path d="M2669.101 320l-142.403 240.541L2384.292 320h-54.147v377.53h51.981V406.292l142.947 242.698 142.947-242.698V697.53h51.981V320z"/>
</symbol><symbol id="icon-search" viewBox="0 0 1024 1024">
    <title/>
    <path d="M621.668 685.668C577.192 717.36 522.773 736 464 736c-150.221 0-272-121.779-272-272s121.779-272 272-272 272 121.779 272 272c0 58.773-18.641 113.192-50.332 157.668l178.714 178.714c17.606 17.606 17.46 45.778-.006 63.244l-.75.75c-17.421 17.421-45.781 17.469-63.244.006L621.668 685.668zM464 672c114.875 0 208-93.125 208-208s-93.125-208-208-208-208 93.125-208 208 93.125 208 208 208z"/>
</symbol><symbol id="icon-services" viewBox="0 0 1024 1024">
    <title/>
    <path d="M85.333 213.333c0-70.692 57.308-128 128-128H640c70.694 0 128 57.308 128 128v213.333h-85.333V213.333c0-23.564-19.102-42.667-42.667-42.667H213.333c-23.564 0-42.667 19.103-42.667 42.667V512c0 23.565 19.103 42.667 42.667 42.667H256V640h-42.667c-70.692 0-128-57.306-128-128V213.333z"/>
    <path d="M128 256h597.333v85.333H128V256z"/>
    <path d="M298.667 426.667h512v42.667c0 7.457 4.16 18.485 14.17 28.497 10.014 10.012 21.039 14.17 28.497 14.17h42.667v341.333h-42.667c-7.458 0-18.483 4.16-28.497 14.17-10.01 10.014-14.17 21.039-14.17 28.497v42.667h-512v-42.667c0-7.458-4.158-18.483-14.17-28.497-10.012-10.01-21.04-14.17-28.497-14.17h-42.667V512.001H256c7.457 0 18.485-4.158 28.497-14.17s14.17-21.04 14.17-28.497v-42.667zM375.572 512c-7.113 17.797-18.134 33.568-30.735 46.17s-28.373 23.622-46.17 30.735v187.523c17.797 7.113 33.568 18.134 46.17 30.735s23.622 28.373 30.735 46.17H733.76c7.113-17.797 18.133-33.568 30.737-46.17 12.599-12.602 28.373-23.622 46.17-30.735V588.905c-17.796-7.113-33.57-18.134-46.17-30.735-12.604-12.602-23.625-28.373-30.737-46.17H375.572z"/>
    <path d="M682.667 597.333h-85.333V512h85.333v85.333z"/>
    <path d="M682.667 725.333h-85.333V640h85.333v85.333z"/>
    <path d="M682.667 853.333h-85.333V768h85.333v85.333z"/>
</symbol><symbol id="icon-smartphones" viewBox="0 0 1024 1024">
    <title/>
    <path d="M725.333 170.667v682.667H298.666V170.667h426.667zM298.667 85.333c-47.128 0-85.333 38.205-85.333 85.333v682.667c0 47.13 38.205 85.333 85.333 85.333h426.667c47.13 0 85.333-38.204 85.333-85.333V170.666c0-47.128-38.204-85.333-85.333-85.333H298.667z"/>
    <path d="M554.377 768c0 23.564-19.103 42.667-42.667 42.667S469.043 791.564 469.043 768s19.103-42.667 42.667-42.667 42.667 19.103 42.667 42.667z"/>
</symbol><symbol id="icon-sport" viewBox="0 0 1024 1024">
    <title/>
    <path d="M836.268 179.602c-115.2-93.867-298.667-55.467-405.334 81.067-110.933 136.533-106.667 324.266 8.533 413.866s298.667 55.467 405.334-81.067c110.933-136.532 106.667-319.999-8.533-413.866zm-55.466 362.667c-89.6 110.932-217.6 123.732-285.867 68.266s-85.333-183.466 4.267-294.399c89.6-110.933 217.6-123.733 285.867-68.267 68.267 51.2 85.333 183.467-4.267 294.4z"/>
    <path d="M520.533 218L870.4 495.333l-29.867 34.133-349.867-277.333L520.533 218z"/>
    <path d="M435.183 324.667L785.05 602l-29.867 34.133-345.6-277.333 25.6-34.133z"/>
    <path d="M401.083 584.937L742.416 158.27l34.133 25.6-341.333 426.667-34.133-25.6z"/>
    <path d="M503.458 670.271l341.333-426.667 34.133 25.6-341.333 426.667-34.133-25.6z"/>
    <path d="M354.133 448.401c0-17.067 4.267-34.133 4.267-42.667l85.333 12.8c0 8.533 0 17.067-4.267 34.133 0 8.533 0 21.333-4.267 34.133-4.267 29.867-8.533 72.533-12.8 110.933-4.267 42.667-12.8 85.333-25.6 123.733s-29.867 81.067-55.467 110.933l-64-55.467c17.067-17.067 29.867-46.933 38.4-81.067 12.8-34.133 17.067-72.533 25.6-110.933 4.267-38.4 8.533-76.8 12.8-106.667v-29.867z"/>
    <path d="M678.4 712.939c4.267 0 68.988-46.933 73.254-46.933s-77.521-38.4-77.521-38.4H665.6c-29.867 4.267-102.4 17.067-170.667 38.4-38.4 12.8-81.067 25.6-119.467 42.667s-76.8 42.667-98.133 68.267l68.267 51.2c12.8-12.8 34.133-29.867 64-42.667s68.267-25.6 106.667-38.4c64-17.067 132.267-29.867 162.133-34.133z"/>
    <path d="M192 883.605l85.333-106.667 68.267 51.2-85.333 106.667-68.267-51.2z"/>
    <path d="M298.667 320c0 34.133-29.867 64-64 64s-64-29.867-64-64c0-34.133 29.867-64 64-64s64 25.6 64 64z"/>
</symbol><symbol id="icon-stationery" viewBox="0 0 1024 1024">
    <title/>
    <path d="M242.133 859.732c-38.4-38.4-38.4-98.133 0-136.533l392.533-392.533-59.733-59.733L182.4 663.466c-72.533 72.533-72.533 183.467 0 256s183.467 72.533 256 0l-59.733-59.733c-42.667 38.4-102.4 38.4-136.533 0z"/>
    <path d="M865.083 155.733c-93.867-93.867-243.2-93.867-332.8 0L139.75 548.266l59.733 59.733 392.533-392.533c59.733-59.733 153.6-59.733 213.333 0s59.733 153.6 0 213.333L374.416 859.732l59.733 59.733 430.933-430.933c93.867-89.6 93.867-238.933 0-332.8z"/>
    <path d="M749.867 275.2c-46.933-46.933-128-46.933-179.2 0l59.733 59.733c17.067-17.067 42.667-17.067 55.467 0 17.067 17.067 17.067 42.667 0 55.467L336 740.267 395.733 800 745.6 450.133c51.2-46.933 51.2-128 4.267-174.933z"/>
</symbol><symbol id="icon-stock" viewBox="0 0 1024 1024">
    <title/>
    <path d="M362.667 426.667c-58.91 0-106.667 47.757-106.667 106.667s47.756 106.667 106.667 106.667 106.667-47.757 106.667-106.667-47.756-106.667-106.667-106.667zm-21.334 106.666c0-11.78 9.551-21.333 21.333-21.333s21.333 9.553 21.333 21.333-9.551 21.333-21.333 21.333-21.333-9.553-21.333-21.333z"/>
    <path d="M554.667 789.333c0-58.91 47.757-106.667 106.667-106.667s106.667 47.757 106.667 106.667S720.244 896 661.334 896s-106.667-47.757-106.667-106.667zM661.333 768c-11.78 0-21.333 9.553-21.333 21.333s9.553 21.333 21.333 21.333 21.333-9.553 21.333-21.333S673.113 768 661.333 768z"/>
    <path d="M604.497 445.666l-255.998 384L419.501 877l255.998-384z"/>
    <path d="M513.638.031a42.673 42.673 0 0 1 30.758 14.868l243.226 283.767H896c47.13 0 85.333 38.205 85.333 85.333v554.667c0 47.13-38.204 85.333-85.333 85.333H128c-47.128 0-85.333-38.204-85.333-85.333V383.999c0-47.128 38.205-85.333 85.333-85.333h67.661l286.17-286.17A42.672 42.672 0 0 1 513.639.031zm-4.049 105.386l165.645 193.25H316.34zM896 384H128v554.667h768z"/>
</symbol><symbol id="icon-tourism" viewBox="0 0 1024 1024">
    <title/>
    <path d="M755.115 265.743c64.619 33.268 115.392 87.066 145.045 146.425 31.194 62.456 41.242 136.274 11.575 200.218l-18.202 39.232-287.731-138.231c37.239 83.767 61.965 173.261 72.034 266.615 44.143 6.724 84.446 16.098 119.185 27.678 37.227 12.407 70.434 28.126 95.211 47.65 24.294 19.149 46.434 46.985 46.434 83.337v42.667H85.332v-42.667c0-36.352 22.139-64.188 46.434-83.337 24.775-19.524 57.981-35.243 95.212-47.65 64.869-21.623 149.135-35.554 241.57-38.899-3.123-82.901-15.514-162.641-35.84-237.619-8.037-29.636-17.311-58.522-27.741-86.562L173.845 669.901l-29.787-30.029c-80.796-81.455-67.441-208.832 10.116-287.077L54.82 329.566l13.693-43.82C104.707 169.918 213.075 90.541 320.825 124.21c34.711 10.846 66.86 31.103 92.111 58.588 23.057-36.003 55.42-71.382 102.234-93.405 63.078-29.678 134.729-35.24 196.361-22.101 60.446 12.886 119.526 45.933 145.988 102.176l17.993 38.247zm-203.618-99.136c44.932-21.14 97.421-25.413 142.242-15.857 23.044 4.912 41.993 12.925 56.538 22.598l-117.781 56.766c-34.782-3.131-69.09-.59-101.09 7.279-22.878 5.627-44.949 14.107-65.237 25.414 19.191-40.322 45.03-77.239 85.329-96.199zm292.561 366.568L479.395 357.992c18.185-17.323 42.82-30.464 72.393-37.736 46.852-11.523 103.061-7.259 155.593 17.113 51.972 24.112 93.269 66.541 116.437 112.931 14.451 28.924 21.005 57.408 20.241 82.876zm-468.43-249.359c.633 1.926 1.22 3.884 1.758 5.872-22.27-9.635-46.431-14.315-71.132-13.798-19.874.416-39.691 4.164-58.873 11.062l-78.483-18.35c33.277-55.125 87.188-75.22 126.475-62.944 36.505 11.407 67.843 40.386 80.255 78.157zm-67.586 77.389c16.687-.35 32.81 3.879 46.972 12.919L181.483 543.287c-15.177-41.25-4.687-92.753 34.148-131.272l1.306-1.296 1.19-1.404c28.312-33.394 61.528-47.516 89.914-48.111zm245.797 493.72l-42.633-1.591c-102.404.073-193.333 13.999-257.244 35.302A388.51 388.51 0 0 0 233.686 896h556.623a388.464 388.464 0 0 0-20.275-7.364c-55.223-18.411-130.624-31.309-216.166-34.522zm-32.098-320.243c18.3 74.573 29.359 153.015 32.196 234.048a1146.64 1146.64 0 0 1 36.838 1.869c-10.867-82.526-34.449-161.681-69.035-235.917z"/>
</symbol><symbol id="icon-wear" viewBox="0 0 1024 1024">
    <title/>
    <path d="M284.458 128h159.895l67.661 67.66L579.675 128h159.893l204.71 153.531-60.715 242.849-115.55-38.517v452.803H256.012V485.863L140.461 524.38 79.748 281.531 284.456 128zm28.444 85.333L176.277 315.802l24.621 98.484 140.449-46.816v485.864h341.334V367.47l140.446 46.816 24.623-98.484-136.627-102.469h-96.102L512.015 316.339 409.008 213.333h-96.105z"/>
    <path d="M554.667 426.667c0 23.564-19.103 42.667-42.667 42.667s-42.667-19.103-42.667-42.667S488.436 384 512 384s42.667 19.103 42.667 42.667z"/>
    <path d="M554.667 597.333C554.667 620.897 535.564 640 512 640s-42.667-19.103-42.667-42.667 19.103-42.667 42.667-42.667 42.667 19.103 42.667 42.667z"/>
</symbol></svg>