<?xml version="1.0" encoding="UTF-8"?><!DOCTYPE svg PUBLIC "-//W3C//DTD SVG 1.1//EN" "http://www.w3.org/Graphics/SVG/1.1/DTD/svg11.dtd"><svg xmlns="http://www.w3.org/2000/svg" xmlns:xlink="http://www.w3.org/1999/xlink"><symbol id="icon-alcohol" viewBox="0 0 1024 1024">
    <title/>
    <path d="M725.333 938.667H384v-85.333h341.333v85.333z"/>
    <path d="M512 896.001V666.312h85.333v229.689H512z"/>
    <path d="M717.974 128H896.01v85.333H766.846L591.477 512.256l-73.602-43.18 200.099-341.077z"/>
    <path d="M213.333 298.667H896L554.667 753.78 213.334 298.667zM384 384l170.667 227.555L725.334 384H384.001z"/>
    <path d="M256 213.333c-47.128 0-85.333 38.205-85.333 85.333s38.205 85.333 85.333 85.333c15.614 0 30.128-4.154 42.636-11.39l42.729 73.865c-25.146 14.546-54.35 22.858-85.364 22.858-94.257 0-170.667-76.41-170.667-170.667s76.41-170.667 170.667-170.667 170.667 76.41 170.667 170.667h-85.333c0-47.128-38.205-85.333-85.333-85.333z"/>
</symbol><symbol id="icon-appliances" viewBox="0 0 1024 1024">
    <title/>
    <path d="M768 213.333v640H256v-640h512zM256 128c-47.128 0-85.333 38.205-85.333 85.333v640c0 47.13 38.205 85.333 85.333 85.333h512c47.13 0 85.333-38.204 85.333-85.333v-640C853.333 166.205 815.129 128 768 128H256z"/>
    <path d="M384 298.667c0 23.564-19.103 42.667-42.667 42.667s-42.667-19.103-42.667-42.667S317.769 256 341.333 256 384 275.103 384 298.667z"/>
    <path d="M512 298.667c0 23.564-19.103 42.667-42.667 42.667s-42.667-19.103-42.667-42.667S445.769 256 469.333 256 512 275.103 512 298.667z"/>
    <path d="M512 725.333c-70.692 0-128-57.308-128-128s57.308-128 128-128c70.692 0 128 57.308 128 128s-57.308 128-128 128zm0 85.334c117.821 0 213.333-95.513 213.333-213.333S629.82 384.001 512 384.001c-117.821 0-213.333 95.513-213.333 213.333S394.18 810.667 512 810.667z"/>
</symbol><symbol id="icon-arrow " viewBox="0 0 24 24">
    <path d="M512.026 128.021c-23.565 0-42.667 19.102-42.667 42.667v561.92L261.146 524.395c-16.713-16.713-43.825-16.666-60.48.107-16.571 16.687-16.523 43.635.107 60.267l311.253 311.253 311.241-311.241c16.619-16.619 16.619-43.567 0-60.186-16.61-16.61-43.537-16.623-60.16-.03L554.693 732.608v-561.92c0-23.564-19.102-42.667-42.667-42.667z"/>
</symbol><symbol id="icon-basket" viewBox="0 0 1024 1024">
    <title/>
    <path d="M12.8 115.2c0-21.208 17.192-38.4 38.4-38.4h87.716c47.918 0 90.832 29.662 107.766 74.488l20.234 53.557c.612-.03 1.231-.045 1.851-.046l601.871-.512c82.097-.07 137.917 83.307 106.57 159.186l-99.049 239.762a89.598 89.598 0 0 1-66.783 53.944l-331.942 60.352c-54.712 9.948-108.721-20.608-128.374-72.63L174.837 178.428a38.4 38.4 0 0 0-35.922-24.829H51.199c-21.208 0-38.4-17.192-38.4-38.4zm283.103 166.377l127.002 336.184c6.551 17.341 24.556 27.525 42.793 24.21l331.94-60.352a12.803 12.803 0 0 0 9.541-7.708l99.049-239.762c10.45-25.29-8.156-53.084-35.523-53.061l-574.802.489z"/>
    <path d="M422.4 870.4c0 42.415-34.385 76.8-76.8 76.8s-76.8-34.385-76.8-76.8 34.385-76.8 76.8-76.8 76.8 34.385 76.8 76.8z"/>
    <path d="M883.2 870.4c0 42.415-34.385 76.8-76.8 76.8s-76.8-34.385-76.8-76.8 34.385-76.8 76.8-76.8 76.8 34.385 76.8 76.8z"/>
</symbol><symbol id="icon-beauty" viewBox="0 0 1024 1024">
    <title/>
    <path d="M237.333 853.335c-20.034 0-66.667-28.108-66.667-104.667s46.633-104.666 66.667-104.666S304 672.11 304 748.668s-46.633 104.667-66.667 104.667zm0 85.334c83.947 0 152-85.066 152-190s-68.053-190-152-190-152 85.066-152 190 68.053 190 152 190z"/>
    <path d="M469.333 896c0-23.564 19.103-42.667 42.667-42.667h298.667c23.564 0 42.667 19.103 42.667 42.667s-19.103 42.667-42.667 42.667H512c-23.564 0-42.667-19.103-42.667-42.667z"/>
    <path d="M781.888 763.583c-13.749 36.867-30.323 67.639-46.949 89.75H587.728c-16.625-22.112-33.2-52.884-46.949-89.75C521.896 712.951 512 660.605 512 621.712c0-51.228 16.541-71.904 32.905-83.56C566.503 522.769 604.32 512 661.333 512s94.83 10.768 116.428 26.152c16.364 11.656 32.905 32.332 32.905 83.56 0 38.894-9.896 91.239-28.779 141.871zm-9.323 175.084C846.056 871.774 896 723.837 896 621.712c0-148.113-105.066-195.045-234.667-195.045s-234.667 46.932-234.667 195.045c0 102.125 49.944 250.062 123.435 316.955h222.463z"/>
    <path d="M725.333 341.333v85.333h-128v-85.333h128zm-128-85.333C550.205 256 512 294.205 512 341.333v85.333c0 47.128 38.205 85.333 85.333 85.333h128c47.128 0 85.333-38.205 85.333-85.333v-85.333c0-47.128-38.205-85.333-85.333-85.333h-128z"/>
    <path d="M682.667 213.333H640V256h42.667v-42.667zM640 128c-47.128 0-85.333 38.205-85.333 85.333V256c0 47.128 38.205 85.333 85.333 85.333h42.667C729.795 341.333 768 303.128 768 256v-42.667C768 166.205 729.795 128 682.667 128H640z"/>
    <path d="M642.667 280h50.667v50.667h-50.667V280z"/>
    <path d="M340.428 268.308c75.3-69.151 171.494-97.641 256.905-97.641V256c-67.6 0-142.073 22.71-199.187 75.159-56.207 51.617-99.48 135.587-99.48 266.174h-85.333c0-151.013 50.888-259.043 127.095-329.026z"/>
</symbol><symbol id="icon-burger" viewBox="0 0 1024 1024">
    <title/>
    <path d="M85.333 128h853.333c23.564 0 42.667 19.103 42.667 42.667s-19.103 42.667-42.667 42.667H85.333c-23.564 0-42.667-19.103-42.667-42.667S61.769 128 85.333 128z"/>
    <path d="M85.333 469.333h853.333c23.564 0 42.667 19.103 42.667 42.667s-19.103 42.667-42.667 42.667H85.333c-23.564 0-42.667-19.103-42.667-42.667s19.103-42.667 42.667-42.667z"/>
    <path d="M85.333 810.667h853.333c23.564 0 42.667 19.103 42.667 42.667s-19.103 42.667-42.667 42.667H85.333c-23.564 0-42.667-19.103-42.667-42.667s19.103-42.667 42.667-42.667z"/>
</symbol><symbol id="icon-business" viewBox="0 0 1024 1024">
    <title/>
    <path d="M384 213.333h42.667v469.333H384V213.333z"/>
    <path d="M256 213.333h85.333v469.333H256V213.333z"/>
    <path d="M469.333 213.333h85.333v469.333h-85.333V213.333z"/>
    <path d="M896 213.333h42.667v597.333H896V213.333z"/>
    <path d="M170.667 213.333h42.667v469.333h-42.667V213.333z"/>
    <path d="M597.333 213.333H640v469.333h-42.667V213.333z"/>
    <path d="M682.667 213.333H768v469.333h-85.333V213.333z"/>
    <path d="M810.667 213.333h42.667v469.333h-42.667V213.333z"/>
    <path d="M85.333 213.333H128v597.333H85.333V213.333z"/>
</symbol><symbol id="icon-button-appstore-ru" viewBox="0 0 3072 1024">
    <title/>
    <path d="M102.4 12.8h2867.2c49.485 0 89.6 40.115 89.6 89.6v819.2c0 49.485-40.115 89.6-89.6 89.6H102.4c-49.485 0-89.6-40.115-89.6-89.6V102.4c0-49.485 40.115-89.6 89.6-89.6z"/>
    <path d="M687.828 505.969c-.678-77.629 61.839-115.389 64.704-117.156-35.412-53.066-90.299-60.316-109.568-60.879-46.088-4.977-90.796 28.339-114.281 28.339-23.956 0-60.124-27.858-99.077-27.054-50.15.801-97.07 30.641-122.796 76.961-53.093 94.492-13.489 233.324 37.391 309.699 25.439 37.409 55.201 79.155 94.1 77.683 38.095-1.605 52.311-24.94 98.268-24.94 45.542 0 58.9 24.94 98.583 24.003 40.878-.668 66.604-37.571 91.159-75.302 29.396-42.87 41.219-85.097 41.687-87.265-.991-.294-79.391-31.068-80.172-124.088z"/>
    <path d="M612.838 277.678c20.493-26.332 34.501-62.138 30.597-98.478-29.632 1.338-66.711 21.06-88.061 46.83-18.88 22.693-35.75 59.863-31.404 94.838 33.303 2.542 67.492-17.26 88.868-43.19z"/>
    <path d="M1287.194 772.017h-52.326l-28.672-90.061h-99.635l-27.315 90.061h-50.944l98.714-306.611h60.954zm-89.626-127.847l-25.933-80.077c-2.739-8.166-7.885-27.443-15.462-57.754h-.922c-3.021 13.03-7.885 32.307-14.566 57.754l-25.446 80.077z"/>
    <path d="M1541.015 658.737c0 37.606-10.163 67.328-30.49 89.139-18.202 19.43-40.806 29.133-67.789 29.133-29.133 0-50.048-10.47-62.771-31.386h-.922v116.454h-49.126V623.69c0-23.629-.614-47.898-1.818-72.781h43.213l2.739 35.046h.922c16.384-26.394 41.242-39.578 74.598-39.578 26.086 0 47.846 10.291 65.28 30.925 17.459 20.634 26.163 47.77 26.163 81.434zm-50.048 1.792c0-21.53-4.838-39.27-14.566-53.222-10.624-14.566-24.883-21.837-42.752-21.837-12.109 0-23.142 4.045-32.973 12.058-9.856 8.064-16.307 18.586-19.328 31.642-1.51 6.093-2.278 11.059-2.278 14.976v36.864c0 16.077 4.941 29.645 14.797 40.73s22.682 16.614 38.426 16.614c18.509 0 32.896-7.142 43.213-21.376 10.291-14.285 15.462-33.075 15.462-56.448z"/>
    <path d="M1795.302 658.737c0 37.606-10.163 67.328-30.515 89.139-18.176 19.43-40.781 29.133-67.763 29.133-29.133 0-50.048-10.47-62.771-31.386h-.922v116.454h-49.126V623.69c0-23.629-.614-47.898-1.818-72.781h43.213l2.739 35.046h.922c16.358-26.394 41.216-39.578 74.598-39.578 26.061 0 47.821 10.291 65.306 30.925 17.408 20.634 26.138 47.77 26.138 81.434zm-50.048 1.792c0-21.53-4.864-39.27-14.592-53.222-10.624-14.566-24.832-21.837-42.752-21.837-12.134 0-23.142 4.045-32.998 12.058-9.856 8.064-16.282 18.586-19.302 31.642-1.51 6.093-2.278 11.059-2.278 14.976v36.864c0 16.077 4.941 29.645 14.746 40.73 9.856 11.059 22.682 16.614 38.477 16.614 18.509 0 32.896-7.142 43.213-21.376 10.342-14.285 15.488-33.075 15.488-56.448z"/>
    <path d="M2079.616 686.026c0 26.086-9.062 47.309-27.238 63.693-19.968 17.894-47.795 26.854-83.533 26.854-33.001 0-59.443-6.349-79.462-19.098l11.392-40.934c21.555 13.03 45.235 19.584 71.014 19.584 18.509 0 32.896-4.198 43.238-12.544 10.291-8.346 15.437-19.533 15.437-33.51 0-12.442-4.25-22.938-12.749-31.437-8.448-8.499-22.579-16.41-42.291-23.706-53.683-20.019-80.512-49.357-80.512-87.91 0-25.216 9.395-45.875 28.211-61.952 18.765-16.102 43.776-24.141 75.059-24.141 27.904 0 51.072 4.864 69.581 14.566l-12.288 40.038c-17.28-9.395-36.813-14.106-58.675-14.106-17.28 0-30.771 4.275-40.448 12.749-8.166 7.578-12.288 16.819-12.288 27.75 0 12.109 4.685 22.144 14.08 30.029 8.192 7.27 23.04 15.155 44.595 23.654 26.368 10.624 45.747 23.04 58.214 37.274 12.467 14.182 18.662 31.949 18.662 53.146z"/>
    <path d="M2242.025 587.773h-54.144v107.341c0 27.29 9.549 40.934 28.672 40.934 8.781 0 16.051-.768 21.811-2.278l1.357 37.299c-9.677 3.61-22.426 5.427-38.195 5.427-19.405 0-34.56-5.914-45.491-17.741-10.906-11.853-16.384-31.693-16.384-59.597V587.721h-32.256v-36.864h32.256v-40.474l48.256-14.566v55.04h54.144z"/>
    <path d="M2486.326 659.633c0 33.997-9.728 61.875-29.133 83.712-20.352 22.451-47.334 33.664-80.998 33.664-32.435 0-58.266-10.752-77.517-32.282s-28.902-48.691-28.902-81.434c0-34.253 9.907-62.31 29.798-84.147 19.84-21.837 46.618-32.768 80.282-32.768 32.435 0 58.547 10.752 78.234 32.307 18.842 20.915 28.237 47.898 28.237 80.947zm-50.97 1.587c0-20.403-4.352-37.888-13.184-52.454-10.291-17.638-25.011-26.445-44.109-26.445-19.738 0-34.739 8.832-45.056 26.445-8.832 14.618-13.184 32.384-13.184 53.376 0 20.378 4.352 37.888 13.184 52.429 10.624 17.638 25.472 26.445 44.595 26.445 18.765 0 33.485-8.986 44.109-26.906 9.088-14.848 13.645-32.512 13.645-52.89z"/>
    <path d="M2645.99 594.122c-4.864-.896-10.035-1.357-15.488-1.357-17.28 0-30.643 6.528-40.038 19.584-8.192 11.52-12.288 26.086-12.288 43.648v115.994h-49.101l.461-151.475c0-25.472-.614-48.691-1.843-69.606h42.778l1.792 42.291h1.357c5.171-14.541 13.363-26.24 24.55-35.021 10.931-7.91 22.758-11.853 35.507-11.853 4.531 0 8.653.333 12.288.896.026.051.026 46.899.026 46.899z"/>
    <path d="M2865.664 651.005c0 8.806-.563 16.23-1.792 22.272h-147.354c.563 21.837 7.706 38.554 21.376 50.074 12.416 10.291 28.467 15.462 48.205 15.462 21.811 0 41.728-3.482 59.622-10.47l7.706 34.099c-20.915 9.114-45.619 13.67-74.112 13.67-34.278 0-61.184-10.086-80.768-30.259-19.533-20.173-29.338-47.232-29.338-81.203 0-33.331 9.088-61.107 27.315-83.251 19.072-23.629 44.851-35.456 77.312-35.456 31.872 0 55.987 11.827 72.371 35.456 12.954 18.79 19.456 42.01 19.456 69.606zm-46.822-12.748c.333-14.566-2.893-27.136-9.549-37.76-8.499-13.67-21.555-20.48-39.142-20.48-16.051 0-29.133 6.656-39.091 20.019-8.192 10.624-13.03 23.373-14.541 38.195z"/>
    <path d="M1159.45 326.175l21.827 5.512c-4.577 17.925-12.826 31.613-24.75 41.062-11.85 9.377-26.363 14.065-43.538 14.065-17.777 0-32.251-3.602-43.425-10.801-11.1-7.276-19.576-17.774-25.426-31.501-5.775-13.724-8.663-28.462-8.663-44.211 0-17.175 3.264-32.138 9.789-44.888 6.6-12.825 15.936-22.537 28.012-29.137 12.15-6.675 25.5-10.013 40.051-10.013 16.499 0 30.374 4.2 41.623 12.6 11.251 8.4 19.087 20.212 23.514 35.437l-21.489 5.064c-3.825-12.001-9.375-20.738-16.65-26.213-7.273-5.475-16.425-8.212-27.448-8.212-12.675 0-23.288 3.037-31.839 9.112-8.474 6.075-14.436 14.249-17.887 24.525-3.451 10.199-5.176 20.739-5.176 31.613 0 14.024 2.025 26.286 6.077 36.787 4.124 10.424 10.499 18.225 19.123 23.398 8.625 5.176 17.964 7.764 28.014 7.764 12.224 0 22.574-3.525 31.05-10.575 8.474-7.05 14.211-17.513 17.211-31.388zm46.126-61.65h20.25v51.638c6.449 0 10.949-1.236 13.499-3.712 2.627-2.476 6.451-9.677 11.476-21.601 3.973-9.449 7.199-15.675 9.674-18.675s5.325-5.025 8.55-6.075 8.399-1.574 15.524-1.574h4.05v16.763l-5.624-.113c-5.325 0-8.737.788-10.237 2.363-1.574 1.649-3.976 6.561-7.199 14.738-3.077 7.8-5.888 13.199-8.438 16.2s-6.487 5.737-11.814 8.212c8.701 2.324 17.252 10.424 25.651 24.3l22.162 37.012h-22.275l-21.599-37.012c-4.426-7.424-8.289-12.301-11.589-14.625-3.3-2.399-7.237-3.599-11.812-3.599v55.237h-20.25zm184.048 104.737c-7.498 6.374-14.738 10.875-21.711 13.501-6.899 2.624-14.326 3.937-22.275 3.937-13.125 0-23.214-3.187-30.264-9.564-7.05-6.449-10.573-14.661-10.573-24.637 0-5.85 1.311-11.174 3.937-15.974 2.698-4.874 6.188-8.776 10.46-11.699 4.352-2.926 9.226-5.138 14.625-6.638 3.976-1.05 9.976-2.063 18.002-3.039 16.348-1.948 28.388-4.273 36.111-6.973.074-2.775.113-4.539.113-5.289 0-8.248-1.912-14.062-5.737-17.436-5.176-4.575-12.864-6.863-23.063-6.863-9.526 0-16.576 1.687-21.151 5.064-4.498 3.3-7.836 9.188-10.012 17.661l-19.799-2.698c1.8-8.476 4.762-15.301 8.886-20.477 4.127-5.248 10.089-9.262 17.889-12.037 7.8-2.849 16.837-4.275 27.113-4.275 10.199 0 18.486 1.201 24.863 3.602 6.374 2.399 11.062 5.437 14.062 9.111 3 3.599 5.1 8.177 6.3 13.727.673 3.448 1.011 9.674 1.011 18.673v27c0 18.826.412 30.751 1.239 35.776.899 4.951 2.624 9.713 5.174 14.287h-21.151c-2.099-4.201-3.448-9.114-4.05-14.738zm-1.687-45.225c-7.35 3-18.376 5.55-33.075 7.649-8.325 1.201-14.213 2.552-17.661 4.05-3.451 1.5-6.113 3.715-7.987 6.638-1.876 2.852-2.813 6.039-2.813 9.564 0 5.399 2.025 9.9 6.075 13.499 4.124 3.599 10.125 5.399 17.999 5.399 7.8 0 14.738-1.687 20.813-5.061 6.075-3.451 10.537-8.138 13.389-14.062 2.173-4.575 3.261-11.325 3.261-20.25zm39.376-59.512h20.25v22.612c0 9.751.563 16.837 1.687 21.263 1.201 4.349 4.014 8.174 8.438 11.474 4.426 3.226 9.976 4.838 16.65 4.838 7.649 0 17.551-2.025 29.701-6.075v-54.113h20.25v119.475h-20.25v-48.151c-12.452 3.901-24.077 5.852-34.875 5.852-9.075 0-17.101-2.289-24.077-6.863-6.899-4.652-11.587-10.312-14.062-16.988-2.476-6.674-3.712-14.024-3.712-22.049zm205.537 104.737c-7.501 6.374-14.738 10.875-21.711 13.501-6.902 2.624-14.326 3.937-22.277 3.937-13.125 0-23.212-3.187-30.262-9.564-7.05-6.449-10.575-14.661-10.575-24.637 0-5.85 1.313-11.174 3.937-15.974 2.701-4.874 6.188-8.776 10.463-11.699 4.349-2.926 9.226-5.138 14.625-6.638 3.976-1.05 9.976-2.063 17.999-3.039 16.351-1.948 28.388-4.273 36.114-6.973.074-2.775.113-4.539.113-5.289 0-8.248-1.912-14.062-5.737-17.436-5.176-4.575-12.864-6.863-23.063-6.863-9.526 0-16.576 1.687-21.151 5.064-4.5 3.3-7.836 9.188-10.012 17.661l-19.799-2.698c1.8-8.476 4.762-15.301 8.886-20.477 4.127-5.248 10.089-9.262 17.889-12.037 7.798-2.849 16.837-4.275 27.11-4.275 10.202 0 18.488 1.201 24.863 3.602 6.377 2.399 11.064 5.437 14.062 9.111 3 3.599 5.102 8.177 6.3 13.727.676 3.448 1.014 9.674 1.014 18.673v27c0 18.826.412 30.751 1.236 35.776.901 4.951 2.627 9.713 5.176 14.287h-21.151c-2.099-4.201-3.451-9.114-4.05-14.738zm-1.687-45.225c-7.35 3-18.376 5.55-33.075 7.649-8.325 1.201-14.213 2.552-17.661 4.05-3.451 1.5-6.113 3.715-7.99 6.638-1.874 2.852-2.811 6.039-2.811 9.564 0 5.399 2.025 9.9 6.075 13.499 4.124 3.599 10.125 5.399 17.999 5.399 7.8 0 14.738-1.687 20.813-5.061 6.075-3.451 10.537-8.138 13.386-14.062 2.176-4.575 3.264-11.325 3.264-20.25zm35.886-59.512h97.088v16.763h-38.474V384h-20.137V281.288h-38.477zm116.101 0h20.25v46.687h25.651c16.724 0 29.586 3.264 38.587 9.789 9.075 6.449 13.612 15.373 13.612 26.775 0 9.974-3.786 18.524-11.361 25.649-7.501 7.05-19.538 10.575-36.114 10.575h-50.624zm20.25 102.825h21.263c12.826 0 21.975-1.574 27.448-4.726 5.476-3.149 8.212-8.061 8.212-14.735 0-5.176-2.025-9.789-6.075-13.839s-13.012-6.075-26.888-6.075h-23.962zm164.475-102.825h46.687c11.476 0 19.988.975 25.539 2.926 5.624 1.874 10.424 5.361 14.4 10.463 4.05 5.1 6.075 11.21 6.075 18.337 0 5.699-1.201 10.685-3.599 14.961-2.324 4.201-5.85 7.726-10.575 10.575 5.624 1.876 10.276 5.402 13.949 10.575 3.75 5.1 5.624 11.174 5.624 18.225-.748 11.325-4.8 19.725-12.15 25.201S2035.787 384 2021.764 384h-53.888zm20.249 50.288h21.601c8.625 0 14.548-.451 17.774-1.352 3.226-.899 6.113-2.698 8.663-5.399 2.55-2.775 3.825-6.075 3.825-9.9 0-6.3-2.25-10.688-6.751-13.164-4.424-2.476-12.037-3.712-22.838-3.712h-22.275zm0 52.537h26.662c11.476 0 19.351-1.313 23.626-3.937 4.275-2.701 6.525-7.311 6.751-13.837 0-3.825-1.239-7.35-3.715-10.575-2.473-3.3-5.699-5.363-9.674-6.188-3.976-.901-10.35-1.349-19.126-1.349h-24.525z"/>
</symbol><symbol id="icon-button-google-play-ru" viewBox="0 0 3277 1024">
    <title/>
    <path d="M102.4 12.8h3072c49.485 0 89.6 40.115 89.6 89.6v819.2c0 49.485-40.115 89.6-89.6 89.6h-3072c-49.485 0-89.6-40.115-89.6-89.6V102.4c0-49.485 40.115-89.6 89.6-89.6z"/>
    <path d="M291.625 213.806c-6.707 7.091-10.675 18.099-10.675 32.384v509.542c0 14.285 3.968 25.267 10.675 32.358L578.78 500.935z"/>
    <path d="M293.315 212.144l-1.69 1.664c.563-.589 1.357-.845 1.946-1.408z"/>
    <path d="M293.34 789.757l.256-.256c-.614-.538-1.408-.794-1.971-1.408z"/>
    <path d="M788.828 467.707L676.06 403.656l-97.28 97.28 97.28 97.331-2.176 1.254 2.176-1.229 112.742-64.051c32.23-18.304 32.23-48.23.026-66.534z"/>
    <path d="M578.78 500.938L291.625 788.093c.563.614 1.357.87 1.971 1.408 10.752 9.626 27.213 10.624 45.901 0l336.589-191.232z"/>
    <path d="M578.78 500.961l97.306-97.331-336.589-191.232c-18.688-10.624-35.2-9.626-45.926 0-.589.563-1.382.819-1.946 1.408z"/>
    <path d="M1433.674 569.165c-54.195 0-98.355 41.19-98.355 97.997 0 56.422 44.16 97.997 98.355 97.997s98.355-41.574 98.355-97.997c0-56.781-44.16-97.997-98.355-97.997zm0 157.389c-29.696 0-55.296-24.499-55.296-59.392 0-35.251 25.6-59.392 55.296-59.392s55.296 24.115 55.296 59.392c.026 34.893-25.6 59.392-55.296 59.392z"/>
    <path d="M1648.256 569.165c-54.195 0-98.355 41.19-98.355 97.997 0 56.422 44.16 97.997 98.355 97.997s98.355-41.574 98.355-97.997c.026-56.781-44.16-97.997-98.355-97.997zm0 157.389c-29.696 0-55.296-24.499-55.296-59.392 0-35.251 25.626-59.392 55.296-59.392s55.296 24.115 55.296 59.392c.026 34.893-25.6 59.392-55.296 59.392z"/>
    <path d="M2585.216 471.194h-42.985V759.22h42.985z"/>
    <path d="M1178.419 599.27v41.549h99.482c-2.97 23.373-10.752 40.448-22.656 52.326-14.464 14.464-37.12 30.438-76.826 30.438-61.235 0-109.133-49.357-109.133-110.618s47.872-110.618 109.133-110.618c33.05 0 57.165 13.005 74.982 29.696l29.312-29.312c-24.858-23.757-57.907-41.933-104.294-41.933-83.891 0-154.419 68.301-154.419 152.192s70.528 152.192 154.419 152.192c45.286 0 79.437-14.848 106.163-42.675 27.469-27.469 36.019-66.074 36.019-97.254 0-9.651-.742-18.56-2.227-25.984z"/>
    <path d="M2690.816 568.653c-31.13 0-63.36 13.722-76.698 44.109l38.17 15.923c8.141-15.923 23.347-21.12 39.27-21.12 22.221 0 44.826 13.338 45.21 37.043v2.97c-7.782-4.454-24.448-11.11-44.826-11.11-41.139 0-82.995 22.605-82.995 64.845 0 38.528 33.715 63.36 71.526 63.36 28.902 0 44.826-12.979 54.835-28.16h1.485v22.221h41.498V648.296c-.026-51.123-38.195-79.642-87.475-79.642zm-5.197 157.849c-14.08 0-33.715-7.04-33.715-24.448 0-22.221 24.448-30.746 45.568-30.746 18.893 0 27.802 4.07 39.27 9.626-3.302 26.675-26.291 45.568-51.123 45.568z"/>
    <path d="M2880.179 699.827h-1.485l-51.123-124.877h-46.31l76.698 174.541-43.725 97.075h44.826l118.221-271.616h-47.821z"/>
    <path d="M1911.683 591.078h-1.51c-9.651-11.494-28.211-21.888-51.584-21.888-48.998 0-93.901 43.059-93.901 98.355 0 54.938 44.902 97.613 93.901 97.613 23.373 0 41.933-10.394 51.584-22.272h1.485v14.106c0 37.478-20.045 57.523-52.326 57.523-26.342 0-42.675-18.918-49.357-34.893l-37.478 15.59c10.752 25.984 39.347 57.907 86.861 57.907 50.483 0 93.158-29.696 93.158-102.067V575.103h-40.832zm-49.408 135.476c-29.696 0-54.554-24.858-54.554-59.008 0-34.509 24.883-59.75 54.554-59.75 29.312 0 52.326 25.242 52.326 59.75.026 34.15-22.989 59.008-52.326 59.008z"/>
    <path d="M2424.015 471.194h-103.014V759.22h42.982V650.087h60.032c47.667 0 94.49-34.509 94.49-89.446s-46.822-89.446-94.49-89.446zm1.127 138.803h-61.158v-98.739h61.133c32.154 0 50.406 26.624 50.406 49.357 0 22.349-18.253 49.382-50.381 49.382z"/>
    <path d="M2025.242 471.194h-43.059V759.22h43.059z"/>
    <path d="M2222.339 631.526c-8.166-21.888-33.024-62.362-83.891-62.362-50.483 0-92.416 39.706-92.416 97.997 0 54.938 41.574 97.997 97.254 97.997 44.902 0 70.886-27.469 81.664-43.418l-33.408-22.272c-11.136 16.333-26.342 27.085-48.256 27.085s-37.478-10.035-47.514-29.696l131.021-54.195zm-133.632 32.666c-1.126-37.862 29.312-57.165 51.226-57.165 17.075 0 31.565 8.525 36.378 20.787z"/>
    <path d="M1159.45 326.175l21.827 5.512c-4.577 17.925-12.826 31.613-24.75 41.062-11.85 9.377-26.363 14.065-43.538 14.065-17.777 0-32.251-3.602-43.425-10.801-11.1-7.276-19.576-17.774-25.426-31.501-5.775-13.724-8.663-28.462-8.663-44.211 0-17.175 3.264-32.138 9.789-44.888 6.6-12.825 15.936-22.537 28.012-29.137 12.15-6.675 25.5-10.013 40.051-10.013 16.499 0 30.374 4.2 41.623 12.6 11.251 8.4 19.087 20.212 23.514 35.437l-21.489 5.064c-3.825-12.001-9.375-20.738-16.65-26.213-7.273-5.475-16.425-8.212-27.448-8.212-12.675 0-23.288 3.037-31.839 9.112-8.474 6.075-14.436 14.249-17.887 24.525-3.451 10.199-5.176 20.739-5.176 31.613 0 14.024 2.025 26.286 6.077 36.787 4.124 10.424 10.499 18.225 19.123 23.398 8.625 5.176 17.964 7.764 28.014 7.764 12.224 0 22.574-3.525 31.05-10.575 8.474-7.05 14.211-17.513 17.211-31.388zm46.126-61.65h20.25v51.638c6.449 0 10.949-1.236 13.499-3.712 2.627-2.476 6.451-9.677 11.476-21.601 3.973-9.449 7.199-15.675 9.674-18.675s5.325-5.025 8.55-6.075 8.399-1.574 15.524-1.574h4.05v16.763l-5.624-.113c-5.325 0-8.737.788-10.237 2.363-1.574 1.649-3.976 6.561-7.199 14.738-3.077 7.8-5.888 13.199-8.438 16.2s-6.487 5.737-11.814 8.212c8.701 2.324 17.252 10.424 25.651 24.3l22.162 37.012h-22.275l-21.599-37.012c-4.426-7.424-8.289-12.301-11.589-14.625-3.3-2.399-7.237-3.599-11.812-3.599v55.237h-20.25zm184.048 104.737c-7.498 6.374-14.738 10.875-21.711 13.501-6.899 2.624-14.326 3.937-22.275 3.937-13.125 0-23.214-3.187-30.264-9.564-7.05-6.449-10.573-14.661-10.573-24.637 0-5.85 1.311-11.174 3.937-15.974 2.698-4.874 6.188-8.776 10.46-11.699 4.352-2.926 9.226-5.138 14.625-6.638 3.976-1.05 9.976-2.063 18.002-3.039 16.348-1.948 28.388-4.273 36.111-6.973.074-2.775.113-4.539.113-5.289 0-8.248-1.912-14.062-5.737-17.436-5.176-4.575-12.864-6.863-23.063-6.863-9.526 0-16.576 1.687-21.151 5.064-4.498 3.3-7.836 9.188-10.012 17.661l-19.799-2.698c1.8-8.476 4.762-15.301 8.886-20.477 4.127-5.248 10.089-9.262 17.889-12.037 7.8-2.849 16.837-4.275 27.113-4.275 10.199 0 18.486 1.201 24.863 3.602 6.374 2.399 11.062 5.437 14.062 9.111 3 3.599 5.1 8.177 6.3 13.727.673 3.448 1.011 9.674 1.011 18.673v27c0 18.826.412 30.751 1.239 35.776.899 4.951 2.624 9.713 5.174 14.287h-21.151c-2.099-4.201-3.448-9.114-4.05-14.738zm-1.687-45.225c-7.35 3-18.376 5.55-33.075 7.649-8.325 1.201-14.213 2.552-17.661 4.05-3.451 1.5-6.113 3.715-7.987 6.638-1.876 2.852-2.813 6.039-2.813 9.564 0 5.399 2.025 9.9 6.075 13.499 4.124 3.599 10.125 5.399 17.999 5.399 7.8 0 14.738-1.687 20.813-5.061 6.075-3.451 10.537-8.138 13.389-14.062 2.173-4.575 3.261-11.325 3.261-20.25zm39.376-59.512h20.25v22.612c0 9.751.563 16.837 1.687 21.263 1.201 4.349 4.014 8.174 8.438 11.474 4.426 3.226 9.976 4.838 16.65 4.838 7.649 0 17.551-2.025 29.701-6.075v-54.113h20.25v119.475h-20.25v-48.151c-12.452 3.901-24.077 5.852-34.875 5.852-9.075 0-17.101-2.289-24.077-6.863-6.899-4.652-11.587-10.312-14.062-16.988-2.476-6.674-3.712-14.024-3.712-22.049zm205.537 104.737c-7.501 6.374-14.738 10.875-21.711 13.501-6.902 2.624-14.326 3.937-22.277 3.937-13.125 0-23.212-3.187-30.262-9.564-7.05-6.449-10.575-14.661-10.575-24.637 0-5.85 1.313-11.174 3.937-15.974 2.701-4.874 6.188-8.776 10.463-11.699 4.349-2.926 9.226-5.138 14.625-6.638 3.976-1.05 9.976-2.063 17.999-3.039 16.351-1.948 28.388-4.273 36.114-6.973.074-2.775.113-4.539.113-5.289 0-8.248-1.912-14.062-5.737-17.436-5.176-4.575-12.864-6.863-23.063-6.863-9.526 0-16.576 1.687-21.151 5.064-4.5 3.3-7.836 9.188-10.012 17.661l-19.799-2.698c1.8-8.476 4.762-15.301 8.886-20.477 4.127-5.248 10.089-9.262 17.889-12.037 7.798-2.849 16.837-4.275 27.11-4.275 10.202 0 18.488 1.201 24.863 3.602 6.377 2.399 11.064 5.437 14.062 9.111 3 3.599 5.102 8.177 6.3 13.727.676 3.448 1.014 9.674 1.014 18.673v27c0 18.826.412 30.751 1.236 35.776.901 4.951 2.627 9.713 5.176 14.287h-21.151c-2.099-4.201-3.451-9.114-4.05-14.738zm-1.687-45.225c-7.35 3-18.376 5.55-33.075 7.649-8.325 1.201-14.213 2.552-17.661 4.05-3.451 1.5-6.113 3.715-7.99 6.638-1.874 2.852-2.811 6.039-2.811 9.564 0 5.399 2.025 9.9 6.075 13.499 4.124 3.599 10.125 5.399 17.999 5.399 7.8 0 14.738-1.687 20.813-5.061 6.075-3.451 10.537-8.138 13.386-14.062 2.176-4.575 3.264-11.325 3.264-20.25zm35.886-59.512h97.088v16.763h-38.474V384h-20.137V281.288h-38.477zm116.101 0h20.25v46.687h25.651c16.724 0 29.586 3.264 38.587 9.789 9.075 6.449 13.612 15.373 13.612 26.775 0 9.974-3.786 18.524-11.361 25.649-7.501 7.05-19.538 10.575-36.114 10.575h-50.624zm20.25 102.825h21.263c12.826 0 21.975-1.574 27.448-4.726 5.476-3.149 8.212-8.061 8.212-14.735 0-5.176-2.025-9.789-6.075-13.839s-13.012-6.075-26.888-6.075h-23.962zm164.475-102.825h46.687c11.476 0 19.988.975 25.539 2.926 5.624 1.874 10.424 5.361 14.4 10.463 4.05 5.1 6.075 11.21 6.075 18.337 0 5.699-1.201 10.685-3.599 14.961-2.324 4.201-5.85 7.726-10.575 10.575 5.624 1.876 10.276 5.402 13.949 10.575 3.75 5.1 5.624 11.174 5.624 18.225-.748 11.325-4.8 19.725-12.15 25.201S2035.787 384 2021.764 384h-53.888zm20.249 50.288h21.601c8.625 0 14.548-.451 17.774-1.352 3.226-.899 6.113-2.698 8.663-5.399 2.55-2.775 3.825-6.075 3.825-9.9 0-6.3-2.25-10.688-6.751-13.164-4.424-2.476-12.037-3.712-22.838-3.712h-22.275zm0 52.537h26.662c11.476 0 19.351-1.313 23.626-3.937 4.275-2.701 6.525-7.311 6.751-13.837 0-3.825-1.239-7.35-3.715-10.575-2.473-3.3-5.699-5.363-9.674-6.188-3.976-.901-10.35-1.349-19.126-1.349h-24.525z"/>
</symbol><symbol id="icon-catalog" viewBox="0 0 1024 1024">
    <title/>
    <path d="M906.351 298.666L725.333 479.684 544.311 298.666l181.022-181.019zm-422.379-60.339c-33.327 33.324-33.327 87.355 0 120.679L664.99 540.028c33.327 33.323 87.36 33.323 120.683 0l181.018-181.022c33.323-33.324 33.323-87.355 0-120.679L785.673 57.308c-33.323-33.325-87.356-33.325-120.683 0z"/>
    <path d="M298.667 170.667c23.564 0 42.667 19.103 42.667 42.667v170.667c0 23.565-19.103 42.667-42.667 42.667H128c-23.564 0-42.667-19.102-42.667-42.667V213.334c0-23.564 19.103-42.667 42.667-42.667h170.667zM128 85.333c-70.692 0-128 57.308-128 128V384c0 70.694 57.308 128 128 128h170.667c70.692 0 128-57.306 128-128V213.333c0-70.692-57.308-128-128-128z"/>
    <path d="M298.667 682.667c23.564 0 42.667 19.102 42.667 42.667v170.667c0 23.565-19.103 42.667-42.667 42.667H128c-23.564 0-42.667-19.102-42.667-42.667V725.334c0-23.565 19.103-42.667 42.667-42.667h170.667zM128 597.333c-70.692 0-128 57.306-128 128V896c0 70.694 57.308 128 128 128h170.667c70.692 0 128-57.306 128-128V725.333c0-70.694-57.308-128-128-128z"/>
    <path d="M810.667 682.667c23.565 0 42.667 19.102 42.667 42.667v170.667c0 23.565-19.102 42.667-42.667 42.667H640c-23.565 0-42.667-19.102-42.667-42.667V725.334c0-23.565 19.102-42.667 42.667-42.667h170.667zM640 597.333c-70.694 0-128 57.306-128 128V896c0 70.694 57.306 128 128 128h170.667c70.694 0 128-57.306 128-128V725.333c0-70.694-57.306-128-128-128z"/>
</symbol><symbol id="icon-facebook" viewBox="0 0 1024 1024">
    <title/>
    <path d="M1024.016 512.008c0 282.774-229.234 512.008-512.008 512.008S0 794.782 0 512.008 229.234 0 512.008 0s512.008 229.234 512.008 512.008z"/>
    <path d="M574.345 352.454h66.001v-97.49h-77.569v.352c-93.953 3.328-113.25 56.161-114.946 111.666h-.176v48.641H383.67v95.489h63.985v255.86h96.466v-255.86h79.009l15.216-95.489h-94.225v-29.376c0-18.72 12.448-33.793 30.224-33.793z"/>
</symbol><symbol id="icon-for-home" viewBox="0 0 1024 1024">
    <title/>
    <path d="M213.333 256c0-70.692 57.308-128 128-128H640c70.694 0 128 57.308 128 128v341.333h-85.333V256c0-23.564-19.102-42.667-42.667-42.667H341.333c-23.564 0-42.667 19.103-42.667 42.667v341.333h-85.333V256z"/>
    <path d="M469.333 298.667c0 23.564-19.103 42.667-42.667 42.667s-42.667-19.103-42.667-42.667S403.102 256 426.666 256s42.667 19.103 42.667 42.667z"/>
    <path d="M597.333 298.667c0 23.564-19.103 42.667-42.667 42.667s-42.667-19.103-42.667-42.667S531.102 256 554.666 256s42.667 19.103 42.667 42.667z"/>
    <path d="M469.333 426.667c0 23.564-19.103 42.667-42.667 42.667s-42.667-19.103-42.667-42.667S403.102 384 426.666 384s42.667 19.103 42.667 42.667z"/>
    <path d="M597.333 426.667c0 23.564-19.103 42.667-42.667 42.667s-42.667-19.103-42.667-42.667S531.102 384 554.666 384s42.667 19.103 42.667 42.667z"/>
    <path d="M213.333 512v298.667h-42.667V512h42.667zm-42.666-85.333c-47.128 0-85.333 38.205-85.333 85.333v384h213.333V512c0-47.128-38.205-85.333-85.333-85.333h-42.667z"/>
    <path d="M682.667 640v170.667h-384V640h384zm-469.334-85.333V896H768V554.667H213.333z"/>
    <path d="M810.667 512v298.667H768V512h42.667zM768 426.667c-47.128 0-85.333 38.205-85.333 85.333v384H896V512c0-47.128-38.205-85.333-85.333-85.333H768z"/>
    <path d="M170.667 853.333H256v85.333h-85.333v-85.333z"/>
    <path d="M725.333 853.333h85.333v85.333h-85.333v-85.333z"/>
</symbol><symbol id="icon-for-kids" viewBox="0 0 24 24">
    <title/>
    <path d="M286.613 407.55l-42.991-36.379c-16.391-13.87-30.289-39.555-30.289-72.505 0-58.904 39.059-85.333 62.75-85.333 15.528 0 34.115 8.705 48.059 31.149l38.873 62.565 67.572-29.316C462.901 263.712 498.196 256 535.291 256c36.224 0 70.699 7.345 102.366 20.728l66.62 28.152 38.69-61.101c13.884-21.92 32.213-30.446 47.573-30.446 23.748 0 62.793 26.446 62.793 85.333 0 31.975-13.103 57.181-28.924 71.311l-41.126 36.727 16.585 52.586c9.387 29.761 14.507 61.804 14.507 95.377 0 169.212-129.114 298.667-279.083 298.667S256.208 723.879 256.208 554.667c0-32.771 4.889-64.099 13.859-93.284l16.545-53.832zm110.012-208.102C369.75 156.193 325.792 128 276.083 128 194.291 128 128 204.411 128 298.667c0 56.495 23.792 106.583 60.5 137.646-11.459 37.281-17.625 77.057-17.625 118.354 0 212.079 163.167 384 364.417 384s364.416-171.921 364.416-384c0-42.292-6.46-82.99-18.458-121.041 34.957-31.219 57.417-80.063 57.417-134.959 0-94.255-66.291-170.667-148.126-170.667-49.165 0-92.749 27.62-119.667 70.125-41.916-17.713-87.667-27.458-135.582-27.458-49.083 0-95.917 10.234-138.667 28.781z"/>
    <path d="M597.333 576c0 35.346-28.654 64-64 64s-64-28.654-64-64c0-35.346 28.654-64 64-64s64 28.654 64 64z"/>
    <path d="M682.667 426.667c0 23.564-19.103 42.667-42.667 42.667s-42.667-19.103-42.667-42.667S616.436 384 640 384s42.667 19.103 42.667 42.667z"/>
    <path d="M469.333 426.667c0 23.564-19.103 42.667-42.667 42.667s-42.667-19.103-42.667-42.667S403.102 384 426.666 384s42.667 19.103 42.667 42.667z"/>
</symbol><symbol id="icon-gamers" viewBox="0 0 1024 1024">
    <title/>
    <path d="M298.667 298.667V384h-85.333v85.333h85.333v85.333H384v-85.333h85.333V384H384v-85.333h-85.333z"/>
    <path d="M682.667 384c23.565 0 42.667-19.103 42.667-42.667s-19.102-42.667-42.667-42.667S640 317.769 640 341.333 659.102 384 682.667 384z"/>
    <path d="M725.333 512c0 23.565-19.102 42.667-42.667 42.667S639.999 535.565 639.999 512s19.102-42.667 42.667-42.667 42.667 19.102 42.667 42.667z"/>
    <path d="M597.333 469.333c23.565 0 42.667-19.102 42.667-42.667s-19.102-42.667-42.667-42.667-42.667 19.103-42.667 42.667 19.102 42.667 42.667 42.667z"/>
    <path d="M810.667 426.667c0 23.565-19.102 42.667-42.667 42.667s-42.667-19.102-42.667-42.667C725.333 403.103 744.435 384 768 384s42.667 19.103 42.667 42.667z"/>
    <path d="M93.806 900.237c46.488 23.245 102.417 16.068 141.532-18.159l136.181-119.155c80.432-70.379 200.53-70.379 280.961 0l136.183 119.155c39.113 34.227 95.044 41.404 141.53 18.159l13.427-6.711c48.235-24.119 76.181-75.883 69.879-129.442l-57.101-485.358C946.286 192.776 873.445 128 786.9 128h-74.018a128 128 0 0 0-57.242 13.513l-86.4 43.198a127.99 127.99 0 0 1-114.483 0l-86.398-43.198A127.995 127.995 0 0 0 311.116 128h-74.018C150.555 128 77.712 192.776 67.6 278.726L10.499 764.079c-6.301 53.564 21.644 105.327 69.88 129.446l13.425 6.711zm513.601-639.201l86.396-43.198a42.667 42.667 0 0 1 19.081-4.504h74.018c43.273 0 79.693 32.388 84.749 75.363l57.101 485.354c2.099 17.856-7.215 35.11-23.292 43.149l-13.427 6.711a42.665 42.665 0 0 1-47.177-6.05L708.673 698.702c-112.602-98.53-280.738-98.53-393.345 0L179.147 817.861a42.665 42.665 0 0 1-47.177 6.05l-13.426-6.711c-16.079-8.038-25.393-25.293-23.293-43.149l57.1-485.354c5.056-42.975 41.478-75.363 84.749-75.363h74.018a42.667 42.667 0 0 1 19.081 4.504l86.397 43.198a213.333 213.333 0 0 0 190.812 0z"/>
</symbol><symbol id="icon-garden" viewBox="0 0 1024 1024">
    <title/>
    <path d="M256 341.333h85.333v597.333H256V341.333z"/>
    <path d="M640 128h85.333v597.333H640V128z"/>
    <path d="M85.333 341.333V256H512v85.333H85.333z"/>
    <path d="M469.333 512H896v213.333c0 35.272-10.231 87.23-42.175 131.597-33.51 46.542-88.986 81.737-171.159 81.737s-137.649-35.194-171.159-81.737c-31.944-44.367-42.175-96.325-42.175-131.597V512zm85.334 85.333v128c0 21.617 6.836 54.992 26.092 81.737 17.69 24.569 47.547 46.263 101.908 46.263s84.218-21.695 101.908-46.263c19.256-26.745 26.092-60.12 26.092-81.737v-128h-256z"/>
    <path d="M85.333 128h85.333v128H85.333V128z"/>
    <path d="M256 128h85.333v128H256V128z"/>
    <path d="M426.667 128H512v128h-85.333V128z"/>
</symbol><symbol id="icon-heart" viewBox="0 0 24 24">
    <path d="M681.6 166C614 166 552 197.6 512 249.6c-40-52-102-83.6-169.6-83.6C224.2 166 128 262.6 128 381.4c0 55.8 21.2 108.8 59.8 149.2L512 858l318.4-321.6c42-40.6 65.6-95.8 65.6-155C896 262.6 799.8 166 681.6 166z"/>
</symbol><symbol id="icon-help-center" viewBox="0 0 1024 1024">
    <title/>
    <path d="M426.667 384c0-14.506 4.702-37.214 17.557-55.07 11.29-15.68 30.481-30.263 67.776-30.263s56.486 14.583 67.776 30.263c12.855 17.856 17.557 40.564 17.557 55.07 0 28.469-16.631 43.255-56.798 71.949l-3.588 2.556C502.165 483.247 448 521.788 448 597.334c0 23.565 19.102 42.667 42.667 42.667s42.667-19.102 42.667-42.667c0-28.471 16.631-43.255 56.798-71.949l3.588-2.556c34.782-24.742 88.947-63.283 88.947-138.829 0-28.161-8.098-69.453-33.643-104.93-27.11-37.653-71.919-65.737-137.024-65.737s-109.915 28.083-137.025 65.737c-25.544 35.477-33.641 76.769-33.641 104.93 0 23.564 19.103 42.667 42.667 42.667s42.667-19.103 42.667-42.667z"/>
    <path d="M533.333 725.333c0-23.565-19.102-42.667-42.667-42.667s-42.667 19.102-42.667 42.667v21.333c0 23.565 19.102 42.667 42.667 42.667s42.667-19.102 42.667-42.667z"/>
    <path d="M981.333 512c0-259.206-210.129-469.333-469.333-469.333C252.794 42.667 42.667 252.795 42.667 512c0 259.204 210.128 469.333 469.333 469.333S981.333 771.204 981.333 512zM896 512c0 212.079-171.921 384-384 384-212.077 0-384-171.921-384-384 0-212.077 171.923-384 384-384 212.079 0 384 171.923 384 384z"/>
</symbol><symbol id="icon-instagram" viewBox="0 0 1024 1024">
    <title/>
    <path d="M512 0c281.6 0 512 230.4 512 512s-230.4 512-512 512S0 793.6 0 512 230.4 0 512 0z"/>
    <path d="M662.4 192h-304C265.6 192 192 268.8 192 364.8v294.4c0 92.8 73.6 169.6 169.6 172.8h304c92.8 0 169.6-76.8 169.6-172.8V364.8C832 268.8 758.4 192 662.4 192zm112 464c0 64-51.2 118.4-118.4 118.4H364.8c-64 0-118.4-54.4-115.2-118.4V368c0-64 51.2-118.4 115.2-118.4H656c64 0 118.4 54.4 118.4 118.4v288z"/>
    <path d="M512 348.8c-89.6-3.2-166.4 70.4-166.4 160-3.2 89.6 70.4 166.4 160 166.4S672 604.8 672 515.2V512c3.2-89.6-70.4-163.2-160-163.2zm0 268.8c-57.6 0-105.6-44.8-108.8-102.4 0-57.6 44.8-105.6 102.4-108.8s105.6 44.8 108.8 102.4v3.2c3.2 57.6-44.8 105.6-102.4 105.6z"/>
    <path d="M681.6 300.8c19.2 0 35.2 16 35.2 38.4s-16 38.4-35.2 38.4-35.2-16-35.2-38.4 16-38.4 35.2-38.4z"/>
</symbol><symbol id="icon-instruments" viewBox="0 0 1024 1024">
    <title/>
    <path d="M469.333 768v85.333h-256V768h256zm-256-85.333C166.205 682.667 128 720.872 128 768v85.333c0 47.128 38.205 85.333 85.333 85.333h256c47.128 0 85.333-38.205 85.333-85.333V768c0-47.128-38.205-85.333-85.333-85.333h-256z"/>
    <path d="M554.667 213.333c23.565 0 42.667 19.103 42.667 42.667v128c0 23.564-19.102 42.667-42.667 42.667H256c-23.564 0-42.667-19.103-42.667-42.667V256c0-23.564 19.103-42.667 42.667-42.667h298.667zM256 128c-70.692 0-128 57.308-128 128v128c0 70.692 57.308 128 128 128h298.667c70.694 0 128-57.308 128-128V256c0-70.692-57.306-128-128-128H256z"/>
    <path d="M768 298.667v42.667h-85.333v-42.667H768zm-85.333-85.334c-47.128 0-85.333 38.205-85.333 85.333v42.667c0 47.128 38.205 85.333 85.333 85.333H768c47.128 0 85.333-38.205 85.333-85.333v-42.667c0-47.128-38.205-85.333-85.333-85.333h-85.333z"/>
    <path d="M810.667 298.667h128v42.667h-128v-42.667z"/>
    <path d="M331.331 512l-21.333 170.667h41.339L372.67 512h-41.339zM256 426.667L213.333 768h213.333l42.667-341.333H256z"/>
</symbol><symbol id="icon-laptops" viewBox="0 0 1024 1024">
    <title/>
    <path d="M256 213.333h512V640H256V213.333zM213.333 128c-23.564 0-42.667 19.103-42.667 42.667v554.667h682.667V170.667c0-23.564-19.102-42.667-42.667-42.667H213.333z"/>
    <path d="M170.667 725.333h682.667v85.333H170.667v-85.333zM128 640c-23.564 0-42.667 19.103-42.667 42.667v170.667c0 23.564 19.103 42.667 42.667 42.667h768c23.565 0 42.667-19.103 42.667-42.667V682.667C938.667 659.103 919.565 640 896 640H128z"/>
    <path d="M512 298.667c0 23.564-19.103 42.667-42.667 42.667s-42.667-19.103-42.667-42.667S445.769 256 469.333 256 512 275.103 512 298.667z"/>
    <path d="M384 298.667c0 23.564-19.103 42.667-42.667 42.667s-42.667-19.103-42.667-42.667S317.769 256 341.333 256 384 275.103 384 298.667z"/>
    <path d="M384 426.667c0 23.564-19.103 42.667-42.667 42.667s-42.667-19.103-42.667-42.667S317.769 384 341.333 384 384 403.103 384 426.667z"/>
</symbol><symbol id="icon-login" viewBox="0 0 1024 1024">
    <title/>
    <path d="M768 320c0-141.385-114.615-256-256-256-141.387 0-256.002 114.615-256.002 256S370.613 576 512 576c141.385 0 256-114.615 256-256zm-85.333 0c0 94.257-76.412 170.667-170.667 170.667-94.258 0-170.669-76.41-170.669-170.667S417.741 149.333 512 149.333c94.255 0 170.667 76.41 170.667 170.667z"/>
    <path d="M63.998 960c38.909 17.51 38.892 17.549 38.892 17.549l.049-.102c.121-.256.352-.742.698-1.446a196.518 196.518 0 0 1 3.459-6.643c3.247-5.982 8.388-14.865 15.603-25.69 14.459-21.687 37.059-50.876 69.2-80.098C255.652 805.616 357.738 746.668 512 746.668c154.257 0 256.346 58.948 320.098 116.902 32.141 29.222 54.741 58.411 69.201 80.098 7.215 10.825 12.352 19.708 15.603 25.69a196.029 196.029 0 0 1 3.456 6.643c.346.704.58 1.19.7 1.446l.047.102S921.088 977.511 960 960c38.908-17.51 38.886-17.553 38.886-17.553l-.021-.051-.055-.115-.137-.307-.414-.887c-.337-.713-.794-1.664-1.374-2.837a276.368 276.368 0 0 0-4.988-9.604c-4.356-8.017-10.812-19.136-19.597-32.311-17.545-26.313-44.544-61.124-82.803-95.902-77.043-70.046-198.959-139.098-377.498-139.098-178.542 0-300.456 69.052-377.503 139.098-38.259 34.778-65.259 69.589-82.8 95.902-8.785 13.175-15.245 24.294-19.597 32.311a281.07 281.07 0 0 0-4.991 9.604 179.002 179.002 0 0 0-1.371 2.837l-.413.887-.14.307-.053.115-.023.051s-.02.043 38.889 17.553z"/>
</symbol><symbol id="icon-mastercard" viewBox="0 0 2304 1024">
    <title/>
    <path d="M284.747 610.746a148.484 148.484 0 0 0-34.086-16.026 120.712 120.712 0 0 0-37.146-5.715 95.632 95.632 0 0 0-23.234 2.65 57.502 57.502 0 0 0-18.086 7.664 37.621 37.621 0 0 0-11.686 11.984 30.144 30.144 0 0 0-4.174 15.747 24.697 24.697 0 0 0 3.617 13.936 29.498 29.498 0 0 0 10.434 9.478 67.325 67.325 0 0 0 16.556 6.41 210.281 210.281 0 0 0 22.121 4.32l17.53 2.368a193.059 193.059 0 0 1 30.051 6.691 91.57 91.57 0 0 1 26.156 12.682 62.676 62.676 0 0 1 18.504 20.486 60.145 60.145 0 0 1 6.956 29.962 69.784 69.784 0 0 1-8.208 34.282 75.635 75.635 0 0 1-22.121 25.085 102.006 102.006 0 0 1-32.416 15.469 141.397 141.397 0 0 1-39.094 5.296c-8.948-.045-17.88-.79-26.712-2.23a187.03 187.03 0 0 1-27.825-6.41 165.2 165.2 0 0 1-25.043-10.733 111.243 111.243 0 0 1-22.121-14.909l22.121-32.752a81.603 81.603 0 0 0 15.721 11.149 137.667 137.667 0 0 0 41.738 14.774 123.222 123.222 0 0 0 22.399 2.09c7.764.099 15.513-.694 23.095-2.368a63.568 63.568 0 0 0 18.782-7.386 39.827 39.827 0 0 0 12.66-11.846 27.91 27.91 0 0 0 4.73-16.026 24.671 24.671 0 0 0-13.912-22.717 130.586 130.586 0 0 0-43.407-11.706l-19.756-2.787a153.82 153.82 0 0 1-27.825-6.55 80.156 80.156 0 0 1-24.068-12.822 61.831 61.831 0 0 1-17.112-20.765 65.139 65.139 0 0 1-6.956-30.099 70.9 70.9 0 0 1 7.93-33.866 73.82 73.82 0 0 1 21.564-24.944 98.711 98.711 0 0 1 31.86-15.331 138.934 138.934 0 0 1 38.955-5.296 160.232 160.232 0 0 1 50.224 7.389 172.991 172.991 0 0 1 41.737 20.067l-20.451 33.306zm138.427 19.51a82.24 82.24 0 0 1 33.251 6.688 74.467 74.467 0 0 1 25.878 18.675 87.61 87.61 0 0 1 16.835 28.848 108.778 108.778 0 0 1 6.122 37.21v14.214H376.15a56.674 56.674 0 0 0 6.678 20.205 47.491 47.491 0 0 0 11.827 13.936 46.457 46.457 0 0 0 15.443 7.946 61.672 61.672 0 0 0 17.808 2.509 75.702 75.702 0 0 0 26.154-4.88 84.66 84.66 0 0 0 24.07-13.936l18.781 27.178a94.448 94.448 0 0 1-33.808 19.091 128.165 128.165 0 0 1-37.702 5.434 95.967 95.967 0 0 1-35.894-6.547 81.526 81.526 0 0 1-27.824-18.538 83.588 83.588 0 0 1-18.365-28.845 103.57 103.57 0 0 1-6.538-37.629 104.943 104.943 0 0 1 6.397-37.21 85.27 85.27 0 0 1 17.808-28.986 79.177 79.177 0 0 1 27.827-18.675 90.372 90.372 0 0 1 34.362-6.829v.141zm-.694 33.866a49.33 49.33 0 0 0-18.086 3.066 39.21 39.21 0 0 0-13.914 8.778 46.53 46.53 0 0 0-9.318 13.936 64.747 64.747 0 0 0-5.149 17.28h90.154a54.389 54.389 0 0 0-13.914-31.632 40.31 40.31 0 0 0-29.91-11.568l.138.141zm201.594-33.866a94.123 94.123 0 0 1 36.448 6.97 73.452 73.452 0 0 1 27.827 20.762L664 683.911a72.916 72.916 0 0 0-19.197-13.936 52.78 52.78 0 0 0-22.541-4.598 50.369 50.369 0 0 0-20.31 4.042 48.403 48.403 0 0 0-16 12.122 52.846 52.846 0 0 0-10.851 17.562 67.534 67.534 0 0 0 0 45.29 52.82 52.82 0 0 0 10.851 17.699 48.532 48.532 0 0 0 16.278 11.427 50.402 50.402 0 0 0 20.31 4.042 53.733 53.733 0 0 0 23.651-5.434 74.758 74.758 0 0 0 19.2-12.96l23.514 26.896a76.87 76.87 0 0 1-28.659 20.765 92.829 92.829 0 0 1-36.314 6.966 97.213 97.213 0 0 1-37.565-6.966 83.573 83.573 0 0 1-47.302-48.637 104.416 104.416 0 0 1 0-72.746c8.195-21.942 25.203-39.437 46.886-48.218a97.246 97.246 0 0 1 37.981-7.11l.141.141zm259.465 104.797a83.697 83.697 0 0 1-6.954 35.677 69.702 69.702 0 0 1-18.086 24.387 72.668 72.668 0 0 1-25.741 13.936 101.519 101.519 0 0 1-59.546 0 73.498 73.498 0 0 1-25.875-13.936 67.701 67.701 0 0 1-18.086-24.387 85.07 85.07 0 0 1-6.816-35.677V634.717h38.118v97.549a61.73 61.73 0 0 0 3.2 21.325 37.228 37.228 0 0 0 9.043 13.936 34.239 34.239 0 0 0 13.914 7.942 58.047 58.047 0 0 0 33.389 0c5.2-1.51 9.968-4.23 13.914-7.942a37.216 37.216 0 0 0 9.043-13.936 61.636 61.636 0 0 0 3.338-21.325v-97.549h38.122l-.976 100.336zm138.432-104.797a94.144 94.144 0 0 1 15.718 1.254 68.472 68.472 0 0 1 13.914 3.763l-9.043 37.626a53.781 53.781 0 0 0-13.914-4.736 73.989 73.989 0 0 0-14.886-1.674 44.032 44.032 0 0 0-16.694 3.066 35.314 35.314 0 0 0-13.078 9.059 42.658 42.658 0 0 0-8.486 14.771 59.228 59.228 0 0 0-3.059 19.789v95.741h-38.678V634.717h37.565v19.648a52.188 52.188 0 0 1 21.565-18.394 69.481 69.481 0 0 1 28.938-5.856l.141.141zm127.299 0a82.25 82.25 0 0 1 33.251 6.688 74.484 74.484 0 0 1 25.875 18.675 87.69 87.69 0 0 1 17.53 28.848 108.862 108.862 0 0 1 6.122 37.21v14.214h-129.942a56.674 56.674 0 0 0 6.678 20.205 47.526 47.526 0 0 0 11.824 13.936 46.486 46.486 0 0 0 15.443 7.946 61.687 61.687 0 0 0 17.808 2.509 75.731 75.731 0 0 0 26.157-4.88 84.644 84.644 0 0 0 24.067-13.936l18.922 27.037a94.203 94.203 0 0 1-33.808 19.091 128.135 128.135 0 0 1-37.702 5.437 96.044 96.044 0 0 1-35.894-6.55 81.573 81.573 0 0 1-27.824-18.534 83.629 83.629 0 0 1-18.365-28.848 103.553 103.553 0 0 1-6.538-37.626 104.935 104.935 0 0 1 6.4-37.21 85.102 85.102 0 0 1 17.53-28.986 79.099 79.099 0 0 1 27.824-18.675 90.336 90.336 0 0 1 34.502-6.691l.141.141zm-.697 33.866a49.33 49.33 0 0 0-18.086 3.066 39.159 39.159 0 0 0-13.91 8.778 46.504 46.504 0 0 0-9.322 13.936 64.857 64.857 0 0 0-5.149 17.28h90.432a54.389 54.389 0 0 0-13.914-31.632 40.294 40.294 0 0 0-30.189-11.568l.138.141zm246.39-114.973a144.893 144.893 0 0 1 32.694 3.622 127.78 127.78 0 0 1 29.357 10.592 114.188 114.188 0 0 1 24.624 16.864 96.576 96.576 0 0 1 18.506 22.298l-34.227 22.854a83.491 83.491 0 0 0-29.91-26.896 85.337 85.337 0 0 0-41.738-9.757 94.35 94.35 0 0 0-35.894 6.691 83.412 83.412 0 0 0-27.824 18.95 87.294 87.294 0 0 0-18.784 29.267 107.332 107.332 0 0 0 0 75.254 87.282 87.282 0 0 0 18.784 29.264 83.483 83.483 0 0 0 27.824 18.954 94.296 94.296 0 0 0 35.894 6.688c28.253.621 54.902-13.117 70.813-36.512l33.392 24.528a109.756 109.756 0 0 1-19.2 21.462 119.51 119.51 0 0 1-23.651 16.723 126.862 126.862 0 0 1-28.659 10.31 148.918 148.918 0 0 1-85.702-6.41c-31.872-12.493-57.091-37.75-69.562-69.68a146.691 146.691 0 0 1 0-105.354c12.47-31.93 37.69-57.19 69.562-69.68a141.837 141.837 0 0 1 53.702-10.035zm223.991 80.55a97.305 97.305 0 0 1 37.286 6.966 91.02 91.02 0 0 1 29.635 19.232 88.418 88.418 0 0 1 19.616 28.989 96.99 96.99 0 0 1 0 72.742 88.418 88.418 0 0 1-19.616 28.989 91.02 91.02 0 0 1-29.635 19.232 102.791 102.791 0 0 1-74.57 0 89.917 89.917 0 0 1-29.635-19.232 88.957 88.957 0 0 1-20.032-28.429 97 97 0 0 1 0-72.746 88.913 88.913 0 0 1 19.475-28.989 89.871 89.871 0 0 1 29.635-19.229 97.236 97.236 0 0 1 37.981-7.11l-.141-.416zm0 35.815a56.4 56.4 0 0 0-21.562 4.042 50.913 50.913 0 0 0-17.251 11.427 53.527 53.527 0 0 0-11.411 17.558 63.526 63.526 0 0 0 0 45.293 53.512 53.512 0 0 0 11.411 17.558 51.104 51.104 0 0 0 17.251 11.427 59.02 59.02 0 0 0 43.126 0 51.653 51.653 0 0 0 28.938-28.566 63.494 63.494 0 0 0 0-45.293 52.618 52.618 0 0 0-11.546-17.558 52.005 52.005 0 0 0-17.392-11.427 56.346 56.346 0 0 0-21.424-4.042l-.141-.419zm207.715-35.815a65.756 65.756 0 0 1 54.675 25.642V546.64h37.981v262.134h-37.981v-20.902a67.057 67.057 0 0 1-22.538 18.534 69.456 69.456 0 0 1-32.138 6.966 84.643 84.643 0 0 1-61.632-25.779 87.616 87.616 0 0 1-18.502-29.405 104.252 104.252 0 0 1 0-73.584 87.832 87.832 0 0 1 18.502-28.986 84.658 84.658 0 0 1 61.632-25.782v-.138zm4.592 35.815a52.354 52.354 0 0 0-21.984 4.461 49.233 49.233 0 0 0-16.416 11.984 53.122 53.122 0 0 0-10.294 17.699 66.144 66.144 0 0 0 0 43.2 53.139 53.139 0 0 0 10.294 17.699 49.233 49.233 0 0 0 16.416 11.984 56.392 56.392 0 0 0 43.408 0 49.369 49.369 0 0 0 16.557-11.706 52.872 52.872 0 0 0 10.573-16.582 66.28 66.28 0 0 0 0-44.317 52.912 52.912 0 0 0-10.714-17.558 49.843 49.843 0 0 0-16.554-11.709 52.508 52.508 0 0 0-21.286-4.736v-.419zm214.253-35.815a82.14 82.14 0 0 1 33.251 6.688 74.288 74.288 0 0 1 25.875 18.675 87.528 87.528 0 0 1 16.835 28.848 108.59 108.59 0 0 1 6.122 37.206v14.218h-128.413a55.816 55.816 0 0 0 6.678 20.205 47.348 47.348 0 0 0 11.824 13.936 46.346 46.346 0 0 0 15.443 7.946 61.787 61.787 0 0 0 17.808 2.506 75.635 75.635 0 0 0 26.157-4.877 84.756 84.756 0 0 0 24.067-13.936l18.922 27.037a94.518 94.518 0 0 1-33.808 19.091 128.036 128.036 0 0 1-37.702 5.437 96.03 96.03 0 0 1-35.894-6.55 81.573 81.573 0 0 1-27.824-18.534 83.629 83.629 0 0 1-18.365-28.848 103.57 103.57 0 0 1-6.538-37.629 104.973 104.973 0 0 1 6.397-37.206 85.376 85.376 0 0 1 17.808-28.989 79.13 79.13 0 0 1 27.827-18.672 90.368 90.368 0 0 1 33.53-6.134v-.416zm100.307 178.659v-8.362h3.478v-1.814h-9.043v1.814h3.898v8.778l1.667-.416zm17.392 0v-10.592h-2.784l-3.2 7.245-3.2-7.245h-2.781v10.592h1.946v-7.946l2.925 6.829h1.946l2.922-6.829v7.946h2.227zm-118.397-144.796a49.27 49.27 0 0 0-18.086 3.069 39.159 39.159 0 0 0-13.91 8.778 46.504 46.504 0 0 0-9.322 13.936 64.967 64.967 0 0 0-5.149 17.28h90.154a54.387 54.387 0 0 0-13.914-32.051 40.313 40.313 0 0 0-29.773-10.592v-.419z"/>
    <path d="M409.488 449.786h-42.573V232.664l-76.937 191.061H245.18l-76.658-188.971v215.031h-42.85V185.978h65.25l76.658 188.553 76.52-188.553h65.248l.141 263.807zm223.99 0h-39.373v-21.6a69.646 69.646 0 0 1-23.373 19.232 72.01 72.01 0 0 1-33.251 7.107 87.725 87.725 0 0 1-63.997-26.758 91.123 91.123 0 0 1-19.2-30.102 108.19 108.19 0 0 1 0-76.368 91.287 91.287 0 0 1 19.2-30.101 87.716 87.716 0 0 1 63.997-26.757 71.274 71.274 0 0 1 33.251 7.247 70.586 70.586 0 0 1 23.373 19.371v-21.74h39.373v180.47zm-91.404-148.139a54.3 54.3 0 0 0-22.816 4.599 51.011 51.011 0 0 0-16.973 12.403 55.739 55.739 0 0 0-10.714 18.395 68.686 68.686 0 0 0 0 44.874 54.994 54.994 0 0 0 10.851 18.397 50.816 50.816 0 0 0 16.973 12.403 58.354 58.354 0 0 0 45.078 0 51.483 51.483 0 0 0 17.11-12.125 55.79 55.79 0 0 0 11.13-18.256 68.94 68.94 0 0 0 0-45.99 55.773 55.773 0 0 0-11.13-18.255 51.78 51.78 0 0 0-17.11-12.124 54.035 54.035 0 0 0-22.4-4.32zm271.849 12.821a108.489 108.489 0 0 0-10.157-5.156 114.537 114.537 0 0 0-13.91-5.017 140.672 140.672 0 0 0-15.584-3.763 92.012 92.012 0 0 0-16.694-1.533 45.16 45.16 0 0 0-25.181 5.992 17.984 17.984 0 0 0-8.906 15.607 13 13 0 0 0 2.365 7.946 18.154 18.154 0 0 0 6.262 5.296 38.473 38.473 0 0 0 9.459 3.344c3.619.835 7.514 1.578 11.686 2.23l18.643 2.787a97.26 97.26 0 0 1 46.051 17.28 43.218 43.218 0 0 1 17.389 36.371 51.597 51.597 0 0 1-5.565 23.83 53.75 53.75 0 0 1-15.997 17.978 78.173 78.173 0 0 1-25.741 12.125 127.978 127.978 0 0 1-34.781 4.32c-4.637 0-10.016-.278-16.138-.835a134.382 134.382 0 0 1-19.616-3.347 141.996 141.996 0 0 1-21.149-7.107 97.344 97.344 0 0 1-20.451-11.843l18.227-29.546a94.293 94.293 0 0 0 10.573 7.107 76.82 76.82 0 0 0 12.938 5.853 98.465 98.465 0 0 0 16 4.042 118.038 118.038 0 0 0 19.894 1.533 63.059 63.059 0 0 0 30.608-5.99 17.984 17.984 0 0 0 10.435-16.029 14.913 14.913 0 0 0-7.514-12.682 59.035 59.035 0 0 0-23.651-7.245l-18.781-2.509a86.625 86.625 0 0 1-45.635-17.558 44.506 44.506 0 0 1-15.722-35.398 54.835 54.835 0 0 1 5.29-24.248 50.144 50.144 0 0 1 14.886-18.256 71.177 71.177 0 0 1 23.373-11.427 109.764 109.764 0 0 1 31.024-4.042 155.41 155.41 0 0 1 40.067 5.017 115.076 115.076 0 0 1 32.973 13.936l-16.973 30.938zm186.707-9.477h-69.565v78.599a46.926 46.926 0 0 0 2.643 15.606 28.9 28.9 0 0 0 6.122 10.454 23.253 23.253 0 0 0 9.043 5.99 32.538 32.538 0 0 0 11.27 1.952 52.703 52.703 0 0 0 18.781-3.622 97.54 97.54 0 0 0 17.53-8.64l15.584 31.494a123.11 123.11 0 0 1-24.486 12.682 84.77 84.77 0 0 1-30.749 5.296 64.355 64.355 0 0 1-47.581-17.142 72.412 72.412 0 0 1-17.251-53.235V305.13h-35.754v-35.815h35.754v-54.629h39.514v54.629h69.562l-.416 35.676zm121.037-40.553a85.16 85.16 0 0 1 34.502 6.828 77.058 77.058 0 0 1 26.851 19.371 91.05 91.05 0 0 1 17.53 29.961 112.778 112.778 0 0 1 6.262 38.605v14.63h-133.978a58.593 58.593 0 0 0 6.957 20.906 49.274 49.274 0 0 0 12.243 13.936 48.373 48.373 0 0 0 15.997 8.221 63.916 63.916 0 0 0 18.506 2.65 78.62 78.62 0 0 0 27.824-5.018 87.613 87.613 0 0 0 24.902-13.936l19.619 27.872a98.229 98.229 0 0 1-35.059 19.789 133.084 133.084 0 0 1-39.094 5.712 99.337 99.337 0 0 1-37.981-6.131 84.395 84.395 0 0 1-29.219-19.232 86.843 86.843 0 0 1-19.059-29.962 107.467 107.467 0 0 1-6.816-39.021 109.159 109.159 0 0 1 6.538-38.602 88.474 88.474 0 0 1 18.506-30.102 81.917 81.917 0 0 1 27.824-19.371 93.487 93.487 0 0 1 37.146-6.968v-.139zm-.694 35.118a51.139 51.139 0 0 0-18.784 3.205 40.613 40.613 0 0 0-13.91 9.198 48.37 48.37 0 0 0-9.741 13.935 67.434 67.434 0 0 0-5.702 18.256h93.491a55.77 55.77 0 0 0-15.024-32.749 41.698 41.698 0 0 0-30.33-11.845zm222.598-35.118a98.152 98.152 0 0 1 16.278 1.254 71.727 71.727 0 0 1 13.914 3.902l-9.462 39.02a55.56 55.56 0 0 0-13.91-4.877 77.78 77.78 0 0 0-15.443-1.672 45.703 45.703 0 0 0-17.251 3.205 36.585 36.585 0 0 0-13.914 9.476 44.363 44.363 0 0 0-8.906 15.331 61.445 61.445 0 0 0-3.197 20.486v99.36h-39.373V268.758h38.954v20.347a54.29 54.29 0 0 1 21.981-18.674 71.82 71.82 0 0 1 29.914-5.853l.416-.139zm134.535 0a97.238 97.238 0 0 1 37.843 7.247 76.11 76.11 0 0 1 29.494 21.601l-25.181 26.897a75.54 75.54 0 0 0-19.898-13.937 55.58 55.58 0 0 0-23.373-4.877 52.403 52.403 0 0 0-21.008 4.18 50.106 50.106 0 0 0-16.973 11.846 54.851 54.851 0 0 0-11.13 18.257 69.805 69.805 0 0 0 0 46.963 54.949 54.949 0 0 0 11.13 18.256 50.263 50.263 0 0 0 16.973 11.846 52.35 52.35 0 0 0 21.008 4.179 55.56 55.56 0 0 0 24.208-5.296 77.834 77.834 0 0 0 19.894-13.936l24.208 27.178a79.464 79.464 0 0 1-29.773 21.6 96.42 96.42 0 0 1-37.702 7.245 100.72 100.72 0 0 1-38.954-7.245c-22.65-9.043-40.467-27.194-49.114-50.032a108.183 108.183 0 0 1 0-75.392c8.646-22.836 26.464-40.988 49.114-50.03a100.727 100.727 0 0 1 38.816-6.411l.416-.139zm276.441 185.348h-39.373v-21.6a69.646 69.646 0 0 1-23.373 19.232 72.01 72.01 0 0 1-33.251 7.107 87.725 87.725 0 0 1-63.997-26.758 91.123 91.123 0 0 1-19.2-30.102 108.19 108.19 0 0 1 0-76.368 91.287 91.287 0 0 1 19.2-30.101 87.716 87.716 0 0 1 63.997-26.757 71.274 71.274 0 0 1 33.251 7.247 70.556 70.556 0 0 1 23.373 19.371v-21.74h39.373v180.47zm-91.267-148.139a54.322 54.322 0 0 0-22.816 4.599 51.082 51.082 0 0 0-16.973 12.403 55.79 55.79 0 0 0-10.714 18.395 68.686 68.686 0 0 0 0 44.874 55.802 55.802 0 0 0 10.714 18.397 50.956 50.956 0 0 0 16.973 12.403 58.497 58.497 0 0 0 45.078 0 51.664 51.664 0 0 0 17.11-12.125 54.867 54.867 0 0 0 11.13-18.256 68.67 68.67 0 0 0 0-45.99 54.866 54.866 0 0 0-11.13-18.255 51.75 51.75 0 0 0-17.11-12.124 54.186 54.186 0 0 0-22.122-4.32h-.141zm240.547-37.07a98.26 98.26 0 0 1 16.278 1.254 71.727 71.727 0 0 1 13.914 3.902l-9.462 39.02a55.602 55.602 0 0 0-13.91-4.878 78.152 78.152 0 0 0-15.443-1.672 45.548 45.548 0 0 0-17.251 3.205 36.596 36.596 0 0 0-13.914 9.476 44.31 44.31 0 0 0-8.902 15.329 61.395 61.395 0 0 0-3.2 20.486v99.363h-39.373V268.895h39.373v20.346a54.146 54.146 0 0 1 22.118-18.813 71.962 71.962 0 0 1 29.914-5.853h-.141zm129.111 0a71.274 71.274 0 0 1 33.251 7.247 70.718 70.718 0 0 1 23.373 19.371V178.454h39.373v271.332h-39.373v-21.6a69.676 69.676 0 0 1-23.373 19.232 72.02 72.02 0 0 1-33.251 7.107 87.732 87.732 0 0 1-64-26.758 91.35 91.35 0 0 1-19.616-30.102 108.19 108.19 0 0 1 0-76.368 91.287 91.287 0 0 1 19.2-30.101 87.716 87.716 0 0 1 63.997-26.757l.419.139zM2174.845 433.2c1.571-.035 3.133.25 4.592.838a11.8 11.8 0 0 1 3.754 2.509 11.572 11.572 0 0 1 2.506 3.622 11.305 11.305 0 0 1 0 8.918 11.667 11.667 0 0 1-2.506 3.622 12.06 12.06 0 0 1-3.754 2.509 11.207 11.207 0 0 1-4.592.976 11.68 11.68 0 0 1-10.851-6.966 11.305 11.305 0 0 1 0-8.918 11.408 11.408 0 0 1 6.259-6.134 11.864 11.864 0 0 1 4.73-.976h-.138zm0 20.486a8.504 8.504 0 0 0 3.478-.694 9.251 9.251 0 0 0 2.781-1.952 9.071 9.071 0 0 0 0-12.682 8.956 8.956 0 0 0-2.781-1.952 8.596 8.596 0 0 0-3.478 0 9.084 9.084 0 0 0-3.478 0 8.912 8.912 0 0 0-4.845 6.275 8.926 8.926 0 0 0 2.061 7.661 9.054 9.054 0 0 0 2.784 1.952 8.907 8.907 0 0 0 3.616 1.254l-.138.138zm0-13.936a4.857 4.857 0 0 1 3.2.976 3.06 3.06 0 0 1 1.11 2.509 2.932 2.932 0 0 1-.832 2.23 4.168 4.168 0 0 1-2.506 1.114l3.478 4.042h-2.784l-3.2-4.042h-.973v4.042h-2.224v-10.73l4.73-.141zm-2.643 1.952v2.787h2.643c.454.131.938.131 1.392 0a1.26 1.26 0 0 0 0-1.114 1.124 1.124 0 0 0 0-1.117 2.63 2.63 0 0 0-1.392 0l-2.643-.557zM2036.97 302.343a54.322 54.322 0 0 0-22.816 4.599 51.082 51.082 0 0 0-16.973 12.403 55.795 55.795 0 0 0-10.714 18.396 68.686 68.686 0 0 0 0 44.874 55.802 55.802 0 0 0 10.714 18.397 50.936 50.936 0 0 0 16.973 12.4 58.461 58.461 0 0 0 45.078 0 51.598 51.598 0 0 0 17.11-12.122 54.943 54.943 0 0 0 12.106-19.373 68.809 68.809 0 0 0 0-45.987 54.963 54.963 0 0 0-11.13-18.257 51.756 51.756 0 0 0-17.114-12.124 54.195 54.195 0 0 0-22.4-3.902l-.835.697z"/>
</symbol><symbol id="icon-microphone" viewBox="0 0 1024 1024">
    <title/>
    <path d="M512 597.333c70.827 0 127.573-57.173 127.573-128l.427-256c0-70.827-57.173-128-128-128s-128 57.173-128 128v256c0 70.827 57.173 128 128 128zm226.133-128c0 128-108.373 217.6-226.133 217.6s-226.133-89.6-226.133-217.6h-72.533c0 145.493 116.053 265.813 256 286.72V896h85.333V756.053c139.947-20.48 256-140.8 256-286.72z"/>
</symbol><symbol id="icon-next" viewBox="0 0 355 1024">
    <path d="M304.742 506.101L3.548 34.289C-2.796 24.351-.426 10.876 9.002 3.984c9.729-7.112 23.094-4.419 29.635 5.827l316.628 495.991L38.769 1013.98c-6.427 10.319-19.759 13.176-29.566 6.182-9.506-6.781-12.021-20.229-5.786-30.241l301.326-483.819z"/>
</symbol><symbol id="icon-plumbing" viewBox="0 0 1024 1024">
    <title/>
    <path d="M841.824 512l-22.976 181.39c-5.402 42.642-41.677 74.61-84.659 74.61H332.438c-42.982 0-79.255-31.968-84.657-74.61L224.805 512h617.02zm-617.02-85.333c-51.384 0-91.114 45.08-84.657 96.057l22.976 181.39c10.803 85.283 83.349 149.22 169.314 149.22h401.751c85.965 0 158.511-63.937 169.314-149.22l22.976-181.39c6.46-50.977-33.271-96.057-84.655-96.057h-617.02z"/>
    <path d="M298.667 810.667H384v128h-85.333v-128z"/>
    <path d="M682.667 810.667H768v128h-85.333v-128z"/>
    <path d="M704 213.333c-36.239 0-64 28.494-64 61.671h-85.333C554.667 192.933 622.419 128 704 128s149.333 64.933 149.333 147.004v194.329H768V275.004c0-33.177-27.761-61.671-64-61.671z"/>
    <path d="M496.705 304.849C520.143 275.1 556.494 256 597.305 256s77.162 19.1 100.601 48.849C727.072 341.868 687.1 384 639.972 384h-85.333c-47.128 0-87.1-42.132-57.934-79.151z"/>
    <path d="M469.333 512v42.667H384V512h85.333zm-170.666-85.333V640h256V426.667h-256z"/>
</symbol><symbol id="icon-premium" viewBox="0 0 3072 1024">
    <title/>
    <path d="M83.748 0C29.472 160.457 0 332.714 0 512s29.472 351.542 83.748 512h2904.505C3042.528 863.542 3072 691.286 3072 512s-29.472-351.543-83.747-512z"/>
    <path d="M479.245 320H352v377.53h51.981V546.519h72.557c86.634 0 132.118-47.462 132.118-113.261S564.253 320 479.245 320zm5.955 183.91h-81.219V362.608H485.2c42.234 0 70.39 28.045 70.39 70.65 0 42.608-28.157 70.653-70.39 70.653z"/>
    <path d="M896.704 697.53h71.475L822.525 530.336c60.102-12.403 90.966-51.773 90.966-103.011 0-62.56-44.4-107.325-129.411-107.325H668.208v377.53h51.981V534.112h40.608zM720.189 362.067h70.931c42.234 0 69.306 25.347 69.306 65.798 0 39.91-27.072 65.798-69.306 65.798h-70.931z"/>
    <path d="M1249.626 365.302V320h-238.243v377.53h238.243v-45.306h-186.262V526.022h159.19V480.72h-159.19V365.302z"/>
    <path d="M1653.328 320l-142.406 240.541L1368.516 320h-54.147v377.53h51.981V406.292l142.947 242.698 142.947-242.698V697.53h51.981V320z"/>
    <path d="M1793.504 697.53h51.978V320h-51.978z"/>
    <path d="M2088.941 704c95.296 0 157.024-58.787 157.024-152.09V320h-51.981v234.608c0 59.325-40.611 103.011-105.043 103.011-64.435 0-105.046-43.686-105.046-103.011V320h-51.981v231.91c0 93.302 61.728 152.09 157.027 152.09z"/>
    <path d="M2669.101 320l-142.403 240.541L2384.292 320h-54.147v377.53h51.981V406.292l142.947 242.698 142.947-242.698V697.53h51.981V320z"/>
</symbol><symbol id="icon-prev" viewBox="0 0 16 40">
    <path d="M50.258 517.899l301.194 471.812c6.344 9.938 3.974 23.413-5.454 30.305-9.729 7.112-23.094 4.419-29.635-5.827L-.265 518.198 316.231 10.02c6.427-10.319 19.759-13.176 29.566-6.182 9.506 6.781 12.021 20.229 5.786 30.241L50.257 517.898z"/>
</symbol><symbol id="icon-search" viewBox="0 0 1024 1024">
    <title/>
    <path d="M621.668 685.668C577.192 717.36 522.773 736 464 736c-150.221 0-272-121.779-272-272s121.779-272 272-272 272 121.779 272 272c0 58.773-18.641 113.192-50.332 157.668l178.714 178.714c17.606 17.606 17.46 45.778-.006 63.244l-.75.75c-17.421 17.421-45.781 17.469-63.244.006L621.668 685.668zM464 672c114.875 0 208-93.125 208-208s-93.125-208-208-208-208 93.125-208 208 93.125 208 208 208z"/>
</symbol><symbol id="icon-services" viewBox="0 0 1024 1024">
    <title/>
    <path d="M85.333 213.333c0-70.692 57.308-128 128-128H640c70.694 0 128 57.308 128 128v213.333h-85.333V213.333c0-23.564-19.102-42.667-42.667-42.667H213.333c-23.564 0-42.667 19.103-42.667 42.667V512c0 23.565 19.103 42.667 42.667 42.667H256V640h-42.667c-70.692 0-128-57.306-128-128V213.333z"/>
    <path d="M128 256h597.333v85.333H128V256z"/>
    <path d="M298.667 426.667h512v42.667c0 7.457 4.16 18.485 14.17 28.497 10.014 10.012 21.039 14.17 28.497 14.17h42.667v341.333h-42.667c-7.458 0-18.483 4.16-28.497 14.17-10.01 10.014-14.17 21.039-14.17 28.497v42.667h-512v-42.667c0-7.458-4.158-18.483-14.17-28.497-10.012-10.01-21.04-14.17-28.497-14.17h-42.667V512.001H256c7.457 0 18.485-4.158 28.497-14.17s14.17-21.04 14.17-28.497v-42.667zM375.572 512c-7.113 17.797-18.134 33.568-30.735 46.17s-28.373 23.622-46.17 30.735v187.523c17.797 7.113 33.568 18.134 46.17 30.735s23.622 28.373 30.735 46.17H733.76c7.113-17.797 18.133-33.568 30.737-46.17 12.599-12.602 28.373-23.622 46.17-30.735V588.905c-17.796-7.113-33.57-18.134-46.17-30.735-12.604-12.602-23.625-28.373-30.737-46.17H375.572z"/>
    <path d="M682.667 597.333h-85.333V512h85.333v85.333z"/>
    <path d="M682.667 725.333h-85.333V640h85.333v85.333z"/>
    <path d="M682.667 853.333h-85.333V768h85.333v85.333z"/>
</symbol><symbol id="icon-smartphones" viewBox="0 0 1024 1024">
    <title/>
    <path d="M725.333 170.667v682.667H298.666V170.667h426.667zM298.667 85.333c-47.128 0-85.333 38.205-85.333 85.333v682.667c0 47.13 38.205 85.333 85.333 85.333h426.667c47.13 0 85.333-38.204 85.333-85.333V170.666c0-47.128-38.204-85.333-85.333-85.333H298.667z"/>
    <path d="M554.377 768c0 23.564-19.103 42.667-42.667 42.667S469.043 791.564 469.043 768s19.103-42.667 42.667-42.667 42.667 19.103 42.667 42.667z"/>
</symbol><symbol id="icon-sport" viewBox="0 0 1024 1024">
    <title/>
    <path d="M836.268 179.602c-115.2-93.867-298.667-55.467-405.334 81.067-110.933 136.533-106.667 324.266 8.533 413.866s298.667 55.467 405.334-81.067c110.933-136.532 106.667-319.999-8.533-413.866zm-55.466 362.667c-89.6 110.932-217.6 123.732-285.867 68.266s-85.333-183.466 4.267-294.399c89.6-110.933 217.6-123.733 285.867-68.267 68.267 51.2 85.333 183.467-4.267 294.4z"/>
    <path d="M520.533 218L870.4 495.333l-29.867 34.133-349.867-277.333L520.533 218z"/>
    <path d="M435.183 324.667L785.05 602l-29.867 34.133-345.6-277.333 25.6-34.133z"/>
    <path d="M401.083 584.937L742.416 158.27l34.133 25.6-341.333 426.667-34.133-25.6z"/>
    <path d="M503.458 670.271l341.333-426.667 34.133 25.6-341.333 426.667-34.133-25.6z"/>
    <path d="M354.133 448.401c0-17.067 4.267-34.133 4.267-42.667l85.333 12.8c0 8.533 0 17.067-4.267 34.133 0 8.533 0 21.333-4.267 34.133-4.267 29.867-8.533 72.533-12.8 110.933-4.267 42.667-12.8 85.333-25.6 123.733s-29.867 81.067-55.467 110.933l-64-55.467c17.067-17.067 29.867-46.933 38.4-81.067 12.8-34.133 17.067-72.533 25.6-110.933 4.267-38.4 8.533-76.8 12.8-106.667v-29.867z"/>
    <path d="M678.4 712.939c4.267 0 68.988-46.933 73.254-46.933s-77.521-38.4-77.521-38.4H665.6c-29.867 4.267-102.4 17.067-170.667 38.4-38.4 12.8-81.067 25.6-119.467 42.667s-76.8 42.667-98.133 68.267l68.267 51.2c12.8-12.8 34.133-29.867 64-42.667s68.267-25.6 106.667-38.4c64-17.067 132.267-29.867 162.133-34.133z"/>
    <path d="M192 883.605l85.333-106.667 68.267 51.2-85.333 106.667-68.267-51.2z"/>
    <path d="M298.667 320c0 34.133-29.867 64-64 64s-64-29.867-64-64c0-34.133 29.867-64 64-64s64 25.6 64 64z"/>
</symbol><symbol id="icon-stationery" viewBox="0 0 1024 1024">
    <title/>
    <path d="M242.133 859.732c-38.4-38.4-38.4-98.133 0-136.533l392.533-392.533-59.733-59.733L182.4 663.466c-72.533 72.533-72.533 183.467 0 256s183.467 72.533 256 0l-59.733-59.733c-42.667 38.4-102.4 38.4-136.533 0z"/>
    <path d="M865.083 155.733c-93.867-93.867-243.2-93.867-332.8 0L139.75 548.266l59.733 59.733 392.533-392.533c59.733-59.733 153.6-59.733 213.333 0s59.733 153.6 0 213.333L374.416 859.732l59.733 59.733 430.933-430.933c93.867-89.6 93.867-238.933 0-332.8z"/>
    <path d="M749.867 275.2c-46.933-46.933-128-46.933-179.2 0l59.733 59.733c17.067-17.067 42.667-17.067 55.467 0 17.067 17.067 17.067 42.667 0 55.467L336 740.267 395.733 800 745.6 450.133c51.2-46.933 51.2-128 4.267-174.933z"/>
</symbol><symbol id="icon-stock" viewBox="0 0 1024 1024">
    <title/>
    <path d="M362.667 426.667c-58.91 0-106.667 47.757-106.667 106.667s47.756 106.667 106.667 106.667 106.667-47.757 106.667-106.667-47.756-106.667-106.667-106.667zm-21.334 106.666c0-11.78 9.551-21.333 21.333-21.333s21.333 9.553 21.333 21.333-9.551 21.333-21.333 21.333-21.333-9.553-21.333-21.333z"/>
    <path d="M554.667 789.333c0-58.91 47.757-106.667 106.667-106.667s106.667 47.757 106.667 106.667S720.244 896 661.334 896s-106.667-47.757-106.667-106.667zM661.333 768c-11.78 0-21.333 9.553-21.333 21.333s9.553 21.333 21.333 21.333 21.333-9.553 21.333-21.333S673.113 768 661.333 768z"/>
    <path d="M604.497 445.666l-255.998 384L419.501 877l255.998-384z"/>
    <path d="M513.638.031a42.673 42.673 0 0 1 30.758 14.868l243.226 283.767H896c47.13 0 85.333 38.205 85.333 85.333v554.667c0 47.13-38.204 85.333-85.333 85.333H128c-47.128 0-85.333-38.204-85.333-85.333V383.999c0-47.128 38.205-85.333 85.333-85.333h67.661l286.17-286.17A42.672 42.672 0 0 1 513.639.031zm-4.049 105.386l165.645 193.25H316.34zM896 384H128v554.667h768z"/>
</symbol><symbol id="icon-telegram" viewBox="0 0 1024 1024">
    <title/>
    <path d="M512 0c282.78 0 512 229.22 512 512s-229.22 512-512 512S0 794.78 0 512 229.22 0 512 0z"/>
    <path d="M742.44 327.02l-72.9 367.5s-10.2 25.48-38.22 13.26l-168.2-128.96-.78-.38c22.72-20.4 198.9-178.8 206.6-185.98 11.92-11.12 4.52-17.74-9.32-9.34L399.38 548.38l-100.4-33.78s-15.8-5.62-17.32-17.84c-1.54-12.24 17.84-18.86 17.84-18.86l409.3-160.56s33.64-14.78 33.64 9.68z"/>
</symbol><symbol id="icon-tourism" viewBox="0 0 1024 1024">
    <title/>
    <path d="M755.115 265.743c64.619 33.268 115.392 87.066 145.045 146.425 31.194 62.456 41.242 136.274 11.575 200.218l-18.202 39.232-287.731-138.231c37.239 83.767 61.965 173.261 72.034 266.615 44.143 6.724 84.446 16.098 119.185 27.678 37.227 12.407 70.434 28.126 95.211 47.65 24.294 19.149 46.434 46.985 46.434 83.337v42.667H85.332v-42.667c0-36.352 22.139-64.188 46.434-83.337 24.775-19.524 57.981-35.243 95.212-47.65 64.869-21.623 149.135-35.554 241.57-38.899-3.123-82.901-15.514-162.641-35.84-237.619-8.037-29.636-17.311-58.522-27.741-86.562L173.845 669.901l-29.787-30.029c-80.796-81.455-67.441-208.832 10.116-287.077L54.82 329.566l13.693-43.82C104.707 169.918 213.075 90.541 320.825 124.21c34.711 10.846 66.86 31.103 92.111 58.588 23.057-36.003 55.42-71.382 102.234-93.405 63.078-29.678 134.729-35.24 196.361-22.101 60.446 12.886 119.526 45.933 145.988 102.176l17.993 38.247zm-203.618-99.136c44.932-21.14 97.421-25.413 142.242-15.857 23.044 4.912 41.993 12.925 56.538 22.598l-117.781 56.766c-34.782-3.131-69.09-.59-101.09 7.279-22.878 5.627-44.949 14.107-65.237 25.414 19.191-40.322 45.03-77.239 85.329-96.199zm292.561 366.568L479.395 357.992c18.185-17.323 42.82-30.464 72.393-37.736 46.852-11.523 103.061-7.259 155.593 17.113 51.972 24.112 93.269 66.541 116.437 112.931 14.451 28.924 21.005 57.408 20.241 82.876zm-468.43-249.359c.633 1.926 1.22 3.884 1.758 5.872-22.27-9.635-46.431-14.315-71.132-13.798-19.874.416-39.691 4.164-58.873 11.062l-78.483-18.35c33.277-55.125 87.188-75.22 126.475-62.944 36.505 11.407 67.843 40.386 80.255 78.157zm-67.586 77.389c16.687-.35 32.81 3.879 46.972 12.919L181.483 543.287c-15.177-41.25-4.687-92.753 34.148-131.272l1.306-1.296 1.19-1.404c28.312-33.394 61.528-47.516 89.914-48.111zm245.797 493.72l-42.633-1.591c-102.404.073-193.333 13.999-257.244 35.302A388.51 388.51 0 0 0 233.686 896h556.623a388.464 388.464 0 0 0-20.275-7.364c-55.223-18.411-130.624-31.309-216.166-34.522zm-32.098-320.243c18.3 74.573 29.359 153.015 32.196 234.048a1146.64 1146.64 0 0 1 36.838 1.869c-10.867-82.526-34.449-161.681-69.035-235.917z"/>
</symbol><symbol id="icon-twitter" viewBox="0 0 1024 1024">
    <title/>
    <path d="M512 0c282.58 0 512 229.42 512 512s-229.42 512-512 512C229.42 1024 0 794.58 0 512S229.42 0 512 0zm-90.182 784.316c226.566 0 350.448-187.74 350.448-350.446 0-5.364 0-10.728-.256-15.838 24.01-17.368 44.956-39.08 61.558-63.856-21.966 9.706-45.722 16.348-70.754 19.412 25.544-15.326 44.956-39.336 54.152-68.198-23.756 14.048-50.064 24.264-78.162 29.884-22.478-24.01-54.406-38.824-89.91-38.824-67.944 0-123.116 55.172-123.116 123.116 0 9.706 1.022 19.156 3.32 28.096-102.426-5.108-193.104-54.15-253.894-128.736-10.474 18.136-16.604 39.336-16.604 61.814 0 42.656 21.712 80.46 54.918 102.426-20.18-.51-39.082-6.13-55.684-15.324v1.532c0 59.77 42.4 109.322 98.85 120.818-10.216 2.808-21.2 4.342-32.438 4.342-7.92 0-15.582-.766-23.244-2.3 15.58 49.042 61.046 84.548 114.942 85.568-42.146 32.952-95.274 52.62-153.002 52.62-9.962 0-19.668-.512-29.374-1.788 53.896 35.248 118.774 55.682 188.25 55.682z"/>
</symbol><symbol id="icon-viber" viewBox="0 0 1024 1024">
    <title/>
    <path d="M1024 512c0 282.77-229.23 512-512 512S0 794.77 0 512 229.23 0 512 0s512 229.23 512 512z"/>
    <path d="M734.122 280.886c-124.624-30.1-249.47-65.308-377.274-20.576-82.748 31.03-82.748 120.674-79.3 196.526 0 20.686-24.134 48.27-13.792 72.404 20.686 68.956 37.926 137.912 110.33 172.39 10.344 6.896 0 20.686 6.896 31.03-3.448 0-10.344 3.448-10.344 6.896 0 16.526 7.416 41.804 2.49 58.1l220.012 219.92c226.18-36.02 402.956-220.136 427.828-449.842L734.122 280.886z"/>
    <path d="M782.854 359.848l-.168-.676c-13.68-55.306-75.356-114.65-131.996-126.996l-.638-.132c-91.612-17.476-184.502-17.476-276.094 0l-.658.132c-56.62 12.346-118.298 71.694-131.996 126.996l-.152.676c-16.912 77.234-16.912 155.562 0 232.796l.152.676c13.116 52.944 70.198 109.564 124.724 125.134v61.736c0 22.346 27.23 33.32 42.714 17.194l62.55-65.018c13.568.758 27.142 1.182 40.712 1.182 46.114 0 92.25-4.362 138.046-13.098l.638-.132c56.64-12.346 118.316-71.694 131.996-126.996l.168-.676c16.912-77.236 16.912-155.56.002-232.798zm-49.502 221.598c-9.134 36.082-55.962 80.938-93.17 89.226-48.71 9.264-97.808 13.222-146.856 11.864a3.463 3.463 0 0 0-2.592 1.052c-6.962 7.144-45.67 46.884-45.67 46.884l-48.576 49.856c-3.552 3.704-9.792 1.182-9.792-3.928V674.128c0-1.69-1.206-3.124-2.866-3.452-.01-.004-.018-.004-.028-.006-37.208-8.288-84.02-53.144-93.17-89.226-15.222-69.812-15.222-140.584 0-210.396 9.15-36.082 55.962-80.938 93.17-89.226 85.072-16.18 171.328-16.18 256.382 0 37.226 8.288 84.036 53.144 93.17 89.226 15.238 69.814 15.238 140.586-.002 210.398z"/>
    <path d="M592.94 628.654c-5.72-1.738-11.17-2.904-16.236-5.002-52.462-21.766-100.742-49.846-138.984-92.888-21.748-24.476-38.77-52.11-53.158-81.354-6.824-13.868-12.574-28.278-18.436-42.598-5.344-13.056 2.528-26.544 10.816-36.384 7.778-9.234 17.788-16.298 28.628-21.508 8.46-4.064 16.804-1.72 22.984 5.45 13.356 15.504 25.628 31.8 35.56 49.772 6.11 11.054 4.434 24.566-6.64 32.088-2.692 1.828-5.144 3.976-7.65 6.04-2.2 1.81-4.268 3.638-5.776 6.088-2.754 4.482-2.886 9.772-1.114 14.646 13.654 37.522 36.668 66.702 74.438 82.42 6.044 2.514 12.112 5.44 19.076 4.63 11.66-1.362 15.436-14.154 23.608-20.836 7.986-6.53 18.194-6.616 26.796-1.172 8.606 5.448 16.946 11.292 25.238 17.202 8.14 5.8 16.242 11.47 23.748 18.084 7.22 6.358 9.706 14.698 5.64 23.324-7.44 15.802-18.27 28.944-33.888 37.336-4.41 2.364-9.678 3.13-14.65 4.662-5.72-1.738 4.972-1.532 0 0z"/>
    <path d="M512.142 330.852c68.618 1.924 124.98 47.462 137.058 115.302 2.058 11.56 2.79 23.376 3.706 35.11.386 4.934-2.41 9.622-7.734 9.688-5.5.066-7.974-4.538-8.334-9.468-.706-9.764-1.196-19.574-2.542-29.254-7.102-51.118-47.862-93.408-98.742-102.482-7.658-1.366-15.49-1.724-23.248-2.538-4.902-.514-11.322-.81-12.408-6.906-.91-5.11 3.402-9.178 8.268-9.44 1.318-.078 2.648-.016 3.976-.012 68.622 1.924-1.328-.004 0 0z"/>
    <path d="M616.424 466.038c-.114.858-.172 2.872-.676 4.768-1.82 6.888-12.268 7.75-14.67.8-.714-2.062-.82-4.41-.824-6.63-.024-14.532-3.182-29.052-10.512-41.698-7.534-12.998-19.046-23.92-32.544-30.534-8.164-3.996-16.99-6.482-25.938-7.96-3.91-.648-7.862-1.038-11.792-1.586-4.762-.662-7.306-3.696-7.078-8.388.21-4.396 3.424-7.562 8.216-7.288 15.746.892 30.958 4.3 44.96 11.712 28.468 15.078 44.732 38.874 49.48 70.652.214 1.442.558 2.866.668 4.31.268 3.564.438 7.134.71 11.842-.114.854-.272-4.708 0 0z"/>
    <path d="M573.744 464.376c-5.74.104-8.812-3.076-9.406-8.336-.41-3.668-.738-7.388-1.614-10.96-1.724-7.034-5.462-13.55-11.378-17.86-2.792-2.034-5.958-3.516-9.272-4.476-4.21-1.218-8.586-.882-12.784-1.91-4.562-1.118-7.086-4.814-6.368-9.092.652-3.896 4.44-6.936 8.698-6.626 26.604 1.92 45.618 15.674 48.332 46.994.194 2.21.418 4.544-.072 6.662-.844 3.614-3.524 5.428-6.136 5.604-5.742.102 2.612-.176 0 0z"/>
    <path d="M782.854 359.848l-.168-.676c-7.668-31.002-30.424-63.27-58.916-87.822l-38.518 34.136c22.904 18.25 42.528 43.532 48.104 65.56 15.24 69.814 15.24 140.584 0 210.4-9.134 36.082-55.964 80.938-93.17 89.226-48.71 9.264-97.808 13.222-146.856 11.864a3.463 3.463 0 0 0-2.592 1.052c-6.962 7.144-45.67 46.884-45.67 46.884l-48.576 49.856c-3.552 3.704-9.792 1.186-9.792-3.928V674.128c0-1.69-1.206-3.124-2.866-3.452-.01 0-.018-.004-.028-.004-21.146-4.71-45.384-21.236-64.056-41.242l-38.06 33.726c23.77 25.858 54.428 46.762 84.336 55.302v61.736c0 22.346 27.23 33.32 42.714 17.194l62.55-65.018c13.568.758 27.138 1.182 40.712 1.182 46.114 0 92.25-4.362 138.046-13.098l.638-.13c56.64-12.346 118.316-71.69 131.996-126.996l.168-.676c16.914-77.242 16.914-155.566.004-232.804z"/>
    <path d="M592.94 628.654c4.972-1.532-5.72-1.738 0 0z"/>
    <path d="M635.842 563.328c-7.506-6.61-15.612-12.284-23.748-18.084-8.292-5.91-16.632-11.754-25.238-17.202-8.602-5.444-18.808-5.358-26.796 1.172-8.172 6.682-11.946 19.474-23.608 20.836-6.962.81-13.032-2.118-19.076-4.63-23.238-9.668-40.87-24.452-54.196-43.118l-28.32 25.1c.962 1.114 1.88 2.258 2.858 3.358 38.244 43.042 86.526 71.122 138.984 92.888 5.062 2.1 10.516 3.268 16.236 5.002-5.72-1.738 4.976-1.53 0 0 4.976-1.53 10.24-2.3 14.654-4.664 15.622-8.392 26.448-21.536 33.888-37.336 4.068-8.624 1.582-16.964-5.638-23.322z"/>
    <path d="M512.318 330.862c-.058 0-.114-.006-.172-.006-.056-.004.016 0 .172.006z"/>
    <path d="M512.144 330.852c.058 0 .114.006.172.006 3.808.136 65.744 1.842-.172-.006z"/>
    <path d="M610.57 371.674l-12.074 10.702c18.974 18.46 32.058 42.926 35.798 69.85 1.344 9.684 1.838 19.49 2.544 29.254.358 4.934 2.83 9.536 8.334 9.472 5.326-.066 8.12-4.752 7.734-9.688-.918-11.732-1.648-23.552-3.706-35.11-5.286-29.696-19.06-55.118-38.63-74.48z"/>
    <path d="M615.042 449.878c-3.458-23.156-13.064-42.052-29.02-56.448l-12.04 10.67c6.226 5.526 11.612 12.016 15.76 19.174 7.33 12.646 10.488 27.166 10.512 41.698.004 2.22.11 4.568.824 6.634 2.406 6.954 12.85 6.092 14.67-.8.504-1.9.562-3.914.676-4.768-.114.858-.276-4.706 0 0-.276-4.706-.444-8.278-.714-11.846-.106-1.45-.452-2.874-.668-4.314z"/>
    <path d="M616.424 466.038c-.272-4.708-.114.854 0 0z"/>
    <path d="M573.744 464.376c.09-.006.176-.052.262-.062-.242 0-.614.006-.996.02.248.006.474.044.734.042z"/>
    <path d="M573.744 464.376c-.258.004-.486-.034-.734-.042-1.242.034-2.524.1.734.042z"/>
    <path d="M574.006 464.314c-.09.01-.176.056-.262.062.672-.046.614-.062.262-.062z"/>
    <path d="M561.628 415.05l-12.256 10.864c.676.41 1.338.838 1.98 1.304 5.916 4.31 9.654 10.826 11.378 17.86.876 3.572 1.2 7.288 1.614 10.96.566 5.026 3.42 8.116 8.672 8.296.382-.01.758-.018.996-.02 2.528-.28 5.062-2.052 5.872-5.548.49-2.114.266-4.452.072-6.662-1.524-17.51-8.144-29.524-18.328-37.054z"/>
</symbol><symbol id="icon-visa" viewBox="0 0 2304 1024">
    <title/>
    <path d="M974.822 536.595L885.74 776.576l-9.501-48.758c-22.182-59.792-70.214-122.518-126.15-147.939l81.494 308.154 96.336-.045 143.264-351.392h-96.362z"/>
    <path d="M1051.181 888.394l56.947-352.128h91.008l-56.989 352.128h-90.966z"/>
    <path d="M1472.285 544.941c-17.984-7.098-46.358-14.816-81.562-14.816-90.032 0-153.28 47.805-153.834 116.186-.579 50.646 45.229 78.896 79.661 95.722 35.539 17.219 47.408 28.272 47.296 43.677-.346 23.59-28.432 34.346-54.534 34.346-36.378 0-55.766-5.309-85.59-18.406l-11.821-5.616-12.736 78.806c21.293 9.808 60.602 18.31 101.459 18.749 95.542 0 157.706-47.264 158.445-120.246.384-40.173-23.933-70.582-76.49-95.686-31.725-16.323-51.344-27.142-51.056-43.686.029-14.611 16.461-30.269 52.147-30.269 29.808-.496 51.242 6.333 68.112 13.536l8.118 4.035 12.384-76.33zm233.417-8.314h-70.307c-21.802 0-38.141 6.205-47.763 29.222l-135.101 322.646h95.587s15.629-43.424 19.165-52.944c10.426 0 103.264.214 116.518.214 2.813 12.278 11.082 52.73 11.082 52.73h84.515l-73.696-351.869zM1593.469 763.53c7.555-20.208 36.256-98.422 36.256-98.422-.56.954 7.466-20.368 12.102-33.549l6.061 30.352s17.488 84.029 21.136 101.619h-75.555z"/>
    <path d="M803.104 536.422H656.32l-.858 6.064c114.122 29.158 189.427 100.758 220.774 185.43l-31.901-161.834c-5.478-22.262-21.453-28.877-41.232-29.661z"/>
    <path d="M380.989 451.334h-58.042L256 149.856l64.141-10.716 45.811 235.938 116.672-232.821h61.613L380.989 451.334z"/>
    <path d="M682.806 352.774h-138.4c-3.779 41.92 15.722 60.211 48.762 60.211 27.683 0 52.035-10.266 78.24-26.765l-.205 41.92c-25.702 16.058-55.405 26.317-90.23 26.317-60.266 0-100.067-34.342-88.106-111.952 10.781-70.013 59.274-112.372 115.526-112.372 64.736 0 86.262 48.609 76.854 109.71-.682 4.458-1.965 9.808-2.442 12.931zm-81.446-85.626c-21.434 0-41.459 16.938-50.902 52.178h85.712c1.581-33.456-8.922-52.178-34.81-52.178zm171.658 59.316L753.988 450H700.42l33.181-215.42h45.542l.029 43.266c18.134-24.973 42.797-45.928 76.547-47.713l.31 53.066c-33.827 2.233-64.259 20.068-83.011 43.265zM855.325 450l33.194-215.42h53.568L908.906 450h-53.581zm65.99-251.538c-17.853 0-30.218-12.491-27.469-30.326 2.816-18.284 19.098-31.223 36.95-31.223 17.414 0 29.702 12.939 26.89 31.223-2.752 17.835-18.957 30.326-36.371 30.326zm169.143-22.749c-18.31 0-29.366 8.025-32.32 27.215l-4.883 31.653h41.075l-.038 43.705h-47.77l-26.458 171.715h-53.12l26.458-171.715h-31.254l6.733-43.705h31.245l5.706-37.015c7.35-47.713 40.458-65.557 84.656-65.557 9.379 0 16.384.897 21.613 1.784l.4 43.705c-5.226-.887-13.12-1.784-22.042-1.784zm.579 274.287l33.19-215.42h53.568L1144.614 450h-53.578zm65.987-251.538c-17.853 0-30.214-12.491-27.466-30.326 2.816-18.284 19.098-31.223 36.95-31.223 17.414 0 29.712 12.939 26.896 31.223-2.749 17.835-18.966 30.326-36.381 30.326zm228.483 154.312h-138.403c-3.776 41.92 15.722 60.211 48.762 60.211 27.683 0 52.029-10.266 78.24-26.765l-.214 41.92c-25.69 16.058-55.402 26.317-90.227 26.317-60.266 0-100.061-34.342-88.109-111.952 10.794-70.013 59.283-112.372 115.536-112.372 64.736 0 86.266 48.609 76.858 109.71-.694 4.458-1.965 9.808-2.442 12.931zm-81.456-85.626c-21.437 0-41.459 16.938-50.896 52.178h85.712c1.581-33.456-8.931-52.178-34.816-52.178zM1544.195 450l.131-29.885c-18.003 18.291-41.45 34.342-71.366 34.342-45.098 0-76.09-33.446-64.896-106.15 12.365-80.271 62.061-115.951 112.058-115.951 20.547 0 36.522 3.569 48.771 8.025l16.01-103.917 54.88-8.464-49.603 322h-45.984zm17.898-165.465c-12.429-6.25-22.221-9.371-40.522-9.371-28.131 0-52.166 22.749-59.453 70.032-6.451 41.91 8.381 61.539 32.042 61.539 19.638 0 36.605-11.584 53.635-29.43l14.298-92.771zm192.195 167.494c-25.363 0-46.029-4.064-65.277-10.81l35.238-228.706 41.562-6.428-15.245 98.985c12.15-10.81 29.03-21.619 49.661-21.619 34.49 0 57.59 25.683 49.155 80.402-9.261 60.128-46.387 88.176-95.094 88.176zm29.936-132.777c-13.53 0-27.11 9.129-39.126 21.302l-11.402 73.974c7.997 3.037 13.533 4.39 25.027 4.39 25.699 0 43.654-15.536 49.379-52.701 4.845-31.421-5.613-46.966-23.878-46.966zm160.765 139.532c-20.733 40.202-41.251 52.701-72.704 52.701-7.107 0-11.053-.682-14.618-1.69l-.262-33.446c5.21 1.354 10.794 2.362 18.573 2.362 11.84 0 22.138-5.398 29.04-17.226l5.376-10.81-34.406-160.806 43.114-5.4 19.968 116.203 54.064-113.839h40.243l-88.387 171.951z"/>
</symbol><symbol id="icon-wear" viewBox="0 0 1024 1024">
    <title/>
    <path d="M284.458 128h159.895l67.661 67.66L579.675 128h159.893l204.71 153.531-60.715 242.849-115.55-38.517v452.803H256.012V485.863L140.461 524.38 79.748 281.531 284.456 128zm28.444 85.333L176.277 315.802l24.621 98.484 140.449-46.816v485.864h341.334V367.47l140.446 46.816 24.623-98.484-136.627-102.469h-96.102L512.015 316.339 409.008 213.333h-96.105z"/>
    <path d="M554.667 426.667c0 23.564-19.103 42.667-42.667 42.667s-42.667-19.103-42.667-42.667S488.436 384 512 384s42.667 19.103 42.667 42.667z"/>
    <path d="M554.667 597.333C554.667 620.897 535.564 640 512 640s-42.667-19.103-42.667-42.667 19.103-42.667 42.667-42.667 42.667 19.103 42.667 42.667z"/>
</symbol><symbol id="icon-youtube" viewBox="0 0 1024 1024">
    <path d="M512 0c282.78 0 512 229.22 512 512s-229.22 512-512 512S0 794.78 0 512 229.22 0 512 0zm72.18 518.7l-113.06 62c-4.9 2.66-9.32-.9-9.32-6.48V446.94c0-5.66 4.56-9.22 9.48-6.42L585.1 505.8c5.04 2.86 4.18 10.14-.92 12.9zm178.86-73.12c0-60.38-48.94-109.3-109.3-109.3H370.26c-60.36 0-109.3 48.92-109.3 109.3v132.84c0 60.38 48.94 109.3 109.3 109.3h283.5c60.34 0 109.28-48.92 109.28-109.3V445.58z"/>
</symbol><symbol id="icon-youtubeS" viewBox="0 0 1024 1024">
    <path d="M973.259 56.2c23.064 30.477 33.458 80.996 38.574 142.412 6.768 91.652 9.487 201.633 12.086 315.281-3.364 115.763-4.734 232.513-12.086 315.281-5.801 63.532-18.129 106.074-38.715 131.878-26.186 25.763-76.423 47.518-148.053 52.674-87.119 7.433-194.604 7.352-313.187 10.273-131.817-2.256-221.213-1.289-314.999-10.233-73.16-5.076-121.02-26.569-150.47-52.513-21.815-29.288-28.2-60.43-34.243-133.429C4.612 743.525 2.94 629.293.08 514.517c4.291-114.172 4.552-229.25 12.146-315.261 5.096-67.862 13.133-113.487 33.74-142.493 28.906-24.635 78.216-36.882 151.779-42.925C298.461 2.054 403.327-.262 511.737 0 623.31.181 730.412 3.364 825.971 12.771c64.458 5.157 117.797 16.256 147.186 43.429z"/>
    <path d="M798.013 370.998c0-53.218-39.158-96.043-87.522-96.043-65.526-3.082-132.361-4.25-200.606-4.25h-21.191c-68.124 0-135.08 1.188-200.606 4.25-48.344 0-87.401 43.046-87.401 96.285-2.941 42.2-4.27 84.36-4.15 126.419s1.188 84.219 4.029 126.439c0 53.218 39.158 96.405 87.401 96.405 68.849 3.203 139.451 4.613 211.262 4.492q107.867.363 211.262-4.492c48.344 0 87.522-43.167 87.522-96.405 2.84-42.301 4.15-84.34 4.029-126.56q.322-63.169-4.029-126.54zM441.378 613.683V381.271l171.519 116.146z"/>
</symbol></svg>