<?xml version="1.0" encoding="UTF-8"?><!DOCTYPE svg PUBLIC "-//W3C//DTD SVG 1.1//EN" "http://www.w3.org/Graphics/SVG/1.1/DTD/svg11.dtd"><svg xmlns="http://www.w3.org/2000/svg" xmlns:xlink="http://www.w3.org/1999/xlink"><symbol id="icon-alcohol" viewBox="0 0 1024 1024">
    <title/>
    <path d="M725.333 938.667H384v-85.333h341.333v85.333z"/>
    <path d="M512 896.001V666.312h85.333v229.689H512z"/>
    <path d="M717.974 128H896.01v85.333H766.846L591.477 512.256l-73.602-43.18 200.099-341.077z"/>
    <path d="M213.333 298.667H896L554.667 753.78 213.334 298.667zM384 384l170.667 227.555L725.334 384H384.001z"/>
    <path d="M256 213.333c-47.128 0-85.333 38.205-85.333 85.333s38.205 85.333 85.333 85.333c15.614 0 30.128-4.154 42.636-11.39l42.729 73.865c-25.146 14.546-54.35 22.858-85.364 22.858-94.257 0-170.667-76.41-170.667-170.667s76.41-170.667 170.667-170.667 170.667 76.41 170.667 170.667h-85.333c0-47.128-38.205-85.333-85.333-85.333z"/>
</symbol><symbol id="icon-appliances" viewBox="0 0 1024 1024">
    <title/>
    <path d="M768 213.333v640H256v-640h512zM256 128c-47.128 0-85.333 38.205-85.333 85.333v640c0 47.13 38.205 85.333 85.333 85.333h512c47.13 0 85.333-38.204 85.333-85.333v-640C853.333 166.205 815.129 128 768 128H256z"/>
    <path d="M384 298.667c0 23.564-19.103 42.667-42.667 42.667s-42.667-19.103-42.667-42.667S317.769 256 341.333 256 384 275.103 384 298.667z"/>
    <path d="M512 298.667c0 23.564-19.103 42.667-42.667 42.667s-42.667-19.103-42.667-42.667S445.769 256 469.333 256 512 275.103 512 298.667z"/>
    <path d="M512 725.333c-70.692 0-128-57.308-128-128s57.308-128 128-128c70.692 0 128 57.308 128 128s-57.308 128-128 128zm0 85.334c117.821 0 213.333-95.513 213.333-213.333S629.82 384.001 512 384.001c-117.821 0-213.333 95.513-213.333 213.333S394.18 810.667 512 810.667z"/>
</symbol><symbol id="icon-arrow-right" viewBox="0 0 6 9">
    <path d="M.994.7l3.5 3.7-3.5 4 .8.6 4.2-4.6-4.2-4.4-.8.7z"/>
</symbol><symbol id="icon-arrow-small-down" viewBox="0 0 1024 1024">
    <path d="M294.896 387.773c16.609-16.609 43.533-16.623 60.16-.032l165.742 165.381 165.747-165.381c16.623-16.591 43.55-16.576 60.156.032 16.623 16.622 16.623 43.569 0 60.192L520.798 673.868 294.896 447.965c-16.622-16.623-16.622-43.57 0-60.192z"/>
</symbol><symbol id="icon-arrow-small" viewBox="0 0 1024 1024">
    <path d="M387.773 729.104c-16.609-16.609-16.623-43.533-.032-60.16l165.381-165.742-165.381-165.747c-16.591-16.623-16.576-43.55.032-60.156 16.622-16.623 43.569-16.623 60.192 0l225.903 225.903-225.903 225.902c-16.623 16.622-43.57 16.622-60.192 0z"/>
</symbol><symbol id="icon-arrow" viewBox="0 0 24 24">
    <path d="M12 3a1 1 0 0 0-1 1v13.17l-4.88-4.88a1 1 0 0 0-1.414 1.416L12 21l7.294-7.295a.997.997 0 0 0-1.41-1.411l-4.884 4.876V4a1 1 0 0 0-1-1z"/>
</symbol><symbol id="icon-avatar" viewBox="0 0 24 24">
    <path clip-rule="evenodd" d="M18 7.5a6 6 0 1 1-12 0 6 6 0 0 1 12 0zm-2 0a4 4 0 1 1-8 0 4 4 0 0 1 8 0z" fill-rule="evenodd"/>
    <path d="M1.5 22.5c.912.41.911.411.911.411l.002-.002a2.445 2.445 0 0 1 .097-.19c.076-.14.197-.348.366-.602.339-.508.868-1.192 1.622-1.877C5.992 18.882 8.384 17.5 12 17.5c3.615 0 6.008 1.382 7.502 2.74a10.239 10.239 0 0 1 1.622 1.877 7.888 7.888 0 0 1 .447.758l.016.034.001.002.912-.411c.912-.41.911-.411.911-.411v-.002l-.001-.002-.004-.008-.01-.02a6.507 6.507 0 0 0-.15-.292 9.863 9.863 0 0 0-.458-.757 12.234 12.234 0 0 0-1.94-2.248C19.042 17.118 16.185 15.5 12 15.5c-4.185 0-7.042 1.618-8.848 3.26a12.23 12.23 0 0 0-1.94 2.248 9.834 9.834 0 0 0-.577.982 3.97 3.97 0 0 0-.032.067l-.01.02-.003.008-.001.002v.002s-.001 0 .911.411z"/>
</symbol><symbol id="icon-basket" viewBox="0 0 1024 1024">
    <path d="M12.8 115.2c0-21.208 17.192-38.4 38.4-38.4h87.716c47.918 0 90.832 29.662 107.766 74.488l20.234 53.557c.612-.03 1.231-.045 1.851-.046l601.871-.512c82.097-.07 137.917 83.307 106.57 159.186l-99.049 239.762a89.598 89.598 0 0 1-66.783 53.944l-331.942 60.352c-54.712 9.948-108.721-20.608-128.374-72.63L174.837 178.428a38.4 38.4 0 0 0-35.922-24.829H51.199c-21.208 0-38.4-17.192-38.4-38.4zm283.103 166.377l127.002 336.184c6.551 17.341 24.556 27.525 42.793 24.21l331.94-60.352a12.803 12.803 0 0 0 9.541-7.708l99.049-239.762c10.45-25.29-8.156-53.084-35.523-53.061l-574.802.489z"/>
    <path d="M422.4 870.4c0 42.415-34.385 76.8-76.8 76.8s-76.8-34.385-76.8-76.8 34.385-76.8 76.8-76.8 76.8 34.385 76.8 76.8z"/>
    <path d="M883.2 870.4c0 42.415-34.385 76.8-76.8 76.8s-76.8-34.385-76.8-76.8 34.385-76.8 76.8-76.8 76.8 34.385 76.8 76.8z"/>
</symbol><symbol id="icon-beauty" viewBox="0 0 1024 1024">
    <title/>
    <path d="M237.333 853.335c-20.034 0-66.667-28.108-66.667-104.667s46.633-104.666 66.667-104.666S304 672.11 304 748.668s-46.633 104.667-66.667 104.667zm0 85.334c83.947 0 152-85.066 152-190s-68.053-190-152-190-152 85.066-152 190 68.053 190 152 190z"/>
    <path d="M469.333 896c0-23.564 19.103-42.667 42.667-42.667h298.667c23.564 0 42.667 19.103 42.667 42.667s-19.103 42.667-42.667 42.667H512c-23.564 0-42.667-19.103-42.667-42.667z"/>
    <path d="M781.888 763.583c-13.749 36.867-30.323 67.639-46.949 89.75H587.728c-16.625-22.112-33.2-52.884-46.949-89.75C521.896 712.951 512 660.605 512 621.712c0-51.228 16.541-71.904 32.905-83.56C566.503 522.769 604.32 512 661.333 512s94.83 10.768 116.428 26.152c16.364 11.656 32.905 32.332 32.905 83.56 0 38.894-9.896 91.239-28.779 141.871zm-9.323 175.084C846.056 871.774 896 723.837 896 621.712c0-148.113-105.066-195.045-234.667-195.045s-234.667 46.932-234.667 195.045c0 102.125 49.944 250.062 123.435 316.955h222.463z"/>
    <path d="M725.333 341.333v85.333h-128v-85.333h128zm-128-85.333C550.205 256 512 294.205 512 341.333v85.333c0 47.128 38.205 85.333 85.333 85.333h128c47.128 0 85.333-38.205 85.333-85.333v-85.333c0-47.128-38.205-85.333-85.333-85.333h-128z"/>
    <path d="M682.667 213.333H640V256h42.667v-42.667zM640 128c-47.128 0-85.333 38.205-85.333 85.333V256c0 47.128 38.205 85.333 85.333 85.333h42.667C729.795 341.333 768 303.128 768 256v-42.667C768 166.205 729.795 128 682.667 128H640z"/>
    <path d="M642.667 280h50.667v50.667h-50.667V280z"/>
    <path d="M340.428 268.308c75.3-69.151 171.494-97.641 256.905-97.641V256c-67.6 0-142.073 22.71-199.187 75.159-56.207 51.617-99.48 135.587-99.48 266.174h-85.333c0-151.013 50.888-259.043 127.095-329.026z"/>
</symbol><symbol id="icon-burger" viewBox="0 0 1024 1024">
    <title/>
    <path d="M85.333 128h853.333c23.564 0 42.667 19.103 42.667 42.667s-19.103 42.667-42.667 42.667H85.333c-23.564 0-42.667-19.103-42.667-42.667S61.769 128 85.333 128z"/>
    <path d="M85.333 469.333h853.333c23.564 0 42.667 19.103 42.667 42.667s-19.103 42.667-42.667 42.667H85.333c-23.564 0-42.667-19.103-42.667-42.667s19.103-42.667 42.667-42.667z"/>
    <path d="M85.333 810.667h853.333c23.564 0 42.667 19.103 42.667 42.667s-19.103 42.667-42.667 42.667H85.333c-23.564 0-42.667-19.103-42.667-42.667s19.103-42.667 42.667-42.667z"/>
</symbol><symbol id="icon-business" viewBox="0 0 1024 1024">
    <title/>
    <path d="M384 213.333h42.667v469.333H384V213.333z"/>
    <path d="M256 213.333h85.333v469.333H256V213.333z"/>
    <path d="M469.333 213.333h85.333v469.333h-85.333V213.333z"/>
    <path d="M896 213.333h42.667v597.333H896V213.333z"/>
    <path d="M170.667 213.333h42.667v469.333h-42.667V213.333z"/>
    <path d="M597.333 213.333H640v469.333h-42.667V213.333z"/>
    <path d="M682.667 213.333H768v469.333h-85.333V213.333z"/>
    <path d="M810.667 213.333h42.667v469.333h-42.667V213.333z"/>
    <path d="M85.333 213.333H128v597.333H85.333V213.333z"/>
</symbol><symbol id="icon-catalog" viewBox="0 0 1024 1024">
    <path d="M906.351 298.666L725.333 479.684 544.311 298.666l181.022-181.019zm-422.379-60.339c-33.327 33.324-33.327 87.355 0 120.679L664.99 540.028c33.327 33.323 87.36 33.323 120.683 0l181.018-181.022c33.323-33.324 33.323-87.355 0-120.679L785.673 57.308c-33.323-33.325-87.356-33.325-120.683 0z"/>
    <path d="M298.667 170.667c23.564 0 42.667 19.103 42.667 42.667v170.667c0 23.565-19.103 42.667-42.667 42.667H128c-23.564 0-42.667-19.102-42.667-42.667V213.334c0-23.564 19.103-42.667 42.667-42.667h170.667zM128 85.333c-70.692 0-128 57.308-128 128V384c0 70.694 57.308 128 128 128h170.667c70.692 0 128-57.306 128-128V213.333c0-70.692-57.308-128-128-128z"/>
    <path d="M298.667 682.667c23.564 0 42.667 19.102 42.667 42.667v170.667c0 23.565-19.103 42.667-42.667 42.667H128c-23.564 0-42.667-19.102-42.667-42.667V725.334c0-23.565 19.103-42.667 42.667-42.667h170.667zM128 597.333c-70.692 0-128 57.306-128 128V896c0 70.694 57.308 128 128 128h170.667c70.692 0 128-57.306 128-128V725.333c0-70.694-57.308-128-128-128z"/>
    <path d="M810.667 682.667c23.565 0 42.667 19.102 42.667 42.667v170.667c0 23.565-19.102 42.667-42.667 42.667H640c-23.565 0-42.667-19.102-42.667-42.667V725.334c0-23.565 19.102-42.667 42.667-42.667h170.667zM640 597.333c-70.694 0-128 57.306-128 128V896c0 70.694 57.306 128 128 128h170.667c70.694 0 128-57.306 128-128V725.333c0-70.694-57.306-128-128-128z"/>
</symbol><symbol id="icon-close" viewBox="0 0 1024 1024">
    <path d="M941.132 178.985c26.547-26.546 26.547-69.587 0-96.112-26.543-26.546-69.586-26.546-96.112 0L512 415.892 178.981 82.873c-26.546-26.546-69.587-26.546-96.112 0s-26.546 69.587 0 96.112l333.019 333.019-333.019 333.02c-26.546 26.547-26.546 69.586 0 96.112s69.587 26.547 96.112 0L512 608.116l333.02 333.02c26.547 26.547 69.59 26.547 96.112 0 26.547-26.547 26.547-69.586 0-96.112l-333.02-333.02z"/>
</symbol><symbol id="icon-facebook" viewBox="0 0 430 430">
    <path d="M158.1 83.3v59.2h-43.4v72.4h43.4v215.2h89.1V214.9H307s5.6-34.7 8.3-72.7h-67.8V92.7c0-7.4 9.7-17.4 19.3-17.4h48.6V-.1h-66c-93.5.1-91.3 72.6-91.3 83.4z"/>
</symbol><symbol id="icon-for-home" viewBox="0 0 1024 1024">
    <title/>
    <path d="M213.333 256c0-70.692 57.308-128 128-128H640c70.694 0 128 57.308 128 128v341.333h-85.333V256c0-23.564-19.102-42.667-42.667-42.667H341.333c-23.564 0-42.667 19.103-42.667 42.667v341.333h-85.333V256z"/>
    <path d="M469.333 298.667c0 23.564-19.103 42.667-42.667 42.667s-42.667-19.103-42.667-42.667S403.102 256 426.666 256s42.667 19.103 42.667 42.667z"/>
    <path d="M597.333 298.667c0 23.564-19.103 42.667-42.667 42.667s-42.667-19.103-42.667-42.667S531.102 256 554.666 256s42.667 19.103 42.667 42.667z"/>
    <path d="M469.333 426.667c0 23.564-19.103 42.667-42.667 42.667s-42.667-19.103-42.667-42.667S403.102 384 426.666 384s42.667 19.103 42.667 42.667z"/>
    <path d="M597.333 426.667c0 23.564-19.103 42.667-42.667 42.667s-42.667-19.103-42.667-42.667S531.102 384 554.666 384s42.667 19.103 42.667 42.667z"/>
    <path d="M213.333 512v298.667h-42.667V512h42.667zm-42.666-85.333c-47.128 0-85.333 38.205-85.333 85.333v384h213.333V512c0-47.128-38.205-85.333-85.333-85.333h-42.667z"/>
    <path d="M682.667 640v170.667h-384V640h384zm-469.334-85.333V896H768V554.667H213.333z"/>
    <path d="M810.667 512v298.667H768V512h42.667zM768 426.667c-47.128 0-85.333 38.205-85.333 85.333v384H896V512c0-47.128-38.205-85.333-85.333-85.333H768z"/>
    <path d="M170.667 853.333H256v85.333h-85.333v-85.333z"/>
    <path d="M725.333 853.333h85.333v85.333h-85.333v-85.333z"/>
</symbol><symbol id="icon-for-kids" viewBox="0 0 1024 1024">
    <title/>
    <path d="M286.613 407.55l-42.991-36.379c-16.391-13.87-30.289-39.555-30.289-72.505 0-58.904 39.059-85.333 62.75-85.333 15.528 0 34.115 8.705 48.059 31.149l38.873 62.565 67.572-29.316C462.901 263.712 498.196 256 535.291 256c36.224 0 70.699 7.345 102.366 20.728l66.62 28.152 38.69-61.101c13.884-21.92 32.213-30.446 47.573-30.446 23.748 0 62.793 26.446 62.793 85.333 0 31.975-13.103 57.181-28.924 71.311l-41.126 36.727 16.585 52.586c9.387 29.761 14.507 61.804 14.507 95.377 0 169.212-129.114 298.667-279.083 298.667S256.208 723.879 256.208 554.667c0-32.771 4.889-64.099 13.859-93.284l16.545-53.832zm110.012-208.102C369.75 156.193 325.792 128 276.083 128 194.291 128 128 204.411 128 298.667c0 56.495 23.792 106.583 60.5 137.646-11.459 37.281-17.625 77.057-17.625 118.354 0 212.079 163.167 384 364.417 384s364.416-171.921 364.416-384c0-42.292-6.46-82.99-18.458-121.041 34.957-31.219 57.417-80.063 57.417-134.959 0-94.255-66.291-170.667-148.126-170.667-49.165 0-92.749 27.62-119.667 70.125-41.916-17.713-87.667-27.458-135.582-27.458-49.083 0-95.917 10.234-138.667 28.781z"/>
    <path d="M597.333 576c0 35.346-28.654 64-64 64s-64-28.654-64-64c0-35.346 28.654-64 64-64s64 28.654 64 64z"/>
    <path d="M682.667 426.667c0 23.564-19.103 42.667-42.667 42.667s-42.667-19.103-42.667-42.667S616.436 384 640 384s42.667 19.103 42.667 42.667z"/>
    <path d="M469.333 426.667c0 23.564-19.103 42.667-42.667 42.667s-42.667-19.103-42.667-42.667S403.102 384 426.666 384s42.667 19.103 42.667 42.667z"/>
</symbol><symbol id="icon-gamers" viewBox="0 0 1024 1024">
    <title/>
    <path d="M298.667 298.667V384h-85.333v85.333h85.333v85.333H384v-85.333h85.333V384H384v-85.333h-85.333z"/>
    <path d="M682.667 384c23.565 0 42.667-19.103 42.667-42.667s-19.102-42.667-42.667-42.667S640 317.769 640 341.333 659.102 384 682.667 384z"/>
    <path d="M725.333 512c0 23.565-19.102 42.667-42.667 42.667S639.999 535.565 639.999 512s19.102-42.667 42.667-42.667 42.667 19.102 42.667 42.667z"/>
    <path d="M597.333 469.333c23.565 0 42.667-19.102 42.667-42.667s-19.102-42.667-42.667-42.667-42.667 19.103-42.667 42.667 19.102 42.667 42.667 42.667z"/>
    <path d="M810.667 426.667c0 23.565-19.102 42.667-42.667 42.667s-42.667-19.102-42.667-42.667C725.333 403.103 744.435 384 768 384s42.667 19.103 42.667 42.667z"/>
    <path d="M93.806 900.237c46.488 23.245 102.417 16.068 141.532-18.159l136.181-119.155c80.432-70.379 200.53-70.379 280.961 0l136.183 119.155c39.113 34.227 95.044 41.404 141.53 18.159l13.427-6.711c48.235-24.119 76.181-75.883 69.879-129.442l-57.101-485.358C946.286 192.776 873.445 128 786.9 128h-74.018a128 128 0 0 0-57.242 13.513l-86.4 43.198a127.99 127.99 0 0 1-114.483 0l-86.398-43.198A127.995 127.995 0 0 0 311.116 128h-74.018C150.555 128 77.712 192.776 67.6 278.726L10.499 764.079c-6.301 53.564 21.644 105.327 69.88 129.446l13.425 6.711zm513.601-639.201l86.396-43.198a42.667 42.667 0 0 1 19.081-4.504h74.018c43.273 0 79.693 32.388 84.749 75.363l57.101 485.354c2.099 17.856-7.215 35.11-23.292 43.149l-13.427 6.711a42.665 42.665 0 0 1-47.177-6.05L708.673 698.702c-112.602-98.53-280.738-98.53-393.345 0L179.147 817.861a42.665 42.665 0 0 1-47.177 6.05l-13.426-6.711c-16.079-8.038-25.393-25.293-23.293-43.149l57.1-485.354c5.056-42.975 41.478-75.363 84.749-75.363h74.018a42.667 42.667 0 0 1 19.081 4.504l86.397 43.198a213.333 213.333 0 0 0 190.812 0z"/>
</symbol><symbol id="icon-garden" viewBox="0 0 1024 1024">
    <title/>
    <path d="M256 341.333h85.333v597.333H256V341.333z"/>
    <path d="M640 128h85.333v597.333H640V128z"/>
    <path d="M85.333 341.333V256H512v85.333H85.333z"/>
    <path d="M469.333 512H896v213.333c0 35.272-10.231 87.23-42.175 131.597-33.51 46.542-88.986 81.737-171.159 81.737s-137.649-35.194-171.159-81.737c-31.944-44.367-42.175-96.325-42.175-131.597V512zm85.334 85.333v128c0 21.617 6.836 54.992 26.092 81.737 17.69 24.569 47.547 46.263 101.908 46.263s84.218-21.695 101.908-46.263c19.256-26.745 26.092-60.12 26.092-81.737v-128h-256z"/>
    <path d="M85.333 128h85.333v128H85.333V128z"/>
    <path d="M256 128h85.333v128H256V128z"/>
    <path d="M426.667 128H512v128h-85.333V128z"/>
</symbol><symbol id="icon-heart" viewBox="0 0 24 24">
    <path d="M681.6 166C614 166 552 197.6 512 249.6c-40-52-102-83.6-169.6-83.6C224.2 166 128 262.6 128 381.4c0 55.8 21.2 108.8 59.8 149.2L512 858l318.4-321.6c42-40.6 65.6-95.8 65.6-155C896 262.6 799.8 166 681.6 166z"/>
</symbol><symbol id="icon-help-center" viewBox="0 0 1024 1024">
    <title/>
    <path d="M426.667 384c0-14.506 4.702-37.214 17.557-55.07 11.29-15.68 30.481-30.263 67.776-30.263s56.486 14.583 67.776 30.263c12.855 17.856 17.557 40.564 17.557 55.07 0 28.469-16.631 43.255-56.798 71.949l-3.588 2.556C502.165 483.247 448 521.788 448 597.334c0 23.565 19.102 42.667 42.667 42.667s42.667-19.102 42.667-42.667c0-28.471 16.631-43.255 56.798-71.949l3.588-2.556c34.782-24.742 88.947-63.283 88.947-138.829 0-28.161-8.098-69.453-33.643-104.93-27.11-37.653-71.919-65.737-137.024-65.737s-109.915 28.083-137.025 65.737c-25.544 35.477-33.641 76.769-33.641 104.93 0 23.564 19.103 42.667 42.667 42.667s42.667-19.103 42.667-42.667z"/>
    <path d="M533.333 725.333c0-23.565-19.102-42.667-42.667-42.667s-42.667 19.102-42.667 42.667v21.333c0 23.565 19.102 42.667 42.667 42.667s42.667-19.102 42.667-42.667z"/>
    <path d="M981.333 512c0-259.206-210.129-469.333-469.333-469.333C252.794 42.667 42.667 252.795 42.667 512c0 259.204 210.128 469.333 469.333 469.333S981.333 771.204 981.333 512zM896 512c0 212.079-171.921 384-384 384-212.077 0-384-171.921-384-384 0-212.077 171.923-384 384-384 212.079 0 384 171.923 384 384z"/>
</symbol><symbol id="icon-instagram" viewBox="0 0 128 128">
    <path class="cls-1" d="M83 23a22 22 0 0 1 22 22v38a22 22 0 0 1-22 22H45a22 22 0 0 1-22-22V45a22 22 0 0 1 22-22h38m0-8H45a30.09 30.09 0 0 0-30 30v38a30.09 30.09 0 0 0 30 30h38a30.09 30.09 0 0 0 30-30V45a30.09 30.09 0 0 0-30-30z"/>
    <path class="cls-1" d="M90.14 32a5.73 5.73 0 1 0 5.73 5.73A5.73 5.73 0 0 0 90.14 32z"/>
    <path class="cls-1" d="M64.27 46.47A17.68 17.68 0 1 1 46.6 64.14a17.7 17.7 0 0 1 17.67-17.67m0-8A25.68 25.68 0 1 0 90 64.14a25.68 25.68 0 0 0-25.73-25.67z"/>
</symbol><symbol id="icon-instruments" viewBox="0 0 1024 1024">
    <title/>
    <path d="M469.333 768v85.333h-256V768h256zm-256-85.333C166.205 682.667 128 720.872 128 768v85.333c0 47.128 38.205 85.333 85.333 85.333h256c47.128 0 85.333-38.205 85.333-85.333V768c0-47.128-38.205-85.333-85.333-85.333h-256z"/>
    <path d="M554.667 213.333c23.565 0 42.667 19.103 42.667 42.667v128c0 23.564-19.102 42.667-42.667 42.667H256c-23.564 0-42.667-19.103-42.667-42.667V256c0-23.564 19.103-42.667 42.667-42.667h298.667zM256 128c-70.692 0-128 57.308-128 128v128c0 70.692 57.308 128 128 128h298.667c70.694 0 128-57.308 128-128V256c0-70.692-57.306-128-128-128H256z"/>
    <path d="M768 298.667v42.667h-85.333v-42.667H768zm-85.333-85.334c-47.128 0-85.333 38.205-85.333 85.333v42.667c0 47.128 38.205 85.333 85.333 85.333H768c47.128 0 85.333-38.205 85.333-85.333v-42.667c0-47.128-38.205-85.333-85.333-85.333h-85.333z"/>
    <path d="M810.667 298.667h128v42.667h-128v-42.667z"/>
    <path d="M331.331 512l-21.333 170.667h41.339L372.67 512h-41.339zM256 426.667L213.333 768h213.333l42.667-341.333H256z"/>
</symbol><symbol id="icon-laptops" viewBox="0 0 1024 1024">
    <title/>
    <path d="M256 213.333h512V640H256V213.333zM213.333 128c-23.564 0-42.667 19.103-42.667 42.667v554.667h682.667V170.667c0-23.564-19.102-42.667-42.667-42.667H213.333z"/>
    <path d="M170.667 725.333h682.667v85.333H170.667v-85.333zM128 640c-23.564 0-42.667 19.103-42.667 42.667v170.667c0 23.564 19.103 42.667 42.667 42.667h768c23.565 0 42.667-19.103 42.667-42.667V682.667C938.667 659.103 919.565 640 896 640H128z"/>
    <path d="M512 298.667c0 23.564-19.103 42.667-42.667 42.667s-42.667-19.103-42.667-42.667S445.769 256 469.333 256 512 275.103 512 298.667z"/>
    <path d="M384 298.667c0 23.564-19.103 42.667-42.667 42.667s-42.667-19.103-42.667-42.667S317.769 256 341.333 256 384 275.103 384 298.667z"/>
    <path d="M384 426.667c0 23.564-19.103 42.667-42.667 42.667s-42.667-19.103-42.667-42.667S317.769 384 341.333 384 384 403.103 384 426.667z"/>
</symbol><symbol id="icon-login" viewBox="0 0 1024 1024">
    <path d="M768 320c0-141.385-114.615-256-256-256-141.387 0-256.002 114.615-256.002 256S370.613 576 512 576c141.385 0 256-114.615 256-256zm-85.333 0c0 94.257-76.412 170.667-170.667 170.667-94.258 0-170.669-76.41-170.669-170.667S417.741 149.333 512 149.333c94.255 0 170.667 76.41 170.667 170.667z"/>
    <path d="M63.998 960c38.909 17.51 38.892 17.549 38.892 17.549l.049-.102c.121-.256.352-.742.698-1.446a196.518 196.518 0 0 1 3.459-6.643c3.247-5.982 8.388-14.865 15.603-25.69 14.459-21.687 37.059-50.876 69.2-80.098C255.652 805.616 357.738 746.668 512 746.668c154.257 0 256.346 58.948 320.098 116.902 32.141 29.222 54.741 58.411 69.201 80.098 7.215 10.825 12.352 19.708 15.603 25.69a196.029 196.029 0 0 1 3.456 6.643c.346.704.58 1.19.7 1.446l.047.102S921.088 977.511 960 960c38.908-17.51 38.886-17.553 38.886-17.553l-.021-.051-.055-.115-.137-.307-.414-.887c-.337-.713-.794-1.664-1.374-2.837a276.368 276.368 0 0 0-4.988-9.604c-4.356-8.017-10.812-19.136-19.597-32.311-17.545-26.313-44.544-61.124-82.803-95.902-77.043-70.046-198.959-139.098-377.498-139.098-178.542 0-300.456 69.052-377.503 139.098-38.259 34.778-65.259 69.589-82.8 95.902-8.785 13.175-15.245 24.294-19.597 32.311a281.07 281.07 0 0 0-4.991 9.604 179.002 179.002 0 0 0-1.371 2.837l-.413.887-.14.307-.053.115-.023.051s-.02.043 38.889 17.553z"/>
</symbol><symbol id="icon-logo" viewBox="0 0 6144 1024">
    <path d="M1039.304 514.191c-1.48 282.655-235.397 511.263-521.869 509.801C230.222 1023.262-1.473 792.463.007 509.808S235.403-1.454 521.876.006c287.214 1.461 518.907 231.529 517.427 514.184z"/>
    <path d="M273.16 393.679c17.764 3.653 37.012-17.528 43.674-47.475 6.661-29.944-2.222-57.7-19.986-61.35-11.845-2.921-24.428 6.574-34.051 21.911 8.141 4.383 11.843 13.878 8.141 22.641-3.702 7.304-11.843 11.686-19.246 10.227-3.701 26.294 5.181 50.396 21.468 54.047zm-85.129-62.812c14.064-74.499 57.739-128.546 96.971-121.242 39.974 7.304 59.96 73.767 45.896 148.265-13.325 74.499-56.998 128.548-96.231 121.244-39.973-7.304-60.7-73.769-46.635-148.268zm687.684 62.812C432.31 685.829 126.592 537.564 126.592 537.564c-4.441 101.522 171.736 414.121 383.445 418.504 210.227 3.653 365.678-562.388 365.678-562.388zm-644.009 97.14c46.636 8.765 96.97-49.664 112.517-130.737 15.544-81.07-9.623-154.109-55.519-162.873-46.635-8.764-96.972 49.666-112.516 130.738-16.285 81.802 8.883 154.839 55.518 162.872zm159.152-41.631c15.544-16.799 33.311-33.597 53.297-48.934 91.789-69.386 191.721-86.915 224.292-38.71 12.585 18.99 13.325 44.552 3.702 73.037 32.571-53.317 42.934-102.252 22.948-129.277-34.051-45.281-138.424-13.875-234.657 69.386-27.389 23.373-50.335 49.667-69.581 74.499zM493.01 227.885c73.285-48.935 199.864-75.959 267.228 26.294-41.454-235.181-216.891-100.061-267.228-26.294zm532.974 286.306c-1.482 275.351-228.736 497.385-508.547 495.926-279.07-1.462-503.362-225.687-503.362-501.038 0-178.212 90.309-306.758 176.177-375.413 105.113-83.993 176.919-19.72 202.086 29.215-2.962-20.451-11.845-80.341-34.79-123.433 51.814-17.529 107.333-27.024 165.071-26.293 279.071 2.191 504.105 225.686 503.365 501.037zM706.939 766.172c-54.776 97.139-122.88 176.75-199.124 175.288-47.375-.73-92.529-18.99-133.983-46.743 13.325-23.373 96.23-142.423 333.107-128.545z"/>
    <path d="M5713.178 566.779l78.464-188.436 78.464 188.436h-156.928zm192.46-303.836h-227.251l-238.362 503.959h190.259l41.446-98.601h240.563l40.73 98.601h190.976l-238.362-503.959z"/>
    <path d="M4163.866 392.218h211.712V766.17h173.952V392.218h212.454V262.943h-598.118v129.275z"/>
    <path d="M3758.208 565.317h299.059V464.525h-299.059v-74.499h350.131V262.942h-518.17v503.227h530.765V642.006h-362.726v-76.69z"/>
    <path d="M3515.418 352.778v-89.836h-564.07v129.275h303.488l-307.942 284.846v89.106h569.984V636.894h-305.715l304.256-284.116z"/>
    <path d="M2556.055 647.852c-111.035 0-179.139-37.248-179.139-132.928s67.364-132.198 179.139-132.198c110.287 0 179.868 36.518 179.868 132.198s-68.838 132.928-179.868 132.928zm0-397.325c-222.812 0-361.976 84.723-361.976 264.396 0 178.941 139.164 265.126 361.976 265.126 223.542 0 362.729-85.455 362.729-265.126 0-179.674-139.187-264.396-362.729-264.396z"/>
    <path d="M1724.767 381.263h168.773c52.557 0 72.545 27.756 72.545 63.542 0 24.102-14.804 67.195-75.505 67.195h-165.814V381.263zm418.235 63.542c0-106.634-68.841-182.592-233.915-182.592h-356.055v503.959h171.735V623.749h111.035l123.62 142.423h214.671l-143.608-163.604c71.063-29.947 112.517-95.68 112.517-157.763z"/>
    <path d="M5206.861 262.943l-211.712 184.054V262.943h-171.725V766.17h171.725V627.4l65.152-54.047 147.302 192.817h214.656L5184.64 468.908l245.76-205.965h-223.539z"/>
</symbol><symbol id="icon-mastercard" viewBox="0 0 2304 1024">
    <title/>
    <path d="M284.747 610.746a148.484 148.484 0 0 0-34.086-16.026 120.712 120.712 0 0 0-37.146-5.715 95.632 95.632 0 0 0-23.234 2.65 57.502 57.502 0 0 0-18.086 7.664 37.621 37.621 0 0 0-11.686 11.984 30.144 30.144 0 0 0-4.174 15.747 24.697 24.697 0 0 0 3.617 13.936 29.498 29.498 0 0 0 10.434 9.478 67.325 67.325 0 0 0 16.556 6.41 210.281 210.281 0 0 0 22.121 4.32l17.53 2.368a193.059 193.059 0 0 1 30.051 6.691 91.57 91.57 0 0 1 26.156 12.682 62.676 62.676 0 0 1 18.504 20.486 60.145 60.145 0 0 1 6.956 29.962 69.784 69.784 0 0 1-8.208 34.282 75.635 75.635 0 0 1-22.121 25.085 102.006 102.006 0 0 1-32.416 15.469 141.397 141.397 0 0 1-39.094 5.296c-8.948-.045-17.88-.79-26.712-2.23a187.03 187.03 0 0 1-27.825-6.41 165.2 165.2 0 0 1-25.043-10.733 111.243 111.243 0 0 1-22.121-14.909l22.121-32.752a81.603 81.603 0 0 0 15.721 11.149 137.667 137.667 0 0 0 41.738 14.774 123.222 123.222 0 0 0 22.399 2.09c7.764.099 15.513-.694 23.095-2.368a63.568 63.568 0 0 0 18.782-7.386 39.827 39.827 0 0 0 12.66-11.846 27.91 27.91 0 0 0 4.73-16.026 24.671 24.671 0 0 0-13.912-22.717 130.586 130.586 0 0 0-43.407-11.706l-19.756-2.787a153.82 153.82 0 0 1-27.825-6.55 80.156 80.156 0 0 1-24.068-12.822 61.831 61.831 0 0 1-17.112-20.765 65.139 65.139 0 0 1-6.956-30.099 70.9 70.9 0 0 1 7.93-33.866 73.82 73.82 0 0 1 21.564-24.944 98.711 98.711 0 0 1 31.86-15.331 138.934 138.934 0 0 1 38.955-5.296 160.232 160.232 0 0 1 50.224 7.389 172.991 172.991 0 0 1 41.737 20.067l-20.451 33.306zm138.427 19.51a82.24 82.24 0 0 1 33.251 6.688 74.467 74.467 0 0 1 25.878 18.675 87.61 87.61 0 0 1 16.835 28.848 108.778 108.778 0 0 1 6.122 37.21v14.214H376.15a56.674 56.674 0 0 0 6.678 20.205 47.491 47.491 0 0 0 11.827 13.936 46.457 46.457 0 0 0 15.443 7.946 61.672 61.672 0 0 0 17.808 2.509 75.702 75.702 0 0 0 26.154-4.88 84.66 84.66 0 0 0 24.07-13.936l18.781 27.178a94.448 94.448 0 0 1-33.808 19.091 128.165 128.165 0 0 1-37.702 5.434 95.967 95.967 0 0 1-35.894-6.547 81.526 81.526 0 0 1-27.824-18.538 83.588 83.588 0 0 1-18.365-28.845 103.57 103.57 0 0 1-6.538-37.629 104.943 104.943 0 0 1 6.397-37.21 85.27 85.27 0 0 1 17.808-28.986 79.177 79.177 0 0 1 27.827-18.675 90.372 90.372 0 0 1 34.362-6.829v.141zm-.694 33.866a49.33 49.33 0 0 0-18.086 3.066 39.21 39.21 0 0 0-13.914 8.778 46.53 46.53 0 0 0-9.318 13.936 64.747 64.747 0 0 0-5.149 17.28h90.154a54.389 54.389 0 0 0-13.914-31.632 40.31 40.31 0 0 0-29.91-11.568l.138.141zm201.594-33.866a94.123 94.123 0 0 1 36.448 6.97 73.452 73.452 0 0 1 27.827 20.762L664 683.911a72.916 72.916 0 0 0-19.197-13.936 52.78 52.78 0 0 0-22.541-4.598 50.369 50.369 0 0 0-20.31 4.042 48.403 48.403 0 0 0-16 12.122 52.846 52.846 0 0 0-10.851 17.562 67.534 67.534 0 0 0 0 45.29 52.82 52.82 0 0 0 10.851 17.699 48.532 48.532 0 0 0 16.278 11.427 50.402 50.402 0 0 0 20.31 4.042 53.733 53.733 0 0 0 23.651-5.434 74.758 74.758 0 0 0 19.2-12.96l23.514 26.896a76.87 76.87 0 0 1-28.659 20.765 92.829 92.829 0 0 1-36.314 6.966 97.213 97.213 0 0 1-37.565-6.966 83.573 83.573 0 0 1-47.302-48.637 104.416 104.416 0 0 1 0-72.746c8.195-21.942 25.203-39.437 46.886-48.218a97.246 97.246 0 0 1 37.981-7.11l.141.141zm259.465 104.797a83.697 83.697 0 0 1-6.954 35.677 69.702 69.702 0 0 1-18.086 24.387 72.668 72.668 0 0 1-25.741 13.936 101.519 101.519 0 0 1-59.546 0 73.498 73.498 0 0 1-25.875-13.936 67.701 67.701 0 0 1-18.086-24.387 85.07 85.07 0 0 1-6.816-35.677V634.717h38.118v97.549a61.73 61.73 0 0 0 3.2 21.325 37.228 37.228 0 0 0 9.043 13.936 34.239 34.239 0 0 0 13.914 7.942 58.047 58.047 0 0 0 33.389 0c5.2-1.51 9.968-4.23 13.914-7.942a37.216 37.216 0 0 0 9.043-13.936 61.636 61.636 0 0 0 3.338-21.325v-97.549h38.122l-.976 100.336zm138.432-104.797a94.144 94.144 0 0 1 15.718 1.254 68.472 68.472 0 0 1 13.914 3.763l-9.043 37.626a53.781 53.781 0 0 0-13.914-4.736 73.989 73.989 0 0 0-14.886-1.674 44.032 44.032 0 0 0-16.694 3.066 35.314 35.314 0 0 0-13.078 9.059 42.658 42.658 0 0 0-8.486 14.771 59.228 59.228 0 0 0-3.059 19.789v95.741h-38.678V634.717h37.565v19.648a52.188 52.188 0 0 1 21.565-18.394 69.481 69.481 0 0 1 28.938-5.856l.141.141zm127.299 0a82.25 82.25 0 0 1 33.251 6.688 74.484 74.484 0 0 1 25.875 18.675 87.69 87.69 0 0 1 17.53 28.848 108.862 108.862 0 0 1 6.122 37.21v14.214h-129.942a56.674 56.674 0 0 0 6.678 20.205 47.526 47.526 0 0 0 11.824 13.936 46.486 46.486 0 0 0 15.443 7.946 61.687 61.687 0 0 0 17.808 2.509 75.731 75.731 0 0 0 26.157-4.88 84.644 84.644 0 0 0 24.067-13.936l18.922 27.037a94.203 94.203 0 0 1-33.808 19.091 128.135 128.135 0 0 1-37.702 5.437 96.044 96.044 0 0 1-35.894-6.55 81.573 81.573 0 0 1-27.824-18.534 83.629 83.629 0 0 1-18.365-28.848 103.553 103.553 0 0 1-6.538-37.626 104.935 104.935 0 0 1 6.4-37.21 85.102 85.102 0 0 1 17.53-28.986 79.099 79.099 0 0 1 27.824-18.675 90.336 90.336 0 0 1 34.502-6.691l.141.141zm-.697 33.866a49.33 49.33 0 0 0-18.086 3.066 39.159 39.159 0 0 0-13.91 8.778 46.504 46.504 0 0 0-9.322 13.936 64.857 64.857 0 0 0-5.149 17.28h90.432a54.389 54.389 0 0 0-13.914-31.632 40.294 40.294 0 0 0-30.189-11.568l.138.141zm246.39-114.973a144.893 144.893 0 0 1 32.694 3.622 127.78 127.78 0 0 1 29.357 10.592 114.188 114.188 0 0 1 24.624 16.864 96.576 96.576 0 0 1 18.506 22.298l-34.227 22.854a83.491 83.491 0 0 0-29.91-26.896 85.337 85.337 0 0 0-41.738-9.757 94.35 94.35 0 0 0-35.894 6.691 83.412 83.412 0 0 0-27.824 18.95 87.294 87.294 0 0 0-18.784 29.267 107.332 107.332 0 0 0 0 75.254 87.282 87.282 0 0 0 18.784 29.264 83.483 83.483 0 0 0 27.824 18.954 94.296 94.296 0 0 0 35.894 6.688c28.253.621 54.902-13.117 70.813-36.512l33.392 24.528a109.756 109.756 0 0 1-19.2 21.462 119.51 119.51 0 0 1-23.651 16.723 126.862 126.862 0 0 1-28.659 10.31 148.918 148.918 0 0 1-85.702-6.41c-31.872-12.493-57.091-37.75-69.562-69.68a146.691 146.691 0 0 1 0-105.354c12.47-31.93 37.69-57.19 69.562-69.68a141.837 141.837 0 0 1 53.702-10.035zm223.991 80.55a97.305 97.305 0 0 1 37.286 6.966 91.02 91.02 0 0 1 29.635 19.232 88.418 88.418 0 0 1 19.616 28.989 96.99 96.99 0 0 1 0 72.742 88.418 88.418 0 0 1-19.616 28.989 91.02 91.02 0 0 1-29.635 19.232 102.791 102.791 0 0 1-74.57 0 89.917 89.917 0 0 1-29.635-19.232 88.957 88.957 0 0 1-20.032-28.429 97 97 0 0 1 0-72.746 88.913 88.913 0 0 1 19.475-28.989 89.871 89.871 0 0 1 29.635-19.229 97.236 97.236 0 0 1 37.981-7.11l-.141-.416zm0 35.815a56.4 56.4 0 0 0-21.562 4.042 50.913 50.913 0 0 0-17.251 11.427 53.527 53.527 0 0 0-11.411 17.558 63.526 63.526 0 0 0 0 45.293 53.512 53.512 0 0 0 11.411 17.558 51.104 51.104 0 0 0 17.251 11.427 59.02 59.02 0 0 0 43.126 0 51.653 51.653 0 0 0 28.938-28.566 63.494 63.494 0 0 0 0-45.293 52.618 52.618 0 0 0-11.546-17.558 52.005 52.005 0 0 0-17.392-11.427 56.346 56.346 0 0 0-21.424-4.042l-.141-.419zm207.715-35.815a65.756 65.756 0 0 1 54.675 25.642V546.64h37.981v262.134h-37.981v-20.902a67.057 67.057 0 0 1-22.538 18.534 69.456 69.456 0 0 1-32.138 6.966 84.643 84.643 0 0 1-61.632-25.779 87.616 87.616 0 0 1-18.502-29.405 104.252 104.252 0 0 1 0-73.584 87.832 87.832 0 0 1 18.502-28.986 84.658 84.658 0 0 1 61.632-25.782v-.138zm4.592 35.815a52.354 52.354 0 0 0-21.984 4.461 49.233 49.233 0 0 0-16.416 11.984 53.122 53.122 0 0 0-10.294 17.699 66.144 66.144 0 0 0 0 43.2 53.139 53.139 0 0 0 10.294 17.699 49.233 49.233 0 0 0 16.416 11.984 56.392 56.392 0 0 0 43.408 0 49.369 49.369 0 0 0 16.557-11.706 52.872 52.872 0 0 0 10.573-16.582 66.28 66.28 0 0 0 0-44.317 52.912 52.912 0 0 0-10.714-17.558 49.843 49.843 0 0 0-16.554-11.709 52.508 52.508 0 0 0-21.286-4.736v-.419zm214.253-35.815a82.14 82.14 0 0 1 33.251 6.688 74.288 74.288 0 0 1 25.875 18.675 87.528 87.528 0 0 1 16.835 28.848 108.59 108.59 0 0 1 6.122 37.206v14.218h-128.413a55.816 55.816 0 0 0 6.678 20.205 47.348 47.348 0 0 0 11.824 13.936 46.346 46.346 0 0 0 15.443 7.946 61.787 61.787 0 0 0 17.808 2.506 75.635 75.635 0 0 0 26.157-4.877 84.756 84.756 0 0 0 24.067-13.936l18.922 27.037a94.518 94.518 0 0 1-33.808 19.091 128.036 128.036 0 0 1-37.702 5.437 96.03 96.03 0 0 1-35.894-6.55 81.573 81.573 0 0 1-27.824-18.534 83.629 83.629 0 0 1-18.365-28.848 103.57 103.57 0 0 1-6.538-37.629 104.973 104.973 0 0 1 6.397-37.206 85.376 85.376 0 0 1 17.808-28.989 79.13 79.13 0 0 1 27.827-18.672 90.368 90.368 0 0 1 33.53-6.134v-.416zm100.307 178.659v-8.362h3.478v-1.814h-9.043v1.814h3.898v8.778l1.667-.416zm17.392 0v-10.592h-2.784l-3.2 7.245-3.2-7.245h-2.781v10.592h1.946v-7.946l2.925 6.829h1.946l2.922-6.829v7.946h2.227zm-118.397-144.796a49.27 49.27 0 0 0-18.086 3.069 39.159 39.159 0 0 0-13.91 8.778 46.504 46.504 0 0 0-9.322 13.936 64.967 64.967 0 0 0-5.149 17.28h90.154a54.387 54.387 0 0 0-13.914-32.051 40.313 40.313 0 0 0-29.773-10.592v-.419z"/>
    <path d="M409.488 449.786h-42.573V232.664l-76.937 191.061H245.18l-76.658-188.971v215.031h-42.85V185.978h65.25l76.658 188.553 76.52-188.553h65.248l.141 263.807zm223.99 0h-39.373v-21.6a69.646 69.646 0 0 1-23.373 19.232 72.01 72.01 0 0 1-33.251 7.107 87.725 87.725 0 0 1-63.997-26.758 91.123 91.123 0 0 1-19.2-30.102 108.19 108.19 0 0 1 0-76.368 91.287 91.287 0 0 1 19.2-30.101 87.716 87.716 0 0 1 63.997-26.757 71.274 71.274 0 0 1 33.251 7.247 70.586 70.586 0 0 1 23.373 19.371v-21.74h39.373v180.47zm-91.404-148.139a54.3 54.3 0 0 0-22.816 4.599 51.011 51.011 0 0 0-16.973 12.403 55.739 55.739 0 0 0-10.714 18.395 68.686 68.686 0 0 0 0 44.874 54.994 54.994 0 0 0 10.851 18.397 50.816 50.816 0 0 0 16.973 12.403 58.354 58.354 0 0 0 45.078 0 51.483 51.483 0 0 0 17.11-12.125 55.79 55.79 0 0 0 11.13-18.256 68.94 68.94 0 0 0 0-45.99 55.773 55.773 0 0 0-11.13-18.255 51.78 51.78 0 0 0-17.11-12.124 54.035 54.035 0 0 0-22.4-4.32zm271.849 12.821a108.489 108.489 0 0 0-10.157-5.156 114.537 114.537 0 0 0-13.91-5.017 140.672 140.672 0 0 0-15.584-3.763 92.012 92.012 0 0 0-16.694-1.533 45.16 45.16 0 0 0-25.181 5.992 17.984 17.984 0 0 0-8.906 15.607 13 13 0 0 0 2.365 7.946 18.154 18.154 0 0 0 6.262 5.296 38.473 38.473 0 0 0 9.459 3.344c3.619.835 7.514 1.578 11.686 2.23l18.643 2.787a97.26 97.26 0 0 1 46.051 17.28 43.218 43.218 0 0 1 17.389 36.371 51.597 51.597 0 0 1-5.565 23.83 53.75 53.75 0 0 1-15.997 17.978 78.173 78.173 0 0 1-25.741 12.125 127.978 127.978 0 0 1-34.781 4.32c-4.637 0-10.016-.278-16.138-.835a134.382 134.382 0 0 1-19.616-3.347 141.996 141.996 0 0 1-21.149-7.107 97.344 97.344 0 0 1-20.451-11.843l18.227-29.546a94.293 94.293 0 0 0 10.573 7.107 76.82 76.82 0 0 0 12.938 5.853 98.465 98.465 0 0 0 16 4.042 118.038 118.038 0 0 0 19.894 1.533 63.059 63.059 0 0 0 30.608-5.99 17.984 17.984 0 0 0 10.435-16.029 14.913 14.913 0 0 0-7.514-12.682 59.035 59.035 0 0 0-23.651-7.245l-18.781-2.509a86.625 86.625 0 0 1-45.635-17.558 44.506 44.506 0 0 1-15.722-35.398 54.835 54.835 0 0 1 5.29-24.248 50.144 50.144 0 0 1 14.886-18.256 71.177 71.177 0 0 1 23.373-11.427 109.764 109.764 0 0 1 31.024-4.042 155.41 155.41 0 0 1 40.067 5.017 115.076 115.076 0 0 1 32.973 13.936l-16.973 30.938zm186.707-9.477h-69.565v78.599a46.926 46.926 0 0 0 2.643 15.606 28.9 28.9 0 0 0 6.122 10.454 23.253 23.253 0 0 0 9.043 5.99 32.538 32.538 0 0 0 11.27 1.952 52.703 52.703 0 0 0 18.781-3.622 97.54 97.54 0 0 0 17.53-8.64l15.584 31.494a123.11 123.11 0 0 1-24.486 12.682 84.77 84.77 0 0 1-30.749 5.296 64.355 64.355 0 0 1-47.581-17.142 72.412 72.412 0 0 1-17.251-53.235V305.13h-35.754v-35.815h35.754v-54.629h39.514v54.629h69.562l-.416 35.676zm121.037-40.553a85.16 85.16 0 0 1 34.502 6.828 77.058 77.058 0 0 1 26.851 19.371 91.05 91.05 0 0 1 17.53 29.961 112.778 112.778 0 0 1 6.262 38.605v14.63h-133.978a58.593 58.593 0 0 0 6.957 20.906 49.274 49.274 0 0 0 12.243 13.936 48.373 48.373 0 0 0 15.997 8.221 63.916 63.916 0 0 0 18.506 2.65 78.62 78.62 0 0 0 27.824-5.018 87.613 87.613 0 0 0 24.902-13.936l19.619 27.872a98.229 98.229 0 0 1-35.059 19.789 133.084 133.084 0 0 1-39.094 5.712 99.337 99.337 0 0 1-37.981-6.131 84.395 84.395 0 0 1-29.219-19.232 86.843 86.843 0 0 1-19.059-29.962 107.467 107.467 0 0 1-6.816-39.021 109.159 109.159 0 0 1 6.538-38.602 88.474 88.474 0 0 1 18.506-30.102 81.917 81.917 0 0 1 27.824-19.371 93.487 93.487 0 0 1 37.146-6.968v-.139zm-.694 35.118a51.139 51.139 0 0 0-18.784 3.205 40.613 40.613 0 0 0-13.91 9.198 48.37 48.37 0 0 0-9.741 13.935 67.434 67.434 0 0 0-5.702 18.256h93.491a55.77 55.77 0 0 0-15.024-32.749 41.698 41.698 0 0 0-30.33-11.845zm222.598-35.118a98.152 98.152 0 0 1 16.278 1.254 71.727 71.727 0 0 1 13.914 3.902l-9.462 39.02a55.56 55.56 0 0 0-13.91-4.877 77.78 77.78 0 0 0-15.443-1.672 45.703 45.703 0 0 0-17.251 3.205 36.585 36.585 0 0 0-13.914 9.476 44.363 44.363 0 0 0-8.906 15.331 61.445 61.445 0 0 0-3.197 20.486v99.36h-39.373V268.758h38.954v20.347a54.29 54.29 0 0 1 21.981-18.674 71.82 71.82 0 0 1 29.914-5.853l.416-.139zm134.535 0a97.238 97.238 0 0 1 37.843 7.247 76.11 76.11 0 0 1 29.494 21.601l-25.181 26.897a75.54 75.54 0 0 0-19.898-13.937 55.58 55.58 0 0 0-23.373-4.877 52.403 52.403 0 0 0-21.008 4.18 50.106 50.106 0 0 0-16.973 11.846 54.851 54.851 0 0 0-11.13 18.257 69.805 69.805 0 0 0 0 46.963 54.949 54.949 0 0 0 11.13 18.256 50.263 50.263 0 0 0 16.973 11.846 52.35 52.35 0 0 0 21.008 4.179 55.56 55.56 0 0 0 24.208-5.296 77.834 77.834 0 0 0 19.894-13.936l24.208 27.178a79.464 79.464 0 0 1-29.773 21.6 96.42 96.42 0 0 1-37.702 7.245 100.72 100.72 0 0 1-38.954-7.245c-22.65-9.043-40.467-27.194-49.114-50.032a108.183 108.183 0 0 1 0-75.392c8.646-22.836 26.464-40.988 49.114-50.03a100.727 100.727 0 0 1 38.816-6.411l.416-.139zm276.441 185.348h-39.373v-21.6a69.646 69.646 0 0 1-23.373 19.232 72.01 72.01 0 0 1-33.251 7.107 87.725 87.725 0 0 1-63.997-26.758 91.123 91.123 0 0 1-19.2-30.102 108.19 108.19 0 0 1 0-76.368 91.287 91.287 0 0 1 19.2-30.101 87.716 87.716 0 0 1 63.997-26.757 71.274 71.274 0 0 1 33.251 7.247 70.556 70.556 0 0 1 23.373 19.371v-21.74h39.373v180.47zm-91.267-148.139a54.322 54.322 0 0 0-22.816 4.599 51.082 51.082 0 0 0-16.973 12.403 55.79 55.79 0 0 0-10.714 18.395 68.686 68.686 0 0 0 0 44.874 55.802 55.802 0 0 0 10.714 18.397 50.956 50.956 0 0 0 16.973 12.403 58.497 58.497 0 0 0 45.078 0 51.664 51.664 0 0 0 17.11-12.125 54.867 54.867 0 0 0 11.13-18.256 68.67 68.67 0 0 0 0-45.99 54.866 54.866 0 0 0-11.13-18.255 51.75 51.75 0 0 0-17.11-12.124 54.186 54.186 0 0 0-22.122-4.32h-.141zm240.547-37.07a98.26 98.26 0 0 1 16.278 1.254 71.727 71.727 0 0 1 13.914 3.902l-9.462 39.02a55.602 55.602 0 0 0-13.91-4.878 78.152 78.152 0 0 0-15.443-1.672 45.548 45.548 0 0 0-17.251 3.205 36.596 36.596 0 0 0-13.914 9.476 44.31 44.31 0 0 0-8.902 15.329 61.395 61.395 0 0 0-3.2 20.486v99.363h-39.373V268.895h39.373v20.346a54.146 54.146 0 0 1 22.118-18.813 71.962 71.962 0 0 1 29.914-5.853h-.141zm129.111 0a71.274 71.274 0 0 1 33.251 7.247 70.718 70.718 0 0 1 23.373 19.371V178.454h39.373v271.332h-39.373v-21.6a69.676 69.676 0 0 1-23.373 19.232 72.02 72.02 0 0 1-33.251 7.107 87.732 87.732 0 0 1-64-26.758 91.35 91.35 0 0 1-19.616-30.102 108.19 108.19 0 0 1 0-76.368 91.287 91.287 0 0 1 19.2-30.101 87.716 87.716 0 0 1 63.997-26.757l.419.139zM2174.845 433.2c1.571-.035 3.133.25 4.592.838a11.8 11.8 0 0 1 3.754 2.509 11.572 11.572 0 0 1 2.506 3.622 11.305 11.305 0 0 1 0 8.918 11.667 11.667 0 0 1-2.506 3.622 12.06 12.06 0 0 1-3.754 2.509 11.207 11.207 0 0 1-4.592.976 11.68 11.68 0 0 1-10.851-6.966 11.305 11.305 0 0 1 0-8.918 11.408 11.408 0 0 1 6.259-6.134 11.864 11.864 0 0 1 4.73-.976h-.138zm0 20.486a8.504 8.504 0 0 0 3.478-.694 9.251 9.251 0 0 0 2.781-1.952 9.071 9.071 0 0 0 0-12.682 8.956 8.956 0 0 0-2.781-1.952 8.596 8.596 0 0 0-3.478 0 9.084 9.084 0 0 0-3.478 0 8.912 8.912 0 0 0-4.845 6.275 8.926 8.926 0 0 0 2.061 7.661 9.054 9.054 0 0 0 2.784 1.952 8.907 8.907 0 0 0 3.616 1.254l-.138.138zm0-13.936a4.857 4.857 0 0 1 3.2.976 3.06 3.06 0 0 1 1.11 2.509 2.932 2.932 0 0 1-.832 2.23 4.168 4.168 0 0 1-2.506 1.114l3.478 4.042h-2.784l-3.2-4.042h-.973v4.042h-2.224v-10.73l4.73-.141zm-2.643 1.952v2.787h2.643c.454.131.938.131 1.392 0a1.26 1.26 0 0 0 0-1.114 1.124 1.124 0 0 0 0-1.117 2.63 2.63 0 0 0-1.392 0l-2.643-.557zM2036.97 302.343a54.322 54.322 0 0 0-22.816 4.599 51.082 51.082 0 0 0-16.973 12.403 55.795 55.795 0 0 0-10.714 18.396 68.686 68.686 0 0 0 0 44.874 55.802 55.802 0 0 0 10.714 18.397 50.936 50.936 0 0 0 16.973 12.4 58.461 58.461 0 0 0 45.078 0 51.598 51.598 0 0 0 17.11-12.122 54.943 54.943 0 0 0 12.106-19.373 68.809 68.809 0 0 0 0-45.987 54.963 54.963 0 0 0-11.13-18.257 51.756 51.756 0 0 0-17.114-12.124 54.195 54.195 0 0 0-22.4-3.902l-.835.697z"/>
</symbol><symbol id="icon-microphone" viewBox="0 0 1024 1024">
    <title/>
    <path d="M512 597.333c70.827 0 127.573-57.173 127.573-128l.427-256c0-70.827-57.173-128-128-128s-128 57.173-128 128v256c0 70.827 57.173 128 128 128zm226.133-128c0 128-108.373 217.6-226.133 217.6s-226.133-89.6-226.133-217.6h-72.533c0 145.493 116.053 265.813 256 286.72V896h85.333V756.053c139.947-20.48 256-140.8 256-286.72z"/>
</symbol><symbol id="icon-next" viewBox="0 0 355 1024">
    <path d="M304.742 506.101L3.548 34.289C-2.796 24.351-.426 10.876 9.002 3.984c9.729-7.112 23.094-4.419 29.635 5.827l316.628 495.991L38.769 1013.98c-6.427 10.319-19.759 13.176-29.566 6.182-9.506-6.781-12.021-20.229-5.786-30.241l301.326-483.819z"/>
</symbol><symbol id="icon-phone" viewBox="0 0 24 24">
    <path clip-rule="evenodd" d="M1.022 6.136v-.01a4.188 4.188 0 0 1 1.245-2.648l1.41 1.418a2.19 2.19 0 0 0-.663 1.41c-.066.834.096 1.75.526 2.892.692 1.858 1.738 3.592 3.293 5.455a20.262 20.262 0 0 0 6.758 5.268c.955.453 2.226.984 3.593 1.07.071.005.146.009.217.009.738 0 1.31-.24 1.789-.755a11.3 11.3 0 0 1 .871-.9 13.9 13.9 0 0 0 .554-.552c.509-.527.513-1.066.013-1.564l-2.514-2.497c-.163-.174-.421-.37-.738-.37-.258 0-.52.13-.763.37l-1.559 1.551c-.07.07-.288.282-.621.282a.874.874 0 0 1-.404-.103l-.023-.013a5.171 5.171 0 0 0-.482-.261l-.091-.046a4.783 4.783 0 0 1-.46-.253c-1.45-.917-2.767-2.107-4.018-3.642-.696-.871-1.142-1.601-1.463-2.369l-.006-.017a.285.285 0 0 1-.007-.016c-.083-.249-.137-.577.209-.921l.02-.02c.37-.327.709-.667 1.064-1.025l.087-.088.194-.195.194-.195c.258-.257.392-.518.392-.775s-.134-.519-.392-.776L8.005 4.614a43.814 43.814 0 0 0-.434-.44l-.112-.113c-.242-.245-.471-.477-.713-.7C6.508 3.12 6.249 3 5.996 3c-.26 0-.526.12-.768.353l-1.55 1.543-1.411-1.418L3.83 1.923l.012-.013C4.355 1.418 5.095 1 5.995 1c.9 0 1.628.42 2.135.917.269.249.524.508.755.741l.107.109.005.005.005.005.205.208.004.003.214.218 1.233 1.226c.468.467.98 1.208.98 2.194s-.512 1.727-.98 2.193l-.183.184-.002.002-.2.2a323.318 323.318 0 0 1-.593.593c.205.355.47.74.832 1.193 1.13 1.387 2.288 2.422 3.53 3.207l.01.006.01.007c.04.026.077.046.154.085l.987-.982c.484-.482 1.224-.952 2.173-.952 1.102 0 1.843.632 2.169.972l2.494 2.477c.502.5.968 1.247.96 2.205-.007.934-.462 1.662-.933 2.154-.21.223-.422.429-.62.618l-.011.01c-.304.294-.522.505-.714.733l-.033.04-.035.038C19.773 22.552 18.66 23 17.4 23c-.134 0-.26-.007-.328-.011l-.016-.001c-1.766-.113-3.325-.787-4.322-1.26l-.012-.005a22.263 22.263 0 0 1-7.421-5.784l-.004-.004c-1.669-1.999-2.845-3.925-3.631-6.036-.492-1.308-.744-2.53-.646-3.752z" fill-rule="evenodd"/>
</symbol><symbol id="icon-plumbing" viewBox="0 0 1024 1024">
    <title/>
    <path d="M841.824 512l-22.976 181.39c-5.402 42.642-41.677 74.61-84.659 74.61H332.438c-42.982 0-79.255-31.968-84.657-74.61L224.805 512h617.02zm-617.02-85.333c-51.384 0-91.114 45.08-84.657 96.057l22.976 181.39c10.803 85.283 83.349 149.22 169.314 149.22h401.751c85.965 0 158.511-63.937 169.314-149.22l22.976-181.39c6.46-50.977-33.271-96.057-84.655-96.057h-617.02z"/>
    <path d="M298.667 810.667H384v128h-85.333v-128z"/>
    <path d="M682.667 810.667H768v128h-85.333v-128z"/>
    <path d="M704 213.333c-36.239 0-64 28.494-64 61.671h-85.333C554.667 192.933 622.419 128 704 128s149.333 64.933 149.333 147.004v194.329H768V275.004c0-33.177-27.761-61.671-64-61.671z"/>
    <path d="M496.705 304.849C520.143 275.1 556.494 256 597.305 256s77.162 19.1 100.601 48.849C727.072 341.868 687.1 384 639.972 384h-85.333c-47.128 0-87.1-42.132-57.934-79.151z"/>
    <path d="M469.333 512v42.667H384V512h85.333zm-170.666-85.333V640h256V426.667h-256z"/>
</symbol><symbol id="icon-premium" viewBox="0 0 3072 1024">
    <title/>
    <path d="M83.748 0C29.472 160.457 0 332.714 0 512s29.472 351.542 83.748 512h2904.505C3042.528 863.542 3072 691.286 3072 512s-29.472-351.543-83.747-512z"/>
    <path d="M479.245 320H352v377.53h51.981V546.519h72.557c86.634 0 132.118-47.462 132.118-113.261S564.253 320 479.245 320zm5.955 183.91h-81.219V362.608H485.2c42.234 0 70.39 28.045 70.39 70.65 0 42.608-28.157 70.653-70.39 70.653z"/>
    <path d="M896.704 697.53h71.475L822.525 530.336c60.102-12.403 90.966-51.773 90.966-103.011 0-62.56-44.4-107.325-129.411-107.325H668.208v377.53h51.981V534.112h40.608zM720.189 362.067h70.931c42.234 0 69.306 25.347 69.306 65.798 0 39.91-27.072 65.798-69.306 65.798h-70.931z"/>
    <path d="M1249.626 365.302V320h-238.243v377.53h238.243v-45.306h-186.262V526.022h159.19V480.72h-159.19V365.302z"/>
    <path d="M1653.328 320l-142.406 240.541L1368.516 320h-54.147v377.53h51.981V406.292l142.947 242.698 142.947-242.698V697.53h51.981V320z"/>
    <path d="M1793.504 697.53h51.978V320h-51.978z"/>
    <path d="M2088.941 704c95.296 0 157.024-58.787 157.024-152.09V320h-51.981v234.608c0 59.325-40.611 103.011-105.043 103.011-64.435 0-105.046-43.686-105.046-103.011V320h-51.981v231.91c0 93.302 61.728 152.09 157.027 152.09z"/>
    <path d="M2669.101 320l-142.403 240.541L2384.292 320h-54.147v377.53h51.981V406.292l142.947 242.698 142.947-242.698V697.53h51.981V320z"/>
</symbol><symbol id="icon-prev" viewBox="0 0 16 40">
    <path d="M50.258 517.899l301.194 471.812c6.344 9.938 3.974 23.413-5.454 30.305-9.729 7.112-23.094 4.419-29.635-5.827L-.265 518.198 316.231 10.02c6.427-10.319 19.759-13.176 29.566-6.182 9.506 6.781 12.021 20.229 5.786 30.241L50.257 517.898z"/>
</symbol><symbol id="icon-search" viewBox="0 0 1024 1024">
    <path d="M621.668 685.668C577.192 717.36 522.773 736 464 736c-150.221 0-272-121.779-272-272s121.779-272 272-272 272 121.779 272 272c0 58.773-18.641 113.192-50.332 157.668l178.714 178.714c17.606 17.606 17.46 45.778-.006 63.244l-.75.75c-17.421 17.421-45.781 17.469-63.244.006L621.668 685.668zM464 672c114.875 0 208-93.125 208-208s-93.125-208-208-208-208 93.125-208 208 93.125 208 208 208z"/>
</symbol><symbol id="icon-seller" viewBox="0 0 24 24">
    <path d="M15.8 8.7a1.3 1.3 0 1 0 0-2.6 1.3 1.3 0 0 0 0 2.6z"/>
    <path d="M21 3.7c-.1-.5-.4-.8-.9-.9l-7-.8c-.3 0-.6.1-.8.3l-10 10c-.4.4-.4 1 0 1.4l7.8 7.8c.4.4 1 .4 1.4 0l10-10c.2-.2.3-.5.3-.8l-.8-7zM10.7 19.4L4.3 13l9-9 5.8.6.6 5.8-9 9z"/>
</symbol><symbol id="icon-services" viewBox="0 0 1024 1024">
    <path d="M85.333 213.333c0-70.692 57.308-128 128-128H640c70.694 0 128 57.308 128 128v213.333h-85.333V213.333c0-23.564-19.102-42.667-42.667-42.667H213.333c-23.564 0-42.667 19.103-42.667 42.667V512c0 23.565 19.103 42.667 42.667 42.667H256V640h-42.667c-70.692 0-128-57.306-128-128V213.333z"/>
    <path d="M128 256h597.333v85.333H128V256z"/>
    <path d="M298.667 426.667h512v42.667c0 7.457 4.16 18.485 14.17 28.497 10.014 10.012 21.039 14.17 28.497 14.17h42.667v341.333h-42.667c-7.458 0-18.483 4.16-28.497 14.17-10.01 10.014-14.17 21.039-14.17 28.497v42.667h-512v-42.667c0-7.458-4.158-18.483-14.17-28.497-10.012-10.01-21.04-14.17-28.497-14.17h-42.667V512.001H256c7.457 0 18.485-4.158 28.497-14.17s14.17-21.04 14.17-28.497v-42.667zM375.572 512c-7.113 17.797-18.134 33.568-30.735 46.17s-28.373 23.622-46.17 30.735v187.523c17.797 7.113 33.568 18.134 46.17 30.735s23.622 28.373 30.735 46.17H733.76c7.113-17.797 18.133-33.568 30.737-46.17 12.599-12.602 28.373-23.622 46.17-30.735V588.905c-17.796-7.113-33.57-18.134-46.17-30.735-12.604-12.602-23.625-28.373-30.737-46.17H375.572z"/>
    <path d="M682.667 597.333h-85.333V512h85.333v85.333z"/>
    <path d="M682.667 725.333h-85.333V640h85.333v85.333z"/>
    <path d="M682.667 853.333h-85.333V768h85.333v85.333z"/>
</symbol><symbol id="icon-smartphones" viewBox="0 0 1024 1024">
    <path d="M725.333 170.667v682.667H298.666V170.667h426.667zM298.667 85.333c-47.128 0-85.333 38.205-85.333 85.333v682.667c0 47.13 38.205 85.333 85.333 85.333h426.667c47.13 0 85.333-38.204 85.333-85.333V170.666c0-47.128-38.204-85.333-85.333-85.333H298.667z"/>
    <path d="M554.377 768c0 23.564-19.103 42.667-42.667 42.667S469.043 791.564 469.043 768s19.103-42.667 42.667-42.667 42.667 19.103 42.667 42.667z"/>
</symbol><symbol id="icon-sport" viewBox="0 0 1024 1024">
    <path d="M836.268 179.602c-115.2-93.867-298.667-55.467-405.334 81.067-110.933 136.533-106.667 324.266 8.533 413.866s298.667 55.467 405.334-81.067c110.933-136.532 106.667-319.999-8.533-413.866zm-55.466 362.667c-89.6 110.932-217.6 123.732-285.867 68.266s-85.333-183.466 4.267-294.399c89.6-110.933 217.6-123.733 285.867-68.267 68.267 51.2 85.333 183.467-4.267 294.4z"/>
    <path d="M520.533 218L870.4 495.333l-29.867 34.133-349.867-277.333L520.533 218z"/>
    <path d="M435.183 324.667L785.05 602l-29.867 34.133-345.6-277.333 25.6-34.133z"/>
    <path d="M401.083 584.937L742.416 158.27l34.133 25.6-341.333 426.667-34.133-25.6z"/>
    <path d="M503.458 670.271l341.333-426.667 34.133 25.6-341.333 426.667-34.133-25.6z"/>
    <path d="M354.133 448.401c0-17.067 4.267-34.133 4.267-42.667l85.333 12.8c0 8.533 0 17.067-4.267 34.133 0 8.533 0 21.333-4.267 34.133-4.267 29.867-8.533 72.533-12.8 110.933-4.267 42.667-12.8 85.333-25.6 123.733s-29.867 81.067-55.467 110.933l-64-55.467c17.067-17.067 29.867-46.933 38.4-81.067 12.8-34.133 17.067-72.533 25.6-110.933 4.267-38.4 8.533-76.8 12.8-106.667v-29.867z"/>
    <path d="M678.4 712.939c4.267 0 68.988-46.933 73.254-46.933s-77.521-38.4-77.521-38.4H665.6c-29.867 4.267-102.4 17.067-170.667 38.4-38.4 12.8-81.067 25.6-119.467 42.667s-76.8 42.667-98.133 68.267l68.267 51.2c12.8-12.8 34.133-29.867 64-42.667s68.267-25.6 106.667-38.4c64-17.067 132.267-29.867 162.133-34.133z"/>
    <path d="M192 883.605l85.333-106.667 68.267 51.2-85.333 106.667-68.267-51.2z"/>
    <path d="M298.667 320c0 34.133-29.867 64-64 64s-64-29.867-64-64c0-34.133 29.867-64 64-64s64 25.6 64 64z"/>
</symbol><symbol id="icon-stationery" viewBox="0 0 1024 1024">
    <path d="M242.133 859.732c-38.4-38.4-38.4-98.133 0-136.533l392.533-392.533-59.733-59.733L182.4 663.466c-72.533 72.533-72.533 183.467 0 256s183.467 72.533 256 0l-59.733-59.733c-42.667 38.4-102.4 38.4-136.533 0z"/>
    <path d="M865.083 155.733c-93.867-93.867-243.2-93.867-332.8 0L139.75 548.266l59.733 59.733 392.533-392.533c59.733-59.733 153.6-59.733 213.333 0s59.733 153.6 0 213.333L374.416 859.732l59.733 59.733 430.933-430.933c93.867-89.6 93.867-238.933 0-332.8z"/>
    <path d="M749.867 275.2c-46.933-46.933-128-46.933-179.2 0l59.733 59.733c17.067-17.067 42.667-17.067 55.467 0 17.067 17.067 17.067 42.667 0 55.467L336 740.267 395.733 800 745.6 450.133c51.2-46.933 51.2-128 4.267-174.933z"/>
</symbol><symbol id="icon-stock" viewBox="0 0 1024 1024">
    <path d="M362.667 426.667c-58.91 0-106.667 47.757-106.667 106.667s47.756 106.667 106.667 106.667 106.667-47.757 106.667-106.667-47.756-106.667-106.667-106.667zm-21.334 106.666c0-11.78 9.551-21.333 21.333-21.333s21.333 9.553 21.333 21.333-9.551 21.333-21.333 21.333-21.333-9.553-21.333-21.333z"/>
    <path d="M554.667 789.333c0-58.91 47.757-106.667 106.667-106.667s106.667 47.757 106.667 106.667S720.244 896 661.334 896s-106.667-47.757-106.667-106.667zM661.333 768c-11.78 0-21.333 9.553-21.333 21.333s9.553 21.333 21.333 21.333 21.333-9.553 21.333-21.333S673.113 768 661.333 768z"/>
    <path d="M604.497 445.666l-255.998 384L419.501 877l255.998-384z"/>
    <path d="M513.638.031a42.673 42.673 0 0 1 30.758 14.868l243.226 283.767H896c47.13 0 85.333 38.205 85.333 85.333v554.667c0 47.13-38.204 85.333-85.333 85.333H128c-47.128 0-85.333-38.204-85.333-85.333V383.999c0-47.128 38.205-85.333 85.333-85.333h67.661l286.17-286.17A42.672 42.672 0 0 1 513.639.031zm-4.049 105.386l165.645 193.25H316.34zM896 384H128v554.667h768z"/>
</symbol><symbol id="icon-telegram" viewBox="0 0 1024 1024">
    <path d="M908.524 124.334C782.531 176.517 242.289 400.292 93.021 461.281c-100.106 39.066-41.503 75.694-41.503 75.694s85.453 29.297 158.71 51.272c73.247 21.975 112.312-2.437 112.312-2.437l344.269-231.956c122.081-83.016 92.785-14.653 63.478 14.653-63.478 63.488-168.468 163.584-256.369 244.163-39.066 34.181-19.538 63.478-2.437 78.131 63.478 53.719 236.841 163.594 246.6 170.916 51.579 36.516 153.037 89.078 168.468-21.975l61.041-383.334c19.538-129.403 39.066-249.047 41.503-283.228 7.332-83.026-80.568-48.845-80.568-48.845z"/>
</symbol><symbol id="icon-tourism" viewBox="0 0 1024 1024">
    <path d="M755.115 265.743c64.619 33.268 115.392 87.066 145.045 146.425 31.194 62.456 41.242 136.274 11.575 200.218l-18.202 39.232-287.731-138.231c37.239 83.767 61.965 173.261 72.034 266.615 44.143 6.724 84.446 16.098 119.185 27.678 37.227 12.407 70.434 28.126 95.211 47.65 24.294 19.149 46.434 46.985 46.434 83.337v42.667H85.332v-42.667c0-36.352 22.139-64.188 46.434-83.337 24.775-19.524 57.981-35.243 95.212-47.65 64.869-21.623 149.135-35.554 241.57-38.899-3.123-82.901-15.514-162.641-35.84-237.619-8.037-29.636-17.311-58.522-27.741-86.562L173.845 669.901l-29.787-30.029c-80.796-81.455-67.441-208.832 10.116-287.077L54.82 329.566l13.693-43.82C104.707 169.918 213.075 90.541 320.825 124.21c34.711 10.846 66.86 31.103 92.111 58.588 23.057-36.003 55.42-71.382 102.234-93.405 63.078-29.678 134.729-35.24 196.361-22.101 60.446 12.886 119.526 45.933 145.988 102.176l17.993 38.247zm-203.618-99.136c44.932-21.14 97.421-25.413 142.242-15.857 23.044 4.912 41.993 12.925 56.538 22.598l-117.781 56.766c-34.782-3.131-69.09-.59-101.09 7.279-22.878 5.627-44.949 14.107-65.237 25.414 19.191-40.322 45.03-77.239 85.329-96.199zm292.561 366.568L479.395 357.992c18.185-17.323 42.82-30.464 72.393-37.736 46.852-11.523 103.061-7.259 155.593 17.113 51.972 24.112 93.269 66.541 116.437 112.931 14.451 28.924 21.005 57.408 20.241 82.876zm-468.43-249.359c.633 1.926 1.22 3.884 1.758 5.872-22.27-9.635-46.431-14.315-71.132-13.798-19.874.416-39.691 4.164-58.873 11.062l-78.483-18.35c33.277-55.125 87.188-75.22 126.475-62.944 36.505 11.407 67.843 40.386 80.255 78.157zm-67.586 77.389c16.687-.35 32.81 3.879 46.972 12.919L181.483 543.287c-15.177-41.25-4.687-92.753 34.148-131.272l1.306-1.296 1.19-1.404c28.312-33.394 61.528-47.516 89.914-48.111zm245.797 493.72l-42.633-1.591c-102.404.073-193.333 13.999-257.244 35.302A388.51 388.51 0 0 0 233.686 896h556.623a388.464 388.464 0 0 0-20.275-7.364c-55.223-18.411-130.624-31.309-216.166-34.522zm-32.098-320.243c18.3 74.573 29.359 153.015 32.196 234.048a1146.64 1146.64 0 0 1 36.838 1.869c-10.867-82.526-34.449-161.681-69.035-235.917z"/>
</symbol><symbol id="icon-twitter" viewBox="0 0 512 512">
    <path d="M161.014 464.013c193.208 0 298.885-160.071 298.885-298.885 0-4.546 0-9.072-.307-13.578A213.737 213.737 0 0 0 512 97.176a209.705 209.705 0 0 1-60.334 16.527 105.426 105.426 0 0 0 46.182-58.102 210.548 210.548 0 0 1-66.703 25.498 105.184 105.184 0 0 0-76.593-33.112c-57.682 0-105.145 47.464-105.145 105.144 0 8.002.914 15.979 2.722 23.773-84.418-4.231-163.18-44.161-216.494-109.752-27.724 47.726-13.379 109.576 32.522 140.226A104.258 104.258 0 0 1 20.48 194.23v1.331c.014 49.814 35.447 93.111 84.275 102.974a104.898 104.898 0 0 1-47.431 1.802c13.727 42.685 53.311 72.108 98.14 72.95a210.83 210.83 0 0 1-130.458 45.056A213.688 213.688 0 0 1 0 416.827a297.42 297.42 0 0 0 161.014 47.104"/>
</symbol><symbol id="icon-viber" viewBox="0 0 24 24">
    <path d="M11.398.002C9.473.028 5.331.344 3.014 2.467 1.294 4.177.693 6.698.623 9.82c-.06 3.11-.13 8.95 5.5 10.541v2.42s-.038.97.602 1.17c.79.25 1.24-.499 1.99-1.299l1.4-1.58c3.85.32 6.8-.419 7.14-.529.78-.25 5.181-.811 5.901-6.652.74-6.031-.36-9.831-2.34-11.551l-.01-.002c-.6-.55-3-2.3-8.37-2.32 0 0-.396-.025-1.038-.016zm.067 1.697c.545-.003.88.02.88.02 4.54.01 6.711 1.38 7.221 1.84 1.67 1.429 2.528 4.856 1.9 9.892-.6 4.88-4.17 5.19-4.83 5.4-.28.09-2.88.73-6.152.52 0 0-2.439 2.941-3.199 3.701-.12.13-.26.17-.35.15-.13-.03-.17-.19-.16-.41l.02-4.019c-4.771-1.32-4.491-6.302-4.441-8.902.06-2.6.55-4.732 2-6.172 1.957-1.77 5.475-2.01 7.11-2.02zm.36 2.6a.299.299 0 0 0-.3.299.3.3 0 0 0 .3.3 5.631 5.631 0 0 1 4.03 1.59c1.09 1.06 1.621 2.48 1.641 4.34a.3.3 0 0 0 .3.3v-.009a.3.3 0 0 0 .3-.3 6.451 6.451 0 0 0-1.81-4.76c-1.19-1.16-2.692-1.76-4.462-1.76zm-3.954.69a.955.955 0 0 0-.615.12h-.012c-.41.24-.788.54-1.148.94-.27.32-.421.639-.461.949a1.24 1.24 0 0 0 .05.541l.02.01a13.722 13.722 0 0 0 1.2 2.6 15.383 15.383 0 0 0 2.32 3.171l.03.04.04.03.03.03.03.03a15.603 15.603 0 0 0 3.18 2.33c1.32.72 2.122 1.06 2.602 1.2v.01c.14.04.268.06.398.06a1.84 1.84 0 0 0 1.102-.472c.39-.35.7-.738.93-1.148v-.01c.23-.43.15-.841-.18-1.121a13.632 13.632 0 0 0-2.15-1.54c-.51-.28-1.03-.11-1.24.17l-.45.569c-.23.28-.65.24-.65.24l-.012.01c-3.12-.8-3.95-3.959-3.95-3.959s-.04-.43.25-.65l.56-.45c.27-.22.46-.74.17-1.25a13.522 13.522 0 0 0-1.54-2.15.843.843 0 0 0-.504-.3zm4.473.89a.3.3 0 0 0 .002.6 3.78 3.78 0 0 1 2.65 1.15 3.5 3.5 0 0 1 .9 2.57.3.3 0 0 0 .3.299l.01.012a.3.3 0 0 0 .3-.301c.03-1.19-.34-2.19-1.07-2.99-.73-.8-1.75-1.25-3.05-1.34a.3.3 0 0 0-.042 0zm.49 1.619a.305.305 0 0 0-.018.611c.99.05 1.47.55 1.53 1.58a.3.3 0 0 0 .3.29h.01a.3.3 0 0 0 .29-.32c-.07-1.34-.8-2.091-2.1-2.161a.305.305 0 0 0-.012 0z"/>
</symbol><symbol id="icon-visa" viewBox="0 0 2304 1024">
    <title/>
    <path d="M974.822 536.595L885.74 776.576l-9.501-48.758c-22.182-59.792-70.214-122.518-126.15-147.939l81.494 308.154 96.336-.045 143.264-351.392h-96.362z"/>
    <path d="M1051.181 888.394l56.947-352.128h91.008l-56.989 352.128h-90.966z"/>
    <path d="M1472.285 544.941c-17.984-7.098-46.358-14.816-81.562-14.816-90.032 0-153.28 47.805-153.834 116.186-.579 50.646 45.229 78.896 79.661 95.722 35.539 17.219 47.408 28.272 47.296 43.677-.346 23.59-28.432 34.346-54.534 34.346-36.378 0-55.766-5.309-85.59-18.406l-11.821-5.616-12.736 78.806c21.293 9.808 60.602 18.31 101.459 18.749 95.542 0 157.706-47.264 158.445-120.246.384-40.173-23.933-70.582-76.49-95.686-31.725-16.323-51.344-27.142-51.056-43.686.029-14.611 16.461-30.269 52.147-30.269 29.808-.496 51.242 6.333 68.112 13.536l8.118 4.035 12.384-76.33zm233.417-8.314h-70.307c-21.802 0-38.141 6.205-47.763 29.222l-135.101 322.646h95.587s15.629-43.424 19.165-52.944c10.426 0 103.264.214 116.518.214 2.813 12.278 11.082 52.73 11.082 52.73h84.515l-73.696-351.869zM1593.469 763.53c7.555-20.208 36.256-98.422 36.256-98.422-.56.954 7.466-20.368 12.102-33.549l6.061 30.352s17.488 84.029 21.136 101.619h-75.555z"/>
    <path d="M803.104 536.422H656.32l-.858 6.064c114.122 29.158 189.427 100.758 220.774 185.43l-31.901-161.834c-5.478-22.262-21.453-28.877-41.232-29.661z"/>
    <path d="M380.989 451.334h-58.042L256 149.856l64.141-10.716 45.811 235.938 116.672-232.821h61.613L380.989 451.334z"/>
    <path d="M682.806 352.774h-138.4c-3.779 41.92 15.722 60.211 48.762 60.211 27.683 0 52.035-10.266 78.24-26.765l-.205 41.92c-25.702 16.058-55.405 26.317-90.23 26.317-60.266 0-100.067-34.342-88.106-111.952 10.781-70.013 59.274-112.372 115.526-112.372 64.736 0 86.262 48.609 76.854 109.71-.682 4.458-1.965 9.808-2.442 12.931zm-81.446-85.626c-21.434 0-41.459 16.938-50.902 52.178h85.712c1.581-33.456-8.922-52.178-34.81-52.178zm171.658 59.316L753.988 450H700.42l33.181-215.42h45.542l.029 43.266c18.134-24.973 42.797-45.928 76.547-47.713l.31 53.066c-33.827 2.233-64.259 20.068-83.011 43.265zM855.325 450l33.194-215.42h53.568L908.906 450h-53.581zm65.99-251.538c-17.853 0-30.218-12.491-27.469-30.326 2.816-18.284 19.098-31.223 36.95-31.223 17.414 0 29.702 12.939 26.89 31.223-2.752 17.835-18.957 30.326-36.371 30.326zm169.143-22.749c-18.31 0-29.366 8.025-32.32 27.215l-4.883 31.653h41.075l-.038 43.705h-47.77l-26.458 171.715h-53.12l26.458-171.715h-31.254l6.733-43.705h31.245l5.706-37.015c7.35-47.713 40.458-65.557 84.656-65.557 9.379 0 16.384.897 21.613 1.784l.4 43.705c-5.226-.887-13.12-1.784-22.042-1.784zm.579 274.287l33.19-215.42h53.568L1144.614 450h-53.578zm65.987-251.538c-17.853 0-30.214-12.491-27.466-30.326 2.816-18.284 19.098-31.223 36.95-31.223 17.414 0 29.712 12.939 26.896 31.223-2.749 17.835-18.966 30.326-36.381 30.326zm228.483 154.312h-138.403c-3.776 41.92 15.722 60.211 48.762 60.211 27.683 0 52.029-10.266 78.24-26.765l-.214 41.92c-25.69 16.058-55.402 26.317-90.227 26.317-60.266 0-100.061-34.342-88.109-111.952 10.794-70.013 59.283-112.372 115.536-112.372 64.736 0 86.266 48.609 76.858 109.71-.694 4.458-1.965 9.808-2.442 12.931zm-81.456-85.626c-21.437 0-41.459 16.938-50.896 52.178h85.712c1.581-33.456-8.931-52.178-34.816-52.178zM1544.195 450l.131-29.885c-18.003 18.291-41.45 34.342-71.366 34.342-45.098 0-76.09-33.446-64.896-106.15 12.365-80.271 62.061-115.951 112.058-115.951 20.547 0 36.522 3.569 48.771 8.025l16.01-103.917 54.88-8.464-49.603 322h-45.984zm17.898-165.465c-12.429-6.25-22.221-9.371-40.522-9.371-28.131 0-52.166 22.749-59.453 70.032-6.451 41.91 8.381 61.539 32.042 61.539 19.638 0 36.605-11.584 53.635-29.43l14.298-92.771zm192.195 167.494c-25.363 0-46.029-4.064-65.277-10.81l35.238-228.706 41.562-6.428-15.245 98.985c12.15-10.81 29.03-21.619 49.661-21.619 34.49 0 57.59 25.683 49.155 80.402-9.261 60.128-46.387 88.176-95.094 88.176zm29.936-132.777c-13.53 0-27.11 9.129-39.126 21.302l-11.402 73.974c7.997 3.037 13.533 4.39 25.027 4.39 25.699 0 43.654-15.536 49.379-52.701 4.845-31.421-5.613-46.966-23.878-46.966zm160.765 139.532c-20.733 40.202-41.251 52.701-72.704 52.701-7.107 0-11.053-.682-14.618-1.69l-.262-33.446c5.21 1.354 10.794 2.362 18.573 2.362 11.84 0 22.138-5.398 29.04-17.226l5.376-10.81-34.406-160.806 43.114-5.4 19.968 116.203 54.064-113.839h40.243l-88.387 171.951z"/>
</symbol><symbol id="icon-wear" viewBox="0 0 1024 1024">
    <path d="M284.458 128h159.895l67.661 67.66L579.675 128h159.893l204.71 153.531-60.715 242.849-115.55-38.517v452.803H256.012V485.863L140.461 524.38 79.748 281.531 284.456 128zm28.444 85.333L176.277 315.802l24.621 98.484 140.449-46.816v485.864h341.334V367.47l140.446 46.816 24.623-98.484-136.627-102.469h-96.102L512.015 316.339 409.008 213.333h-96.105z"/>
    <path d="M554.667 426.667c0 23.564-19.103 42.667-42.667 42.667s-42.667-19.103-42.667-42.667S488.436 384 512 384s42.667 19.103 42.667 42.667z"/>
    <path d="M554.667 597.333C554.667 620.897 535.564 640 512 640s-42.667-19.103-42.667-42.667 19.103-42.667 42.667-42.667 42.667 19.103 42.667 42.667z"/>
</symbol><symbol id="icon-youtube" viewBox="0 0 512 512">
    <path d="M476.387 144.888c-5.291-19.919-20.878-35.608-40.67-40.933C399.845 94.281 256 94.281 256 94.281s-143.845 0-179.719 9.674c-19.791 5.325-35.378 21.014-40.668 40.933-9.612 36.105-9.612 111.438-9.612 111.438s0 75.334 9.612 111.438c5.29 19.92 20.877 34.955 40.668 40.281C112.155 417.719 256 417.719 256 417.719s143.845 0 179.717-9.674c19.792-5.326 35.379-20.361 40.67-40.281 9.612-36.104 9.612-111.438 9.612-111.438s0-75.333-9.612-111.438zM208.954 324.723V187.93l120.226 68.398-120.226 68.395z"/>
</symbol></svg>