<!-- Generated by IcoMoon.io -->
<svg version="1.1" xmlns="http://www.w3.org/2000/svg" width="102.4" height="32" viewBox="0 0 3277 1024">
<title></title>
<g id="icomoon-ignore">
</g>
<path fill="#221f1f" stroke="#4d4b4b" stroke-linejoin="miter" stroke-linecap="butt" stroke-miterlimit="4" stroke-width="25.6" d="M102.4 12.8h3072c49.485 0 89.6 40.115 89.6 89.6v819.2c0 49.485-40.115 89.6-89.6 89.6h-3072c-49.485 0-89.6-40.115-89.6-89.6v-819.2c0-49.485 40.115-89.6 89.6-89.6z"></path>
<path fill="#00e3ff" d="M291.625 213.806c-6.707 7.091-10.675 18.099-10.675 32.384v509.542c0 14.285 3.968 25.267 10.675 32.358l287.155-287.155z"></path>
<path fill="#00e3ff" d="M293.315 212.144l-1.69 1.664c0.563-0.589 1.357-0.845 1.946-1.408z"></path>
<path fill="#00e3ff" d="M293.34 789.757l0.256-0.256c-0.614-0.538-1.408-0.794-1.971-1.408z"></path>
<path fill="#ffe000" d="M788.828 467.707l-112.768-64.051-97.28 97.28 97.28 97.331-2.176 1.254 2.176-1.229 112.742-64.051c32.23-18.304 32.23-48.23 0.026-66.534z"></path>
<path fill="#ff3a44" d="M578.78 500.938l-287.155 287.155c0.563 0.614 1.357 0.87 1.971 1.408 10.752 9.626 27.213 10.624 45.901 0l336.589-191.232z"></path>
<path fill="#00f076" d="M578.78 500.961l97.306-97.331-336.589-191.232c-18.688-10.624-35.2-9.626-45.926 0-0.589 0.563-1.382 0.819-1.946 1.408z"></path>
<path fill="#fff" d="M1433.674 569.165c-54.195 0-98.355 41.19-98.355 97.997 0 56.422 44.16 97.997 98.355 97.997s98.355-41.574 98.355-97.997c0-56.781-44.16-97.997-98.355-97.997zM1433.674 726.554c-29.696 0-55.296-24.499-55.296-59.392 0-35.251 25.6-59.392 55.296-59.392s55.296 24.115 55.296 59.392c0.026 34.893-25.6 59.392-55.296 59.392z"></path>
<path fill="#fff" d="M1648.256 569.165c-54.195 0-98.355 41.19-98.355 97.997 0 56.422 44.16 97.997 98.355 97.997s98.355-41.574 98.355-97.997c0.026-56.781-44.16-97.997-98.355-97.997zM1648.256 726.554c-29.696 0-55.296-24.499-55.296-59.392 0-35.251 25.626-59.392 55.296-59.392s55.296 24.115 55.296 59.392c0.026 34.893-25.6 59.392-55.296 59.392z"></path>
<path fill="#fff" d="M2585.216 471.194h-42.985v288.026h42.985z"></path>
<path fill="#fff" d="M1178.419 599.27v41.549h99.482c-2.97 23.373-10.752 40.448-22.656 52.326-14.464 14.464-37.12 30.438-76.826 30.438-61.235 0-109.133-49.357-109.133-110.618s47.872-110.618 109.133-110.618c33.050 0 57.165 13.005 74.982 29.696l29.312-29.312c-24.858-23.757-57.907-41.933-104.294-41.933-83.891 0-154.419 68.301-154.419 152.192s70.528 152.192 154.419 152.192c45.286 0 79.437-14.848 106.163-42.675 27.469-27.469 36.019-66.074 36.019-97.254 0-9.651-0.742-18.56-2.227-25.984z"></path>
<path fill="#fff" d="M2690.816 568.653c-31.13 0-63.36 13.722-76.698 44.109l38.17 15.923c8.141-15.923 23.347-21.12 39.27-21.12 22.221 0 44.826 13.338 45.21 37.043v2.97c-7.782-4.454-24.448-11.11-44.826-11.11-41.139 0-82.995 22.605-82.995 64.845 0 38.528 33.715 63.36 71.526 63.36 28.902 0 44.826-12.979 54.835-28.16h1.485v22.221h41.498v-110.438c-0.026-51.123-38.195-79.642-87.475-79.642zM2685.619 726.502c-14.080 0-33.715-7.040-33.715-24.448 0-22.221 24.448-30.746 45.568-30.746 18.893 0 27.802 4.070 39.27 9.626-3.302 26.675-26.291 45.568-51.123 45.568z"></path>
<path fill="#fff" d="M2880.179 699.827h-1.485l-51.123-124.877h-46.31l76.698 174.541-43.725 97.075h44.826l118.221-271.616h-47.821z"></path>
<path fill="#fff" d="M1911.683 591.078h-1.51c-9.651-11.494-28.211-21.888-51.584-21.888-48.998 0-93.901 43.059-93.901 98.355 0 54.938 44.902 97.613 93.901 97.613 23.373 0 41.933-10.394 51.584-22.272h1.485v14.106c0 37.478-20.045 57.523-52.326 57.523-26.342 0-42.675-18.918-49.357-34.893l-37.478 15.59c10.752 25.984 39.347 57.907 86.861 57.907 50.483 0 93.158-29.696 93.158-102.067v-175.949h-40.832zM1862.275 726.554c-29.696 0-54.554-24.858-54.554-59.008 0-34.509 24.883-59.75 54.554-59.75 29.312 0 52.326 25.242 52.326 59.75 0.026 34.15-22.989 59.008-52.326 59.008z"></path>
<path fill="#fff" d="M2424.015 471.194h-103.014v288.026h42.982v-109.133h60.032c47.667 0 94.49-34.509 94.49-89.446s-46.822-89.446-94.49-89.446zM2425.142 609.997h-61.158v-98.739h61.133c32.154 0 50.406 26.624 50.406 49.357 0 22.349-18.253 49.382-50.381 49.382z"></path>
<path fill="#fff" d="M2025.242 471.194h-43.059v288.026h43.059z"></path>
<path fill="#fff" d="M2222.339 631.526c-8.166-21.888-33.024-62.362-83.891-62.362-50.483 0-92.416 39.706-92.416 97.997 0 54.938 41.574 97.997 97.254 97.997 44.902 0 70.886-27.469 81.664-43.418l-33.408-22.272c-11.136 16.333-26.342 27.085-48.256 27.085s-37.478-10.035-47.514-29.696l131.021-54.195zM2088.707 664.192c-1.126-37.862 29.312-57.165 51.226-57.165 17.075 0 31.565 8.525 36.378 20.787z"></path>
<path fill="#fff" d="M1159.45 326.175l21.827 5.512c-4.577 17.925-12.826 31.613-24.75 41.062-11.85 9.377-26.363 14.065-43.538 14.065-17.777 0-32.251-3.602-43.425-10.801-11.1-7.276-19.576-17.774-25.426-31.501-5.775-13.724-8.663-28.462-8.663-44.211 0-17.175 3.264-32.138 9.789-44.888 6.6-12.825 15.936-22.537 28.012-29.137 12.15-6.675 25.5-10.013 40.051-10.013 16.499 0 30.374 4.2 41.623 12.6 11.251 8.4 19.087 20.212 23.514 35.437l-21.489 5.064c-3.825-12.001-9.375-20.738-16.65-26.213-7.273-5.475-16.425-8.212-27.448-8.212-12.675 0-23.288 3.037-31.839 9.112-8.474 6.075-14.436 14.249-17.887 24.525-3.451 10.199-5.176 20.739-5.176 31.613 0 14.024 2.025 26.286 6.077 36.787 4.124 10.424 10.499 18.225 19.123 23.398 8.625 5.176 17.964 7.764 28.014 7.764 12.224 0 22.574-3.525 31.050-10.575 8.474-7.050 14.211-17.513 17.211-31.388zM1205.576 264.525h20.25v51.638c6.449 0 10.949-1.236 13.499-3.712 2.627-2.476 6.451-9.677 11.476-21.601 3.973-9.449 7.199-15.675 9.674-18.675s5.325-5.025 8.55-6.075 8.399-1.574 15.524-1.574h4.050v16.763l-5.624-0.113c-5.325 0-8.737 0.788-10.237 2.363-1.574 1.649-3.976 6.561-7.199 14.738-3.077 7.8-5.888 13.199-8.438 16.2s-6.487 5.737-11.814 8.212c8.701 2.324 17.252 10.424 25.651 24.3l22.162 37.012h-22.275l-21.599-37.012c-4.426-7.424-8.289-12.301-11.589-14.625-3.3-2.399-7.237-3.599-11.812-3.599v55.237h-20.25zM1389.624 369.262c-7.498 6.374-14.738 10.875-21.711 13.501-6.899 2.624-14.326 3.937-22.275 3.937-13.125 0-23.214-3.187-30.264-9.564-7.050-6.449-10.573-14.661-10.573-24.637 0-5.85 1.311-11.174 3.937-15.974 2.698-4.874 6.188-8.776 10.46-11.699 4.352-2.926 9.226-5.138 14.625-6.638 3.976-1.050 9.976-2.063 18.002-3.039 16.348-1.948 28.388-4.273 36.111-6.973 0.074-2.775 0.113-4.539 0.113-5.289 0-8.248-1.912-14.062-5.737-17.436-5.176-4.575-12.864-6.863-23.063-6.863-9.526 0-16.576 1.687-21.151 5.064-4.498 3.3-7.836 9.188-10.012 17.661l-19.799-2.698c1.8-8.476 4.762-15.301 8.886-20.477 4.127-5.248 10.089-9.262 17.889-12.037 7.8-2.849 16.837-4.275 27.113-4.275 10.199 0 18.486 1.201 24.863 3.602 6.374 2.399 11.062 5.437 14.062 9.111 3 3.599 5.1 8.177 6.3 13.727 0.673 3.448 1.011 9.674 1.011 18.673v27c0 18.826 0.412 30.751 1.239 35.776 0.899 4.951 2.624 9.713 5.174 14.287h-21.151c-2.099-4.201-3.448-9.114-4.050-14.738zM1387.937 324.037c-7.35 3-18.376 5.55-33.075 7.649-8.325 1.201-14.213 2.552-17.661 4.050-3.451 1.5-6.113 3.715-7.987 6.638-1.876 2.852-2.813 6.039-2.813 9.564 0 5.399 2.025 9.9 6.075 13.499 4.124 3.599 10.125 5.399 17.999 5.399 7.8 0 14.738-1.687 20.813-5.061 6.075-3.451 10.537-8.138 13.389-14.062 2.173-4.575 3.261-11.325 3.261-20.25zM1427.313 264.525h20.25v22.612c0 9.751 0.563 16.837 1.687 21.263 1.201 4.349 4.014 8.174 8.438 11.474 4.426 3.226 9.976 4.838 16.65 4.838 7.649 0 17.551-2.025 29.701-6.075v-54.113h20.25v119.475h-20.25v-48.151c-12.452 3.901-24.077 5.852-34.875 5.852-9.075 0-17.101-2.289-24.077-6.863-6.899-4.652-11.587-10.312-14.062-16.988-2.476-6.674-3.712-14.024-3.712-22.049zM1632.85 369.262c-7.501 6.374-14.738 10.875-21.711 13.501-6.902 2.624-14.326 3.937-22.277 3.937-13.125 0-23.212-3.187-30.262-9.564-7.050-6.449-10.575-14.661-10.575-24.637 0-5.85 1.313-11.174 3.937-15.974 2.701-4.874 6.188-8.776 10.463-11.699 4.349-2.926 9.226-5.138 14.625-6.638 3.976-1.050 9.976-2.063 17.999-3.039 16.351-1.948 28.388-4.273 36.114-6.973 0.074-2.775 0.113-4.539 0.113-5.289 0-8.248-1.912-14.062-5.737-17.436-5.176-4.575-12.864-6.863-23.063-6.863-9.526 0-16.576 1.687-21.151 5.064-4.5 3.3-7.836 9.188-10.012 17.661l-19.799-2.698c1.8-8.476 4.762-15.301 8.886-20.477 4.127-5.248 10.089-9.262 17.889-12.037 7.798-2.849 16.837-4.275 27.11-4.275 10.202 0 18.488 1.201 24.863 3.602 6.377 2.399 11.064 5.437 14.062 9.111 3 3.599 5.102 8.177 6.3 13.727 0.676 3.448 1.014 9.674 1.014 18.673v27c0 18.826 0.412 30.751 1.236 35.776 0.901 4.951 2.627 9.713 5.176 14.287h-21.151c-2.099-4.201-3.451-9.114-4.050-14.738zM1631.163 324.037c-7.35 3-18.376 5.55-33.075 7.649-8.325 1.201-14.213 2.552-17.661 4.050-3.451 1.5-6.113 3.715-7.99 6.638-1.874 2.852-2.811 6.039-2.811 9.564 0 5.399 2.025 9.9 6.075 13.499 4.124 3.599 10.125 5.399 17.999 5.399 7.8 0 14.738-1.687 20.813-5.061 6.075-3.451 10.537-8.138 13.386-14.062 2.176-4.575 3.264-11.325 3.264-20.25zM1667.049 264.525h97.088v16.763h-38.474v102.712h-20.137v-102.712h-38.477zM1783.15 264.525h20.25v46.687h25.651c16.724 0 29.586 3.264 38.587 9.789 9.075 6.449 13.612 15.373 13.612 26.775 0 9.974-3.786 18.524-11.361 25.649-7.501 7.050-19.538 10.575-36.114 10.575h-50.624zM1803.4 367.35h21.263c12.826 0 21.975-1.574 27.448-4.726 5.476-3.149 8.212-8.061 8.212-14.735 0-5.176-2.025-9.789-6.075-13.839s-13.012-6.075-26.888-6.075h-23.962zM1967.875 264.525h46.687c11.476 0 19.988 0.975 25.539 2.926 5.624 1.874 10.424 5.361 14.4 10.463 4.050 5.1 6.075 11.21 6.075 18.337 0 5.699-1.201 10.685-3.599 14.961-2.324 4.201-5.85 7.726-10.575 10.575 5.624 1.876 10.276 5.402 13.949 10.575 3.75 5.1 5.624 11.174 5.624 18.225-0.748 11.325-4.8 19.725-12.15 25.201s-18.038 8.212-32.061 8.212h-53.888zM1988.124 314.813h21.601c8.625 0 14.548-0.451 17.774-1.352 3.226-0.899 6.113-2.698 8.663-5.399 2.55-2.775 3.825-6.075 3.825-9.9 0-6.3-2.25-10.688-6.751-13.164-4.424-2.476-12.037-3.712-22.838-3.712h-22.275zM1988.124 367.35h26.662c11.476 0 19.351-1.313 23.626-3.937 4.275-2.701 6.525-7.311 6.751-13.837 0-3.825-1.239-7.35-3.715-10.575-2.473-3.3-5.699-5.363-9.674-6.188-3.976-0.901-10.35-1.349-19.126-1.349h-24.525z"></path>
</svg>
